<?xml version="1.0" encoding="UTF-8"?><svg id="_圖層_1" xmlns="http://www.w3.org/2000/svg" viewBox="0 0 200 200"><defs><style>.cls-1{fill:none;}.cls-1,.cls-2,.cls-3{stroke-width:0px;}.cls-4{opacity:.5;}.cls-2{fill:#4d4d4d;}.cls-3{fill:#e17b5e;}</style></defs><circle class="cls-1" cx="100" cy="100" r="100"/><g class="cls-4"><path class="cls-3" d="m134.94,136.57l-14.13-8.16c-1.17-.68-2.64.17-2.64,1.52v16.32c0,1.35,1.46,2.2,2.64,1.52l14.13-8.16c1.17-.68,1.17-2.37,0-3.04Z"/></g><g class="cls-4"><rect class="cls-3" x="77.61" y="99.37" width="71.82" height="22.43" rx="4.06" ry="4.06"/></g><path class="cls-2" d="m151.91,158.3h-62.99c-2.89,0-5.25-2.35-5.25-5.25v-44.97c0-2.89,2.35-5.25,5.25-5.25h62.99c2.89,0,5.25,2.35,5.25,5.25v19.31c0,.97-.78,1.75-1.75,1.75s-1.75-.78-1.75-1.75v-19.31c0-.96-.78-1.75-1.75-1.75h-62.99c-.96,0-1.75.78-1.75,1.75v44.97c0,.96.78,1.75,1.75,1.75h62.99c.96,0,1.75-.78,1.75-1.75v-10.7c0-.97.78-1.75,1.75-1.75s1.75.78,1.75,1.75v10.7c0,2.89-2.35,5.25-5.25,5.25Z"/><path class="cls-2" d="m155.41,120.45h-69.98c-.97,0-1.75-.78-1.75-1.75s.78-1.75,1.75-1.75h69.98c.97,0,1.75.78,1.75,1.75s-.78,1.75-1.75,1.75Z"/><path class="cls-2" d="m93.14,120.45c-.28,0-.56-.07-.82-.21-.85-.46-1.18-1.51-.72-2.37l7.53-14.12c.45-.85,1.51-1.18,2.37-.72.85.46,1.18,1.51.72,2.37l-7.53,14.12c-.31.59-.92.93-1.55.93Z"/><path class="cls-2" d="m104.9,120.45c-.28,0-.56-.07-.82-.21-.85-.46-1.18-1.51-.72-2.37l7.53-14.12c.45-.85,1.51-1.18,2.37-.72.85.46,1.18,1.51.72,2.37l-7.53,14.12c-.31.59-.92.93-1.55.93Z"/><path class="cls-2" d="m116.65,120.45c-.28,0-.56-.07-.82-.21-.85-.46-1.18-1.51-.72-2.37l7.53-14.12c.45-.85,1.51-1.18,2.37-.72.85.46,1.18,1.51.72,2.37l-7.53,14.12c-.31.59-.92.93-1.55.93Z"/><path class="cls-2" d="m128.41,120.45c-.28,0-.56-.07-.82-.21-.85-.46-1.18-1.51-.72-2.37l7.53-14.12c.45-.85,1.51-1.18,2.37-.72.85.46,1.18,1.51.72,2.37l-7.53,14.12c-.31.59-.92.93-1.55.93Z"/><path class="cls-2" d="m140.16,120.45c-.28,0-.56-.07-.82-.21-.85-.46-1.18-1.51-.72-2.37l7.53-14.12c.45-.85,1.51-1.18,2.37-.72.85.46,1.18,1.51.72,2.37l-7.53,14.12c-.31.59-.92.93-1.55.93Z"/><path class="cls-2" d="m116.17,147c-.54,0-1.08-.14-1.57-.43-.99-.57-1.58-1.59-1.58-2.73v-13c0-1.14.59-2.16,1.58-2.73.99-.57,2.16-.57,3.15,0l11.25,6.5c.99.57,1.57,1.59,1.57,2.73s-.59,2.16-1.58,2.73l-11.25,6.5c-.49.29-1.03.43-1.57.43Zm.35-15.54v11.78l10.2-5.89-10.2-5.89Zm10.73,6.19h0,0Z"/><circle class="cls-2" cx="155.41" cy="134.81" r="1.75"/><path class="cls-2" d="m76.48,139.85h-20.76c-2.07,0-3.75-1.68-3.75-3.75V39.58c0-2.07,1.68-3.75,3.75-3.75h70.92c2.07,0,3.75,1.68,3.75,3.75v56.88c0,.97-.78,1.75-1.75,1.75s-1.75-.78-1.75-1.75v-56.88c0-.13-.12-.25-.25-.25H55.72c-.13,0-.25.12-.25.25v96.52c0,.13.12.25.25.25h20.76c.97,0,1.75.78,1.75,1.75s-.78,1.75-1.75,1.75Z"/><path class="cls-2" d="m68.22,139.05c-.97,0-1.75-.78-1.75-1.75V37.58c0-.97.78-1.75,1.75-1.75s1.75.78,1.75,1.75v99.72c0,.97-.78,1.75-1.75,1.75Z"/><path class="cls-2" d="m60.02,54.81h-13.97c-.97,0-1.75-.78-1.75-1.75s.78-1.75,1.75-1.75h13.97c.97,0,1.75.78,1.75,1.75s-.78,1.75-1.75,1.75Z"/><path class="cls-2" d="m60.02,65.86h-13.97c-.97,0-1.75-.78-1.75-1.75s.78-1.75,1.75-1.75h13.97c.97,0,1.75.78,1.75,1.75s-.78,1.75-1.75,1.75Z"/><path class="cls-2" d="m60.02,76.9h-13.97c-.97,0-1.75-.78-1.75-1.75s.78-1.75,1.75-1.75h13.97c.97,0,1.75.78,1.75,1.75s-.78,1.75-1.75,1.75Z"/><path class="cls-2" d="m60.02,101.29h-13.97c-.97,0-1.75-.78-1.75-1.75s.78-1.75,1.75-1.75h13.97c.97,0,1.75.78,1.75,1.75s-.78,1.75-1.75,1.75Z"/><path class="cls-2" d="m60.02,112.33h-13.97c-.97,0-1.75-.78-1.75-1.75s.78-1.75,1.75-1.75h13.97c.97,0,1.75.78,1.75,1.75s-.78,1.75-1.75,1.75Z"/><path class="cls-2" d="m60.02,123.38h-13.97c-.97,0-1.75-.78-1.75-1.75s.78-1.75,1.75-1.75h13.97c.97,0,1.75.78,1.75,1.75s-.78,1.75-1.75,1.75Z"/><path class="cls-2" d="m117.66,76.9c-.55,0-1.09-.26-1.42-.73l-3.68-5.14-3.68,5.14c-.44.62-1.24.88-1.96.65-.72-.23-1.22-.91-1.22-1.67v-37.57c0-.97.78-1.75,1.75-1.75h10.2c.97,0,1.75.78,1.75,1.75v37.57c0,.76-.49,1.43-1.22,1.67-.18.06-.36.08-.53.08Zm-5.1-10.63c.56,0,1.09.27,1.42.73l1.93,2.69v-30.37h-6.7v30.37l1.93-2.69c.33-.46.86-.73,1.42-.73Z"/></svg>