<?xml version="1.0" encoding="UTF-8"?><svg xmlns="http://www.w3.org/2000/svg" viewBox="0 0 200 200"><defs><style>.cls-1,.cls-2,.cls-3{stroke-width:0px;}.cls-1,.cls-4{fill:none;}.cls-2{fill:#e17b5e;opacity:.5;}.cls-4{stroke:#4d4d4d;stroke-linecap:round;stroke-linejoin:round;stroke-width:3.5px;}.cls-3{fill:#4d4d4d;}</style></defs><g id="_圖層_1"><path class="cls-2" d="m104.16,65.13l-6.75-3.22c-.54-.26-1.18-.26-1.72,0l-6.75,3.22c-1.33.63-2.86-.33-2.86-1.8v-14.19c0-1.1.9-2,2-2h16.95c1.1,0,2,.9,2,2v14.19c0,1.47-1.53,2.44-2.86,1.8Z"/><path class="cls-2" d="m79.31,114.84l-6.75-3.22c-.54-.26-1.18-.26-1.72,0l-6.75,3.22c-1.33.63-2.86-.33-2.86-1.8v-14.19c0-1.1.9-2,2-2h16.95c1.1,0,2,.9,2,2v14.19c0,1.47-1.53,2.44-2.86,1.8Z"/><path class="cls-2" d="m129.02,114.84l-6.75-3.22c-.54-.26-1.18-.26-1.72,0l-6.75,3.22c-1.33.63-2.86-.33-2.86-1.8v-14.19c0-1.1.9-2,2-2h16.95c1.1,0,2,.9,2,2v14.19c0,1.47-1.53,2.44-2.86,1.8Z"/><circle class="cls-3" cx="104.23" cy="86.17" r="1.75"/><circle class="cls-3" cx="110.39" cy="86.17" r="1.75"/><circle class="cls-3" cx="116.55" cy="86.17" r="1.75"/><circle class="cls-3" cx="104.23" cy="92.19" r="1.75"/><circle class="cls-3" cx="110.39" cy="92.19" r="1.75"/><circle class="cls-3" cx="116.55" cy="92.19" r="1.75"/><rect class="cls-4" x="75.15" y="50.29" width="49.71" height="49.71" rx="5" ry="5"/><path class="cls-4" d="m107.61,68.29l-6.75-3.22c-.54-.26-1.18-.26-1.72,0l-6.75,3.22c-1.33.63-2.86-.33-2.86-1.8v-14.19c0-1.1.9-2,2-2h16.95c1.1,0,2,.9,2,2v14.19c0,1.47-1.53,2.44-2.86,1.8Z"/><circle class="cls-3" cx="79.38" cy="135.88" r="1.75"/><circle class="cls-3" cx="85.54" cy="135.88" r="1.75"/><circle class="cls-3" cx="91.7" cy="135.88" r="1.75"/><circle class="cls-3" cx="79.38" cy="141.9" r="1.75"/><circle class="cls-3" cx="85.54" cy="141.9" r="1.75"/><circle class="cls-3" cx="91.7" cy="141.9" r="1.75"/><path class="cls-4" d="m55.29,100h44.71v44.71c0,2.76-2.24,5-5,5h-39.71c-2.76,0-5-2.24-5-5v-39.71c0-2.76,2.24-5,5-5Z"/><path class="cls-4" d="m82.76,118l-6.75-3.22c-.54-.26-1.18-.26-1.72,0l-6.75,3.22c-1.33.63-2.86-.33-2.86-1.8v-14.19c0-1.1.9-2,2-2h16.95c1.1,0,2,.9,2,2v14.19c0,1.47-1.53,2.44-2.86,1.8Z"/><circle class="cls-3" cx="129.09" cy="135.88" r="1.75"/><circle class="cls-3" cx="135.25" cy="135.88" r="1.75"/><circle class="cls-3" cx="141.41" cy="135.88" r="1.75"/><circle class="cls-3" cx="129.09" cy="141.9" r="1.75"/><circle class="cls-3" cx="135.25" cy="141.9" r="1.75"/><circle class="cls-3" cx="141.41" cy="141.9" r="1.75"/><path class="cls-4" d="m100,100h44.71c2.76,0,5,2.24,5,5v39.71c0,2.76-2.24,5-5,5h-39.71c-2.76,0-5-2.24-5-5v-44.71h0Z"/><path class="cls-4" d="m132.47,118l-6.75-3.22c-.54-.26-1.18-.26-1.72,0l-6.75,3.22c-1.33.63-2.86-.33-2.86-1.8v-14.19c0-1.1.9-2,2-2h16.95c1.1,0,2,.9,2,2v14.19c0,1.47-1.53,2.44-2.86,1.8Z"/></g><g id="_圖層_2"><circle class="cls-1" cx="100" cy="100" r="100"/></g></svg>