<?xml version="1.0" encoding="UTF-8"?><svg id="_圖層_1" xmlns="http://www.w3.org/2000/svg" viewBox="0 0 200 200"><defs><style>.cls-1{fill:none;}.cls-1,.cls-2,.cls-3{stroke-width:0px;}.cls-4{opacity:.5;}.cls-2{fill:#4d4d4d;}.cls-3{fill:#e17b5e;}</style></defs><circle class="cls-1" cx="100" cy="100" r="100"/><g class="cls-4"><circle class="cls-3" cx="66.86" cy="79.99" r="5.99"/></g><g class="cls-4"><circle class="cls-3" cx="117.97" cy="80.7" r="6.38"/></g><path class="cls-2" d="m46.58,62.28c-.26,0-.51-.1-.71-.29-.39-.39-.39-1.02,0-1.41l3.42-3.42c.39-.39,1.02-.39,1.41,0s.39,1.02,0,1.41l-3.42,3.42c-.2.2-.45.29-.71.29Z"/><path class="cls-2" d="m39.49,69.37c-.26,0-.51-.1-.71-.29-.39-.39-.39-1.02,0-1.41l3.42-3.42c.39-.39,1.02-.39,1.41,0s.39,1.02,0,1.41l-3.42,3.42c-.2.2-.45.29-.71.29Z"/><path class="cls-2" d="m50,69.37c-.26,0-.51-.1-.71-.29l-3.42-3.42c-.39-.39-.39-1.02,0-1.41s1.02-.39,1.41,0l3.42,3.42c.39.39.39,1.02,0,1.41-.2.2-.45.29-.71.29Z"/><path class="cls-2" d="m42.91,62.28c-.26,0-.51-.1-.71-.29l-3.42-3.42c-.39-.39-.39-1.02,0-1.41s1.02-.39,1.41,0l3.42,3.42c.39.39.39,1.02,0,1.41-.2.2-.45.29-.71.29Z"/><path class="cls-2" d="m56.38,43.02c-.26,0-.51-.1-.71-.29-.39-.39-.39-1.02,0-1.41l3.42-3.42c.39-.39,1.02-.39,1.41,0s.39,1.02,0,1.41l-3.42,3.42c-.2.2-.45.29-.71.29Z"/><path class="cls-2" d="m49.29,50.11c-.26,0-.51-.1-.71-.29-.39-.39-.39-1.02,0-1.41l3.42-3.42c.39-.39,1.02-.39,1.41,0s.39,1.02,0,1.41l-3.42,3.42c-.2.2-.45.29-.71.29Z"/><path class="cls-2" d="m59.8,50.11c-.26,0-.51-.1-.71-.29l-3.42-3.42c-.39-.39-.39-1.02,0-1.41s1.02-.39,1.41,0l3.42,3.42c.39.39.39,1.02,0,1.41-.2.2-.45.29-.71.29Z"/><path class="cls-2" d="m52.71,43.02c-.26,0-.51-.1-.71-.29l-3.42-3.42c-.39-.39-.39-1.02,0-1.41s1.02-.39,1.41,0l3.42,3.42c.39.39.39,1.02,0,1.41-.2.2-.45.29-.71.29Z"/><path class="cls-2" d="m120.59,104.22h-41.17c-8.67,0-15.71-7.05-15.71-15.72,0-.04,0-.08,0-.12l2.93-42.57c.07-1.09.6-2.11,1.44-2.8.83-.69,1.93-1.01,3-.88,3.54.42,10.1,2.18,15.36,9.14,3.09-.96,6.29-1.45,9.54-1.45h8.07c3.25,0,6.45.49,9.54,1.45,5.26-6.96,11.82-8.72,15.36-9.14h0c1.07-.13,2.17.19,3,.88.84.69,1.36,1.71,1.44,2.8l2.93,42.57s0,.08,0,.12c0,8.67-7.05,15.72-15.71,15.72Zm-53.39-15.66c.03,6.71,5.5,12.16,12.21,12.16h41.17c6.72,0,12.18-5.45,12.21-12.16l-2.93-42.5c-.01-.18-.12-.29-.18-.34-.07-.06-.19-.12-.35-.11h0c-3.13.37-9.07,2-13.66,8.72-.45.66-1.28.93-2.03.66-3.1-1.11-6.33-1.67-9.62-1.67h-8.07c-3.29,0-6.52.56-9.62,1.67-.75.27-1.58,0-2.03-.66-4.6-6.72-10.53-8.35-13.66-8.72-.16-.01-.28.05-.35.11-.06.05-.16.16-.18.34l-2.93,42.5Zm61.94-44.69h0,0Z"/><path class="cls-2" d="m131.39,129.22c-.97,0-1.75-.78-1.75-1.75,0-12.82-10.43-23.25-23.25-23.25h-12.79c-12.82,0-23.25,10.43-23.25,23.25,0,.97-.78,1.75-1.75,1.75s-1.75-.78-1.75-1.75c0-14.75,12-26.75,26.75-26.75h12.79c14.75,0,26.75,12,26.75,26.75,0,.97-.78,1.75-1.75,1.75Z"/><path class="cls-2" d="m77.47,164.16c-5.85,0-10.62-4.76-10.62-10.62v-13.12c0-.97.78-1.75,1.75-1.75s1.75.78,1.75,1.75v13.12c0,3.92,3.19,7.12,7.12,7.12s7.12-3.19,7.12-7.12v-26.07c0-.97.78-1.75,1.75-1.75s1.75.78,1.75,1.75v26.07c0,5.85-4.76,10.62-10.62,10.62Z"/><path class="cls-2" d="m122.53,164.16c-5.85,0-10.62-4.76-10.62-10.62v-26.07c0-.97.78-1.75,1.75-1.75s1.75.78,1.75,1.75v26.07c0,3.92,3.19,7.12,7.12,7.12s7.12-3.19,7.12-7.12v-26.07c0-.97.78-1.75,1.75-1.75s1.75.78,1.75,1.75v26.07c0,5.85-4.76,10.62-10.62,10.62Z"/><path class="cls-2" d="m100,158.8c-4.85,0-9.67-.21-14.31-.62-.96-.08-1.67-.93-1.59-1.9.08-.96.93-1.68,1.9-1.59,9.09.8,18.96.8,28.01,0,.97-.09,1.81.63,1.9,1.59.08.96-.63,1.81-1.59,1.9-4.63.41-9.45.62-14.31.62Z"/><circle class="cls-2" cx="108.16" cy="69.44" r="3.73"/><circle class="cls-2" cx="85.38" cy="69.44" r="3.73"/><path class="cls-2" d="m68.61,153.48h-8.17c-.97,0-1.75-.78-1.75-1.75s.78-1.75,1.75-1.75h8.17c.97,0,1.75.78,1.75,1.75s-.78,1.75-1.75,1.75Z"/><path class="cls-2" d="m136.56,154.55c-2.26,0-4.45-.87-6.17-2.53l-.24-.23c-.68-.69-.68-1.79,0-2.48.69-.68,1.79-.68,2.47,0l.18.17c1.92,1.85,4.33,1.78,5.95,1.09,1.64-.7,3.39-2.41,3.39-5.11v-32.01c0-5.21,4.09-9.56,9.11-9.71,2.57-.08,4.99.86,6.83,2.65,1.84,1.79,2.85,4.18,2.85,6.75,0,.97-.78,1.75-1.75,1.75s-1.75-.78-1.75-1.75c0-1.61-.64-3.11-1.79-4.23-1.15-1.12-2.67-1.72-4.29-1.66-3.15.09-5.72,2.88-5.72,6.22v32.01c0,3.69-2.12,6.89-5.52,8.33-1.17.5-2.38.74-3.57.74Z"/><path class="cls-2" d="m92.26,86.79c-.38,0-.77-.04-1.15-.13-2.87-.63-4.69-3.48-4.06-6.34.21-.94,1.14-1.54,2.08-1.33.94.21,1.54,1.14,1.33,2.08-.22.98.41,1.96,1.39,2.17.48.1.96.02,1.38-.25.41-.26.69-.67.8-1.15.21-.94,1.14-1.54,2.08-1.33.94.21,1.54,1.14,1.33,2.08-.31,1.39-1.13,2.58-2.33,3.34-.87.55-1.85.84-2.86.84Z"/><path class="cls-2" d="m99.22,86.79c-1.01,0-1.99-.29-2.86-.84-1.2-.77-2.03-1.95-2.33-3.34-.21-.94.39-1.88,1.33-2.08.95-.21,1.88.39,2.08,1.33.1.48.39.88.8,1.15s.9.35,1.38.25c.98-.22,1.61-1.19,1.39-2.17-.21-.94.39-1.88,1.33-2.08.95-.21,1.88.39,2.08,1.33.63,2.87-1.19,5.71-4.06,6.34-.38.08-.77.13-1.15.13Z"/><path class="cls-2" d="m75.73,57.49c-.75,0-1.45-.49-1.68-1.25l-1.55-5.21c-.28-.93.25-1.9,1.18-2.18.93-.28,1.9.25,2.18,1.18l1.55,5.21c.28.93-.25,1.9-1.18,2.18-.17.05-.33.07-.5.07Z"/><path class="cls-2" d="m122.53,57.49c-.17,0-.33-.02-.5-.07-.93-.28-1.45-1.25-1.18-2.18l1.55-5.21c.28-.92,1.25-1.46,2.18-1.18.93.28,1.45,1.25,1.18,2.18l-1.55,5.21c-.23.76-.92,1.25-1.68,1.25Z"/><path class="cls-2" d="m66.37,88.4c-.16,0-.33,0-.49-.01-.96-.06-1.7-.89-1.64-1.85s.89-1.69,1.85-1.64c2.42.16,4.5-1.7,4.65-4.11.07-1.17-.32-2.3-1.09-3.18-.78-.88-1.85-1.4-3.02-1.47-.96-.06-1.7-.89-1.64-1.85.06-.96.88-1.68,1.85-1.64,2.1.13,4.03,1.07,5.43,2.65,1.4,1.58,2.09,3.61,1.96,5.71-.26,4.18-3.74,7.41-7.87,7.41Z"/><path class="cls-2" d="m121.68,88.59c-4.35,0-7.89-3.54-7.89-7.89s3.54-7.89,7.89-7.89,7.89,3.54,7.89,7.89-3.54,7.89-7.89,7.89Zm0-12.28c-2.42,0-4.39,1.97-4.39,4.39s1.97,4.39,4.39,4.39,4.39-1.97,4.39-4.39-1.97-4.39-4.39-4.39Z"/><circle class="cls-2" cx="68.61" cy="134.21" r="1.75"/></svg>