<?xml version="1.0" encoding="UTF-8"?><svg id="_圖層_1" xmlns="http://www.w3.org/2000/svg" viewBox="0 0 200 200"><defs><style>.cls-1{fill:none;}.cls-1,.cls-2,.cls-3{stroke-width:0px;}.cls-4{opacity:.5;}.cls-2{fill:#4d4d4d;}.cls-3{fill:#e17b5e;}</style></defs><circle class="cls-1" cx="100" cy="100" r="100"/><g class="cls-4"><path class="cls-3" d="m122.99,87.05h-15.63c-1.66,0-3-1.34-3-3v-15.62c0-1.66-1.34-3-3-3h-12.18c-1.66,0-3,1.34-3,3v15.62c0,1.66-1.34,3-3,3h-15.63c-1.66,0-3,1.34-3,3v12.18c0,1.66,1.34,3,3,3h15.63c1.66,0,3,1.34,3,3v15.62c0,1.66,1.34,3,3,3h12.18c1.66,0,3-1.34,3-3v-15.62c0-1.66,1.34-3,3-3h15.63c1.66,0,3-1.34,3-3v-12.18c0-1.66-1.34-3-3-3Z"/></g><circle class="cls-2" cx="65.92" cy="67.65" r="1.75"/><path class="cls-2" d="m100,155.52c-30.61,0-55.52-24.91-55.52-55.52s24.9-55.52,55.52-55.52,55.52,24.9,55.52,55.52-24.9,55.52-55.52,55.52Zm0-107.53c-28.68,0-52.02,23.33-52.02,52.02s23.33,52.02,52.02,52.02,52.02-23.33,52.02-52.02-23.33-52.02-52.02-52.02Z"/><path class="cls-2" d="m100,148.83c-26.93,0-48.83-21.91-48.83-48.83,0-10.61,3.35-20.71,9.68-29.18.58-.77,1.68-.93,2.45-.36.77.58.93,1.67.36,2.45-5.88,7.87-8.98,17.24-8.98,27.09,0,25,20.34,45.33,45.33,45.33s45.33-20.34,45.33-45.33-20.34-45.33-45.33-45.33c-10.51,0-20.75,3.68-28.84,10.35-.75.62-1.85.51-2.46-.24-.62-.75-.51-1.85.24-2.46,8.71-7.19,19.75-11.15,31.06-11.15,26.93,0,48.83,21.91,48.83,48.83s-21.91,48.83-48.83,48.83Z"/><path class="cls-2" d="m106.99,133.74h-12.18c-2.62,0-4.75-2.13-4.75-4.75v-15.62c0-.69-.56-1.25-1.25-1.25h-15.62c-2.62,0-4.75-2.13-4.75-4.75v-12.18c0-2.62,2.13-4.75,4.75-4.75h15.62c.69,0,1.25-.56,1.25-1.25v-15.62c0-2.62,2.13-4.75,4.75-4.75h12.18c2.62,0,4.75,2.13,4.75,4.75v15.62c0,.69.56,1.25,1.25,1.25h15.62c2.62,0,4.75,2.13,4.75,4.75v12.18c0,2.62-2.13,4.75-4.75,4.75h-15.62c-.69,0-1.25.56-1.25,1.25v15.62c0,2.62-2.13,4.75-4.75,4.75Zm-33.8-39.8c-.69,0-1.25.56-1.25,1.25v12.18c0,.69.56,1.25,1.25,1.25h15.62c2.62,0,4.75,2.13,4.75,4.75v15.62c0,.69.56,1.25,1.25,1.25h12.18c.69,0,1.25-.56,1.25-1.25v-15.62c0-2.62,2.13-4.75,4.75-4.75h15.62c.69,0,1.25-.56,1.25-1.25v-12.18c0-.69-.56-1.25-1.25-1.25h-15.62c-2.62,0-4.75-2.13-4.75-4.75v-15.62c0-.69-.56-1.25-1.25-1.25h-12.18c-.69,0-1.25.56-1.25,1.25v15.62c0,2.62-2.13,4.75-4.75,4.75h-15.62Z"/><path class="cls-2" d="m99.16,76.11l-2.27,3.93c-.77,1.33.19,3,1.73,3h4.54c1.54,0,2.5-1.67,1.73-3l-2.27-3.93c-.77-1.33-2.69-1.33-3.46,0Z"/><path class="cls-2" d="m102.63,127.63l2.27-3.93c.77-1.33-.19-3-1.73-3h-4.54c-1.54,0-2.5,1.67-1.73,3l2.27,3.93c.77,1.33,2.69,1.33,3.46,0Z"/><path class="cls-2" d="m126.66,100.14l-3.93-2.27c-1.33-.77-3,.19-3,1.73v4.54c0,1.54,1.67,2.5,3,1.73l3.93-2.27c1.33-.77,1.33-2.69,0-3.46Z"/><path class="cls-2" d="m75.13,103.61l3.93,2.27c1.33.77,3-.19,3-1.73v-4.54c0-1.54-1.67-2.5-3-1.73l-3.93,2.27c-1.33.77-1.33,2.69,0,3.46Z"/></svg>