<?xml version="1.0" encoding="UTF-8"?><svg id="_圖層_1" xmlns="http://www.w3.org/2000/svg" viewBox="0 0 200 200"><defs><style>.cls-1{fill:none;}.cls-1,.cls-2,.cls-3{stroke-width:0px;}.cls-4{opacity:.5;}.cls-2{fill:#4d4d4d;}.cls-3{fill:#e17b5e;}</style></defs><circle class="cls-1" cx="100" cy="100" r="100"/><g class="cls-4"><path class="cls-3" d="m75.64,67.14h-8.8c-4.65,0-8.45,3.8-8.45,8.45s3.8,8.45,8.45,8.45h8.8v-16.89Z"/></g><g class="cls-4"><path class="cls-3" d="m153.7,67.14h-29.99v16.89h29.99c4.65,0,8.45-3.8,8.45-8.45s-3.8-8.45-8.45-8.45Z"/></g><path class="cls-2" d="m81.09,91.72c-.97,0-1.75-.78-1.75-1.75v-24.74c0-4.32,3.52-7.84,7.84-7.84s7.84,3.52,7.84,7.84v5.33c0,.97-.78,1.75-1.75,1.75s-1.75-.78-1.75-1.75v-5.33c0-2.39-1.95-4.34-4.34-4.34s-4.34,1.95-4.34,4.34v24.74c0,.97-.78,1.75-1.75,1.75Z"/><path class="cls-2" d="m117.63,72.31c-.97,0-1.75-.78-1.75-1.75v-5.33c0-2.39-1.95-4.34-4.34-4.34s-4.34,1.95-4.34,4.34v5.33c0,.97-.78,1.75-1.75,1.75s-1.75-.78-1.75-1.75v-5.33c0-4.32,3.52-7.84,7.84-7.84s7.84,3.52,7.84,7.84v5.33c0,.97-.78,1.75-1.75,1.75Z"/><path class="cls-2" d="m81.09,162.87c-.97,0-1.75-.78-1.75-1.75v-55.19l-8.59-8.54c-2.23-2.22-2.92-5.55-1.74-8.49.36-.9,1.38-1.33,2.27-.97.9.36,1.33,1.38.97,2.28-.65,1.63-.27,3.48.96,4.71l9.62,9.56v56.65c0,.97-.78,1.75-1.75,1.75Z"/><path class="cls-2" d="m129.8,170.12c-.97,0-1.75-.78-1.75-1.75v-98.8c0-2.39-1.95-4.34-4.34-4.34s-4.34,1.95-4.34,4.34c0,.97-.78,1.75-1.75,1.75s-1.75-.78-1.75-1.75c0-4.32,3.52-7.84,7.84-7.84s7.84,3.52,7.84,7.84v98.8c0,.97-.78,1.75-1.75,1.75Z"/><path class="cls-2" d="m105.45,68.89c-.97,0-1.75-.78-1.75-1.75v-5.33c0-2.39-1.95-4.34-4.34-4.34s-4.34,1.95-4.34,4.34v5.33c0,.97-.78,1.75-1.75,1.75s-1.75-.78-1.75-1.75v-5.33c0-4.32,3.52-7.84,7.84-7.84s7.84,3.52,7.84,7.84v5.33c0,.97-.78,1.75-1.75,1.75Z"/><path class="cls-2" d="m113.26,116.23h-32.17c-.97,0-1.75-.78-1.75-1.75s.78-1.75,1.75-1.75h32.17c.97,0,1.75.78,1.75,1.75s-.78,1.75-1.75,1.75Z"/><path class="cls-2" d="m129.8,141.65h-48.71c-.97,0-1.75-.78-1.75-1.75s.78-1.75,1.75-1.75h48.71c.97,0,1.75.78,1.75,1.75s-.78,1.75-1.75,1.75Z"/><path class="cls-2" d="m161.19,89.96h-31.38c-.97,0-1.75-.78-1.75-1.75s.78-1.75,1.75-1.75h31.38c1.79,0,3.25-1.62,3.25-3.62v-6.92c0-2-1.46-3.62-3.25-3.62h-31.38c-.97,0-1.75-.78-1.75-1.75s.78-1.75,1.75-1.75h31.38c3.72,0,6.75,3.19,6.75,7.12v6.92c0,3.93-3.03,7.12-6.75,7.12Z"/><path class="cls-2" d="m81.09,89.96h-20.6l-12.7-7.33c-1.17-.68-1.88-1.89-1.88-3.25s.7-2.57,1.88-3.25l12.7-7.33h20.6c.97,0,1.75.78,1.75,1.75s-.78,1.75-1.75,1.75h-19.66l-11.88,6.86s-.12.07-.12.22.09.2.12.22l11.88,6.86h19.66c.97,0,1.75.78,1.75,1.75s-.78,1.75-1.75,1.75Z"/><path class="cls-2" d="m60.96,82.86c-.97,0-1.75-.78-1.75-1.75v-10.56c0-.97.78-1.75,1.75-1.75s1.75.78,1.75,1.75v10.56c0,.97-.78,1.75-1.75,1.75Z"/><path class="cls-2" d="m148,89.96c-.97,0-1.75-.78-1.75-1.75v-8.34c0-.97.78-1.75,1.75-1.75s1.75.78,1.75,1.75v8.34c0,.97-.78,1.75-1.75,1.75Z"/><circle class="cls-2" cx="118.69" cy="125.23" r="3.73"/><circle class="cls-2" cx="81.09" cy="170.12" r="1.75"/><circle class="cls-2" cx="148" cy="75.19" r="1.75"/><path class="cls-2" d="m129.8,116.23h-8.73c-.97,0-1.75-.78-1.75-1.75s.78-1.75,1.75-1.75h8.73c.97,0,1.75.78,1.75,1.75s-.78,1.75-1.75,1.75Z"/><path class="cls-2" d="m101.99,41.34c-.97,0-1.75-.78-1.75-1.75v-11.97c0-.97.78-1.75,1.75-1.75s1.75.78,1.75,1.75v11.97c0,.97-.78,1.75-1.75,1.75Z"/><path class="cls-2" d="m87.72,45.17c-.6,0-1.19-.31-1.52-.88l-5.99-10.37c-.48-.84-.2-1.91.64-2.39.84-.48,1.91-.2,2.39.64l5.99,10.37c.48.84.2,1.91-.64,2.39-.28.16-.58.23-.87.23Z"/><path class="cls-2" d="m77.27,55.61c-.3,0-.6-.08-.87-.23l-10.37-5.99c-.84-.48-1.12-1.55-.64-2.39.48-.84,1.55-1.12,2.39-.64l10.37,5.99c.84.48,1.12,1.55.64,2.39-.32.56-.91.88-1.52.88Z"/><path class="cls-2" d="m126.71,55.61c-.6,0-1.19-.31-1.52-.88-.48-.84-.2-1.91.64-2.39l10.37-5.99c.84-.48,1.91-.2,2.39.64.48.84.2,1.91-.64,2.39l-10.37,5.99c-.28.16-.58.23-.87.23Z"/><path class="cls-2" d="m116.26,45.17c-.3,0-.6-.08-.87-.23-.84-.48-1.12-1.55-.64-2.39l5.99-10.37c.48-.84,1.55-1.12,2.39-.64.84.48,1.12,1.55.64,2.39l-5.99,10.37c-.32.56-.91.88-1.52.88Z"/><path class="cls-2" d="m44.92,92.44c-2.41,0-4.58-1.27-5.9-3.58-3.06,2.16-6.79,1.75-9.34-1.13-2.55-2.88-2.5-6.62,0-9.4-1.41-1.05-2.35-2.41-2.71-3.98-.4-1.71-.08-3.58.9-5.25.98-1.67,2.46-2.86,4.15-3.34,1.55-.44,3.19-.29,4.8.44,1.21-3.54,4.46-5.4,8.21-4.57,1.9.42,3.48,1.46,4.46,2.92,1.06,1.58,1.37,3.54.9,5.67-.21.94-1.14,1.54-2.09,1.33-.94-.21-1.54-1.14-1.33-2.09.26-1.17.12-2.2-.39-2.97-.48-.72-1.28-1.22-2.31-1.45-2.19-.49-3.8.59-4.31,2.86-.05.22-.09.63,0,1.33.09.77-.33,1.51-1.04,1.82-.71.31-1.54.11-2.04-.48-.46-.54-.78-.79-.97-.9-1.04-.61-2.05-.8-2.94-.55-.83.24-1.56.84-2.09,1.75s-.71,1.83-.51,2.67c.21.9.87,1.7,1.91,2.31.19.11.57.28,1.26.41.76.15,1.33.78,1.41,1.55.07.77-.37,1.5-1.08,1.79-.65.26-.99.5-1.16.65-1.75,1.55-1.9,3.47-.41,5.16,1.49,1.68,3.42,1.76,5.17.21.17-.15.44-.45.78-1.07.38-.68,1.15-1.02,1.91-.86.76.17,1.31.81,1.37,1.58.04.56.13,1,.26,1.3.93,2.14,2.72,2.88,4.78,1.98.89-.39,1.92.02,2.3.91.39.89-.02,1.92-.91,2.3-1.02.45-2.05.66-3.04.66Z"/></svg>