<?xml version="1.0" encoding="UTF-8"?><svg id="_圖層_1" xmlns="http://www.w3.org/2000/svg" viewBox="0 0 260 260"><defs><style>.cls-1{fill:none;}.cls-1,.cls-2,.cls-3,.cls-4{stroke-width:0px;}.cls-5{opacity:.5;}.cls-2{fill:#494949;}.cls-3{fill:#4d4d4d;}.cls-4{fill:#e17b5e;}</style></defs><circle class="cls-1" cx="130" cy="130" r="130"/><g class="cls-5"><circle class="cls-4" cx="186.67" cy="82.87" r="15.13"/></g><g class="cls-5"><path class="cls-4" d="m128.56,80.8c-20.66,1.51-38.09,16.71-42.49,36.95-.86,3.96-1.19,7.85-1.06,11.62.17,4.95,4,8.97,8.9,9.71,15.62,2.34,25.2,9.56,25.2,19.72,0,2-.37,3.89-1.09,5.65-1.65,4.04.54,8.66,4.81,9.51s9.1,1.15,13.9.69c22.7-2.19,40.78-20.79,42.35-43.53,1.98-28.71-21.78-52.41-50.52-50.32Z"/></g><path class="cls-3" d="m132.09,190.47c-4.99,0-9.92-.75-14.65-2.21-1.15-.36-1.79-1.57-1.43-2.72.36-1.15,1.58-1.79,2.72-1.43,4.31,1.34,8.81,2.02,13.36,2.02,24.77,0,44.93-20.16,44.93-44.93s-20.16-44.93-44.93-44.93c-22.68,0-41.85,16.95-44.6,39.42-.22,1.81-.33,3.67-.33,5.51,0,1.2-.97,2.17-2.17,2.17s-2.17-.97-2.17-2.17c0-2.02.12-4.05.37-6.04,3.01-24.65,24.04-43.24,48.91-43.24,27.17,0,49.28,22.1,49.28,49.28s-22.1,49.28-49.28,49.28Z"/><path class="cls-2" d="m117.95,160.63c-.7-.48-1.07-1.06-1.12-1.74s.18-1.37.66-2.07l1.44-2.04c1.01-1.4,2.28-1.6,3.81-.59,1.01.7,2.31,1.42,3.91,2.16,1.6.75,3.42,1.12,5.48,1.12.88,0,1.73-.12,2.56-.36.83-.24,1.56-.59,2.2-1.05s1.14-1.04,1.51-1.74c.37-.7.56-1.53.56-2.49,0-1.31-.54-2.41-1.64-3.31-1.1-.9-2.46-1.74-4.1-2.53-1.64-.79-3.42-1.59-5.35-2.4-1.93-.81-3.71-1.78-5.35-2.92-1.64-1.13-3.01-2.5-4.1-4.1-1.1-1.59-1.64-3.57-1.64-5.94,0-1.7.3-3.29.92-4.75.61-1.47,1.45-2.78,2.53-3.94,1.07-1.16,2.36-2.12,3.87-2.88,1.51-.77,3.18-1.3,5.02-1.61v-3.48c0-1.79.88-2.69,2.63-2.69h.46c1.7,0,2.56.77,2.56,2.3v3.74c2.28.18,4.21.61,5.81,1.31,1.6.7,2.84,1.36,3.71,1.97.74.44,1.16.98,1.24,1.61.09.64-.06,1.32-.46,2.07l-1.12,2.23c-.83,1.49-2.08,1.77-3.74.85-.88-.52-1.99-1.06-3.35-1.61-1.36-.54-2.87-.82-4.53-.82-1.97,0-3.64.52-5.02,1.54-1.38,1.03-2.07,2.38-2.07,4.04,0,1.31.54,2.39,1.64,3.25,1.1.85,2.46,1.66,4.1,2.43,1.65.76,3.42,1.54,5.35,2.33,1.92.79,3.71,1.74,5.35,2.85,1.64,1.12,3.01,2.49,4.1,4.14,1.1,1.64,1.64,3.69,1.64,6.14,0,1.66-.28,3.25-.85,4.75-.57,1.51-1.4,2.87-2.49,4.07-1.1,1.21-2.42,2.21-3.97,3.02-1.55.81-3.33,1.34-5.35,1.61v3.28c0,1.84-.85,2.76-2.56,2.76h-.46c-1.75,0-2.63-.76-2.63-2.3v-3.74c-1.36-.13-2.6-.37-3.74-.73-1.14-.35-2.18-.73-3.12-1.15-.94-.41-1.77-.85-2.49-1.31s-1.32-.89-1.81-1.28Z"/><path class="cls-3" d="m146.12,71.18c-.37,0-.74-.09-1.08-.29-1.04-.6-1.39-1.93-.8-2.97l11.36-19.67c.6-1.04,1.93-1.4,2.97-.8,1.04.6,1.39,1.93.8,2.97l-11.36,19.67c-.4.7-1.13,1.09-1.88,1.09Z"/><path class="cls-3" d="m132.09,67.42c-1.2,0-2.17-.97-2.17-2.17v-22.72c0-1.2.97-2.17,2.17-2.17s2.17.97,2.17,2.17v22.72c0,1.2-.97,2.17-2.17,2.17Z"/><path class="cls-3" d="m118.07,71.18c-.75,0-1.48-.39-1.88-1.09l-11.36-19.67c-.6-1.04-.24-2.37.8-2.97,1.04-.6,2.37-.24,2.97.8l11.36,19.67c.6,1.04.24,2.37-.8,2.97-.34.2-.72.29-1.08.29Z"/><circle class="cls-3" cx="132.09" cy="77.55" r="2.17"/><path class="cls-3" d="m82.32,170.64c-18.46,0-28.11-5.96-28.11-11.84s9.66-11.84,28.11-11.84,28.11,5.96,28.11,11.84-9.66,11.84-28.11,11.84Zm0-19.34c-14.51,0-23.77,4.44-23.77,7.5s9.26,7.5,23.77,7.5,23.77-4.44,23.77-7.5-9.26-7.5-23.77-7.5Z"/><path class="cls-3" d="m82.32,182.97c-18.46,0-28.11-5.96-28.11-11.84,0-1.2.97-2.17,2.17-2.17s2.17.97,2.17,2.17c0,3.06,9.26,7.5,23.77,7.5s23.77-4.44,23.77-7.5c0-1.2.97-2.17,2.17-2.17s2.17.97,2.17,2.17c0,5.88-9.66,11.84-28.11,11.84Z"/><path class="cls-3" d="m82.32,195.31c-18.46,0-28.11-5.96-28.11-11.84,0-1.2.97-2.17,2.17-2.17s2.17.97,2.17,2.17c0,3.06,9.26,7.5,23.77,7.5s23.77-4.44,23.77-7.5c0-1.2.97-2.17,2.17-2.17s2.17.97,2.17,2.17c0,5.88-9.66,11.84-28.11,11.84Z"/><path class="cls-3" d="m82.32,207.64c-18.46,0-28.11-5.96-28.11-11.84,0-1.2.97-2.17,2.17-2.17s2.17.97,2.17,2.17c0,3.06,9.26,7.5,23.77,7.5s23.77-4.44,23.77-7.5c0-1.2.97-2.17,2.17-2.17s2.17.97,2.17,2.17c0,5.88-9.66,11.84-28.11,11.84Z"/></svg>