<?xml version="1.0" encoding="UTF-8"?><svg id="_圖層_1" xmlns="http://www.w3.org/2000/svg" viewBox="0 0 200 200"><defs><style>.cls-1{fill:none;}.cls-1,.cls-2,.cls-3{stroke-width:0px;}.cls-4{opacity:.5;}.cls-2{fill:#4d4d4d;}.cls-3{fill:#e17b5e;}</style></defs><circle class="cls-1" cx="100" cy="100" r="100"/><g class="cls-4"><circle class="cls-3" cx="101.47" cy="67.52" r="6.43"/></g><g class="cls-4"><circle class="cls-3" cx="118.41" cy="58.1" r="10.66"/></g><g class="cls-4"><path class="cls-3" d="m145.93,117.61c-3.85-3.76-6.82-8.54-8.46-14.07-1.63-5.53-1.72-11.15-.53-16.41.29-1.28-.66-2.51-1.96-2.48-3.39.08-6.84.54-10.24,1.55-17.74,5.23-28.63,23.3-31.68,28.98-.52.96-.16,2.16.79,2.68.1.06.22.12.32.18,5.15-7.73,14.64-19.01,28.05-22.96,3.41-1,6.85-1.47,10.24-1.55,1.31-.03,2.25,1.2,1.96,2.48-1.19,5.25-1.1,10.87.53,16.41,1.21,4.1,3.16,7.79,5.66,10.95,1.74-.77,3.41-1.64,5-2.61,1.11-.68,1.24-2.23.31-3.15Z"/></g><circle class="cls-2" cx="84.21" cy="94.38" r="1.75"/><path class="cls-2" d="m71.55,150.14c-11.35,0-20.59-9.24-20.59-20.59v-58.28c0-11.35,9.24-20.59,20.59-20.59s20.59,9.24,20.59,20.59v47.67c0,.97-.78,1.75-1.75,1.75s-1.75-.78-1.75-1.75v-47.67c0-9.42-7.67-17.09-17.09-17.09s-17.09,7.67-17.09,17.09v58.28c0,9.42,7.67,17.09,17.09,17.09s17.09-7.67,17.09-17.09v-2.28c0-.97.78-1.75,1.75-1.75s1.75.78,1.75,1.75v2.28c0,11.35-9.24,20.59-20.59,20.59Z"/><path class="cls-2" d="m59,70.51c-.11,0-.23-.01-.34-.03-.95-.19-1.56-1.11-1.37-2.06,1.06-5.3,4.94-9.56,10.14-11.1.93-.27,1.9.25,2.18,1.18.27.93-.25,1.9-1.18,2.17-3.94,1.17-6.9,4.4-7.7,8.43-.17.83-.9,1.41-1.71,1.41Z"/><path class="cls-2" d="m77.56,96.13h-24.85c-.97,0-1.75-.78-1.75-1.75s.78-1.75,1.75-1.75h24.85c.97,0,1.75.78,1.75,1.75s-.78,1.75-1.75,1.75Z"/><path class="cls-2" d="m90.39,107.18h-37.68c-.97,0-1.75-.78-1.75-1.75s.78-1.75,1.75-1.75h37.68c.97,0,1.75.78,1.75,1.75s-.78,1.75-1.75,1.75Z"/><path class="cls-2" d="m77.09,142.13c-.3,0-.6-.04-.9-.11-1.32-.32-2.33-1.28-2.72-2.58l-6.54-22.17c-.38-1.3-.05-2.66.88-3.65.93-.98,2.28-1.38,3.6-1.06l22.47,5.42c1.32.32,2.33,1.28,2.72,2.58.38,1.3.06,2.66-.88,3.65l-15.93,16.75c-.72.76-1.69,1.17-2.7,1.17Zm-6.56-26.17s-.11.01-.17.08c-.1.1-.07.21-.06.24l6.54,22.17s.04.14.18.17c.14.04.22-.04.24-.07l15.93-16.75s.1-.1.06-.24-.15-.16-.18-.17l-22.47-5.42s-.04,0-.07,0Z"/><path class="cls-2" d="m127.35,132.57c-14.38,0-27.5-6.5-31.89-8.93-1.78-.99-2.45-3.25-1.49-5.04,3.02-5.62,14.29-24.39,32.72-29.83,3.34-.99,6.94-1.53,10.7-1.62,1.16-.01,2.22.47,2.95,1.36.75.91,1.02,2.1.76,3.26-1.16,5.11-.99,10.47.5,15.52,1.49,5.05,4.26,9.65,8,13.31.85.83,1.26,1.98,1.13,3.15-.13,1.14-.76,2.14-1.74,2.74-3.2,1.96-6.52,3.46-9.86,4.45-3.92,1.16-7.9,1.63-11.78,1.63Zm10.13-41.92h0c-3.45.08-6.74.58-9.79,1.48-17.13,5.05-27.77,22.8-30.63,28.12-.06.12-.02.26.1.33,5.28,2.92,23.86,12.06,40.99,7,3.05-.9,6.09-2.27,9.02-4.07.02-.01.08-.05.09-.15,0-.05,0-.16-.1-.25-4.17-4.08-7.25-9.2-8.91-14.83-1.66-5.62-1.85-11.6-.56-17.29h0c.03-.14-.03-.23-.06-.26-.06-.07-.12-.08-.15-.08Z"/><path class="cls-2" d="m154.3,123.07c-.54,0-1.06-.24-1.41-.71-.58-.78-.41-1.87.36-2.45,9.82-7.29,16.02-17.65,18.23-21.76.07-.12.02-.27-.1-.33-4.09-2.26-14.91-7.59-27.12-8.39-.96-.06-1.7-.9-1.63-1.86s.9-1.7,1.86-1.63c12.91.84,24.29,6.45,28.58,8.82,1.79.99,2.46,3.26,1.49,5.06-2.32,4.32-8.84,15.21-19.23,22.92-.31.23-.68.34-1.04.34Z"/><path class="cls-2" d="m134.21,120.58c-.51,0-1.01-.22-1.35-.64-2.11-2.57-3.66-5.5-4.6-8.71-.95-3.21-1.24-6.51-.86-9.81.11-.96.98-1.63,1.94-1.54.96.11,1.65.98,1.54,1.94-.32,2.83-.07,5.67.74,8.43.81,2.76,2.14,5.28,3.95,7.48.61.75.5,1.85-.24,2.46-.33.27-.72.4-1.11.4Z"/><path class="cls-2" d="m128.26,122.34c-.51,0-1.01-.22-1.35-.64-2.11-2.57-3.66-5.5-4.6-8.71-.95-3.21-1.24-6.51-.86-9.81.11-.96.98-1.63,1.94-1.54.96.11,1.65.98,1.54,1.94-.32,2.83-.07,5.67.74,8.43.81,2.76,2.14,5.28,3.95,7.48.61.75.5,1.85-.24,2.46-.33.27-.72.4-1.11.4Z"/><path class="cls-2" d="m122.3,124.09c-.51,0-1.01-.22-1.35-.64-2.11-2.57-3.66-5.5-4.6-8.71-.95-3.21-1.24-6.51-.86-9.81.11-.96.97-1.65,1.94-1.54.96.11,1.65.98,1.54,1.94-.32,2.83-.07,5.67.74,8.43.81,2.76,2.14,5.28,3.95,7.48.61.75.5,1.85-.24,2.46-.33.27-.72.4-1.11.4Z"/><path class="cls-2" d="m100.21,113.59c-.76,0-1.45-.49-1.68-1.25l-3.1-10.51c-.61-2.07-.21-4.25,1.09-5.98,1.29-1.71,3.25-2.68,5.39-2.68h.06l15.23.14c.97,0,1.74.8,1.73,1.77,0,.97-.82,1.71-1.77,1.73l-15.23-.14c-1.06-.01-2,.46-2.62,1.29-.63.83-.82,1.88-.52,2.88l3.1,10.51c.27.93-.26,1.9-1.18,2.17-.17.05-.33.07-.5.07Z"/><path class="cls-2" d="m112.39,142.18c-.78,0-1.57-.14-2.33-.42-2.03-.74-3.54-2.36-4.16-4.43l-3.1-10.51c-.27-.93.26-1.9,1.18-2.17.93-.27,1.9.26,2.17,1.18l3.1,10.51c.29,1,1.02,1.78,2,2.13.98.36,2.04.23,2.9-.34l12.71-8.38c.81-.53,1.89-.31,2.42.5s.31,1.89-.5,2.42l-12.71,8.38c-1.12.74-2.4,1.12-3.7,1.12Z"/><circle class="cls-2" cx="154.44" cy="100.73" r="3.77"/><path class="cls-2" d="m107.04,79.83c-4.04,0-7.32-3.29-7.32-7.32s3.29-7.32,7.32-7.32,7.32,3.29,7.32,7.32-3.29,7.32-7.32,7.32Zm0-11.15c-2.11,0-3.82,1.71-3.82,3.82s1.71,3.82,3.82,3.82,3.82-1.71,3.82-3.82-1.71-3.82-3.82-3.82Z"/><path class="cls-2" d="m128.26,72.04c-8.04,0-14.58-6.54-14.58-14.58s6.54-14.58,14.58-14.58,14.58,6.54,14.58,14.58-6.54,14.58-14.58,14.58Zm0-25.66c-6.11,0-11.08,4.97-11.08,11.08s4.97,11.08,11.08,11.08,11.08-4.97,11.08-11.08-4.97-11.08-11.08-11.08Z"/></svg>