<?xml version="1.0" encoding="UTF-8"?><svg id="_圖層_1" xmlns="http://www.w3.org/2000/svg" viewBox="0 0 260 260"><defs><style>.cls-1{fill:none;}.cls-1,.cls-2,.cls-3{stroke-width:0px;}.cls-4{opacity:.5;}.cls-2{fill:#4d4d4d;}.cls-3{fill:#e17b5e;}</style></defs><circle class="cls-1" cx="130" cy="130" r="130"/><polyline class="cls-1" points="180.87 114.17 180.87 82.44 68.1 82.44 68.1 167.05 180.87 167.05 180.87 114.17"/><g class="cls-4"><path class="cls-3" d="m187.2,66.84H61.76c-4.27,0-7.76,3.49-7.76,7.76v100.29c0,4.27,3.49,7.76,7.76,7.76h12.32c4.31,0,7.8-3.49,7.8-7.8h0c0-4.31-3.49-7.8-7.8-7.8h-5.47c-.29,0-.52-.23-.52-.52v-83.58c0-.29.23-.52.52-.52h111.74c.29,0,.52.23.52.52v31.08c0,.09.02.18.07.26h0c3.85,6.66,14.03,3.93,14.03-3.76v-35.93c0-4.27-3.49-7.76-7.76-7.76Z"/></g><g class="cls-4"><path class="cls-3" d="m198.51,154.25l-21.89-37.91c-3-5.2-10.51-5.2-13.51,0l-16.85,29.19c-3,5.2-10.51,5.2-13.51,0l-8.76-15.18c-3-5.2-10.51-5.2-13.51,0l-15.41,26.69c-3.37,5.84.84,13.15,7.59,13.15h87.03c8.18,0,13.16-9.01,8.81-15.94h0Z"/></g><circle class="cls-2" cx="63.04" cy="163.35" r="2"/><path class="cls-2" d="m196.2,193.16h-125.37c-5.4,0-9.8-4.4-9.8-9.8v-11.01c0-1.1.9-2,2-2s2,.9,2,2v11.01c0,3.2,2.6,5.8,5.8,5.8h125.37c3.2,0,5.8-2.6,5.8-5.8v-100.21c0-3.2-2.6-5.8-5.8-5.8h-125.37c-3.2,0-5.8,2.6-5.8,5.8v70.52c0,1.1-.9,2-2,2s-2-.9-2-2v-70.52c0-5.4,4.4-9.8,9.8-9.8h125.37c5.4,0,9.8,4.4,9.8,9.8v100.21c0,5.4-4.4,9.8-9.8,9.8Z"/><path class="cls-2" d="m189.9,177.56h-112.77c-1.1,0-2-.9-2-2v-84.62c0-1.1.9-2,2-2h112.77c1.1,0,2,.9,2,2v84.62c0,1.1-.9,2-2,2Zm-110.77-4h108.77v-80.62h-108.77v80.62Z"/><path class="cls-2" d="m127.83,123.17c-6.27,0-11.38-5.1-11.38-11.38s5.1-11.38,11.38-11.38,11.38,5.1,11.38,11.38-5.1,11.38-11.38,11.38Zm0-18.75c-4.07,0-7.38,3.31-7.38,7.38s3.31,7.38,7.38,7.38,7.38-3.31,7.38-7.38-3.31-7.38-7.38-7.38Z"/><path class="cls-2" d="m80.92,173.35l-3.46-2,23-39.84c1.77-3.07,4.94-4.9,8.49-4.9s6.71,1.83,8.49,4.9l8.76,15.18c1.05,1.82,2.93,2.9,5.02,2.9s3.97-1.08,5.02-2.9l16.85-29.19c1.77-3.07,4.94-4.9,8.49-4.9h0c3.54,0,6.71,1.83,8.49,4.9l21.89,37.91-3.46,2-21.89-37.91c-1.05-1.82-2.93-2.9-5.02-2.9s-3.97,1.08-5.02,2.9l-16.85,29.19c-1.77,3.07-4.94,4.9-8.49,4.9s-6.71-1.83-8.49-4.9l-8.76-15.18c-1.05-1.82-2.93-2.9-5.02-2.9s-3.97,1.08-5.02,2.9l-23,39.84Z"/></svg>