<?xml version="1.0" encoding="UTF-8"?><svg id="_圖層_1" xmlns="http://www.w3.org/2000/svg" viewBox="0 0 200 200"><defs><style>.cls-1{fill:none;}.cls-1,.cls-2,.cls-3{stroke-width:0px;}.cls-4{opacity:.5;}.cls-2{fill:#4d4d4d;}.cls-3{fill:#e17b5e;}</style></defs><circle class="cls-1" cx="100" cy="100" r="100"/><g class="cls-4"><path class="cls-3" d="m38.16,74.89c-1.77,0-3.2-1.43-3.2-3.2v-11.21c0-4.2,3.42-7.61,7.61-7.61h10.08c1.77,0,3.2,1.43,3.2,3.2s-1.43,3.2-3.2,3.2h-10.08c-.66,0-1.21.56-1.21,1.21v11.21c0,1.77-1.43,3.2-3.2,3.2Z"/></g><g class="cls-4"><rect class="cls-3" x="141.31" y="63.88" width="8.2" height="41.55" rx="4.1" ry="4.1"/></g><g class="cls-4"><rect class="cls-3" x="39.33" y="125.4" width="114.24" height="15.53" rx="7.77" ry="7.77"/></g><circle class="cls-2" cx="89.49" cy="129.26" r="1.75"/><circle class="cls-2" cx="149.51" cy="95.23" r="1.75"/><path class="cls-2" d="m153.57,142.69H50.41c-3.72,0-6.75-3.03-6.75-6.75V62.46c0-3.72,3.03-6.75,6.75-6.75h103.16c3.72,0,6.75,3.03,6.75,6.75v73.47c0,3.72-3.03,6.75-6.75,6.75ZM50.41,59.21c-1.79,0-3.25,1.46-3.25,3.25v73.47c0,1.79,1.46,3.25,3.25,3.25h103.16c1.79,0,3.25-1.46,3.25-3.25V62.46c0-1.79-1.46-3.25-3.25-3.25H50.41Z"/><path class="cls-2" d="m158.57,131.01h-61.21c-.97,0-1.75-.78-1.75-1.75s.78-1.75,1.75-1.75h61.21c.97,0,1.75.78,1.75,1.75s-.78,1.75-1.75,1.75Z"/><path class="cls-2" d="m149.51,89.45c-.97,0-1.75-.78-1.75-1.75v-20.95c0-.97.78-1.75,1.75-1.75s1.75.78,1.75,1.75v20.95c0,.97-.78,1.75-1.75,1.75Z"/><path class="cls-2" d="m116.4,156.29h-28.82c-1.22,0-2.37-.6-3.08-1.6-.7-1-.87-2.29-.44-3.44l4.01-10.92c.33-.91,1.34-1.37,2.25-1.04.91.33,1.37,1.34,1.04,2.25l-4.01,10.92c-.03.08-.02.16.03.23.05.07.12.11.2.11h28.82c.09,0,.16-.04.2-.11.05-.07.06-.15.03-.23l-4.01-10.92c-.33-.91.13-1.91,1.04-2.25.91-.33,1.91.13,2.25,1.04l4.01,10.92c.42,1.15.26,2.44-.44,3.44-.7,1-1.85,1.6-3.08,1.6Z"/><path class="cls-2" d="m83.75,131.01h-38.35c-.97,0-1.75-.78-1.75-1.75s.78-1.75,1.75-1.75h38.35c.97,0,1.75.78,1.75,1.75s-.78,1.75-1.75,1.75Z"/></svg>