<?xml version="1.0" encoding="UTF-8"?><svg id="_圖層_1" xmlns="http://www.w3.org/2000/svg" viewBox="0 0 260 260"><defs><style>.cls-1{fill:none;}.cls-1,.cls-2,.cls-3{stroke-width:0px;}.cls-4{opacity:.5;}.cls-2{fill:#4d4d4d;}.cls-3{fill:#e17b5e;}</style></defs><circle class="cls-1" cx="130" cy="130" r="130"/><g class="cls-4"><path class="cls-3" d="m79.09,120.62c-4.07,0-7.36-3.3-7.36-7.36,0-30.89,25.13-56.02,56.02-56.02,4.07,0,7.36,3.3,7.36,7.36s-3.3,7.36-7.36,7.36c-22.77,0-41.3,18.53-41.3,41.3,0,4.07-3.3,7.36-7.36,7.36Z"/></g><g class="cls-4"><circle class="cls-3" cx="184.12" cy="130.42" r="10"/></g><g class="cls-4"><rect class="cls-3" x="60" y="145.89" width="58.22" height="45.83" rx="6.13" ry="6.13"/></g><circle class="cls-2" cx="176.41" cy="130" r="2"/><circle class="cls-2" cx="146.49" cy="98.04" r="2"/><path class="cls-2" d="m101.63,154.62c-.61,0-1.22-.28-1.61-.81-4.28-5.82-6.55-12.7-6.55-19.9v-23.82c0-.67.33-1.29.89-1.66.55-.37,1.26-.44,1.87-.19.21.08,21.41,8.41,43.6-6.8.91-.62,2.16-.39,2.78.52.62.91.39,2.16-.52,2.78-19.43,13.32-37.8,10.06-44.62,8.12v21.05c0,6.34,1.99,12.4,5.77,17.53.65.89.46,2.14-.43,2.8-.36.26-.77.39-1.18.39Z"/><path class="cls-2" d="m127.16,167.59c-.82,0-1.66-.03-2.48-.09-1.1-.08-1.93-1.04-1.85-2.14s1.03-1.93,2.14-1.85c4.82.35,9.56-.45,13.94-2.36,1.01-.44,2.19.02,2.63,1.04.44,1.01-.02,2.19-1.04,2.63-4.23,1.84-8.71,2.77-13.34,2.77Z"/><path class="cls-2" d="m157.97,143.3c-.16,0-.31-.02-.47-.06-1.07-.26-1.73-1.34-1.47-2.41.54-2.26.82-4.59.82-6.92v-23.82c0-1.1.9-2,2-2s2,.9,2,2v23.82c0,2.65-.31,5.3-.93,7.86-.22.92-1.04,1.53-1.94,1.53Z"/><path class="cls-2" d="m79.09,143.3c-1.1,0-2-.9-2-2v-28.04c0-27.94,22.73-50.66,50.66-50.66s50.66,22.73,50.66,50.66v6.72c0,1.1-.9,2-2,2s-2-.9-2-2v-6.72c0-25.73-20.93-46.66-46.66-46.66s-46.66,20.93-46.66,46.66v28.04c0,1.1-.9,2-2,2Z"/><path class="cls-2" d="m165.47,186.58c-1.1,0-2-.9-2-2v-4.32c0-.88.57-1.65,1.41-1.91,7.57-2.32,12.66-9.21,12.66-17.13,0-9.88-8.04-17.92-17.92-17.92s-17.92,8.04-17.92,17.92c0,7.92,5.09,14.81,12.65,17.13.84.26,1.41,1.03,1.41,1.91v4.32c0,1.1-.9,2-2,2s-2-.9-2-2v-2.89c-8.47-3.23-14.07-11.28-14.07-20.47,0-12.08,9.83-21.92,21.92-21.92s21.92,9.83,21.92,21.92c0,9.19-5.59,17.24-14.07,20.47v2.89c0,1.1-.9,2-2,2Z"/><path class="cls-2" d="m166.53,198.14h-13.33c-1.1,0-2-.9-2-2s.9-2,2-2h13.33c1.1,0,2,.9,2,2s-.9,2-2,2Z"/><path class="cls-2" d="m166.53,192.46h-13.33c-1.1,0-2-.9-2-2s.9-2,2-2h13.33c1.1,0,2,.9,2,2s-.9,2-2,2Z"/><path class="cls-2" d="m159.87,202.76c-1.1,0-2-.9-2-2v-4.62c0-1.1.9-2,2-2s2,.9,2,2v4.62c0,1.1-.9,2-2,2Z"/><path class="cls-2" d="m203.68,186.13c-.34,0-.68-.09-1-.27l-18.25-10.54c-.96-.55-1.28-1.78-.73-2.73.55-.96,1.77-1.29,2.73-.73l18.25,10.54c.96.55,1.28,1.78.73,2.73-.37.64-1.04,1-1.73,1Z"/><path class="cls-2" d="m210,162.58h-21.08c-1.1,0-2-.9-2-2s.9-2,2-2h21.08c1.1,0,2,.9,2,2s-.9,2-2,2Z"/><path class="cls-2" d="m185.43,149.56c-.69,0-1.36-.36-1.73-1-.55-.96-.22-2.18.73-2.73l18.25-10.54c.96-.55,2.18-.22,2.73.73.55.96.22,2.18-.73,2.73l-18.25,10.54c-.31.18-.66.27-1,.27Z"/><path class="cls-2" d="m122.37,200.45h-53.31c-2.46,0-4.45-2-4.45-4.45v-40.93c0-2.46,2-4.45,4.45-4.45h53.31c2.46,0,4.45,2,4.45,4.45v40.93c0,2.46-2,4.45-4.45,4.45Zm-53.31-45.83c-.25,0-.45.21-.45.45v40.93c0,.25.21.45.45.45h53.31c.25,0,.45-.21.45-.45v-40.93c0-.25-.21-.45-.45-.45h-53.31Z"/><path class="cls-2" d="m109.86,200.45c-1.1,0-2-.9-2-2v-23.73c0-1.1.9-2,2-2s2,.9,2,2v23.73c0,1.1-.9,2-2,2Z"/><path class="cls-2" d="m95.71,199.5c-1.1,0-2-.9-2-2v-14.49c0-1.1.9-2,2-2s2,.9,2,2v14.49c0,1.1-.9,2-2,2Z"/><path class="cls-2" d="m80.21,200.45c-1.1,0-2-.9-2-2v-21.01c0-1.1.9-2,2-2s2,.9,2,2v21.01c0,1.1-.9,2-2,2Z"/><path class="cls-2" d="m95.71,175.53c-.36,0-.72-.1-1.04-.29l-15.02-9.16h-13.05c-1.1,0-2-.9-2-2s.9-2,2-2h13.61c.37,0,.73.1,1.04.29l14.35,8.75,13.07-9.73c.89-.66,2.14-.48,2.8.41.66.89.48,2.14-.41,2.8l-14.15,10.54c-.35.26-.77.4-1.19.4Z"/><path class="cls-2" d="m114.04,158.81l-8.48,1.27c-.36.05-.52.47-.3.76l5.34,6.71c.22.28.67.22.8-.12l3.14-7.98c.13-.34-.15-.69-.51-.63Z"/></svg>