<?xml version="1.0" encoding="UTF-8"?><svg id="_圖層_1" xmlns="http://www.w3.org/2000/svg" viewBox="0 0 260 260"><defs><style>.cls-1{fill:none;}.cls-1,.cls-2,.cls-3{stroke-width:0px;}.cls-4{opacity:.5;}.cls-2{fill:#4d4d4d;}.cls-3{fill:#e17b5e;}</style></defs><circle class="cls-1" cx="130" cy="130" r="130"/><g class="cls-4"><circle class="cls-3" cx="130.95" cy="132.83" r="38.74"/></g><circle class="cls-2" cx="204.09" cy="180.77" r="2.14"/><circle class="cls-2" cx="50.82" cy="91.57" r="2.14"/><path class="cls-2" d="m117.59,141.22c-.95,0-1.9-.2-2.79-.59-2.53-1.13-4.54-3.26-5.5-5.87l-4.89-13.23c-.63-1.71-.23-3.58,1.05-4.88,1.28-1.3,3.14-1.74,4.86-1.13l6.73,2.36c1.12.39,1.7,1.61,1.31,2.73-.39,1.12-1.61,1.7-2.73,1.31l-6.73-2.36c-.06-.02-.23-.08-.39.09-.17.17-.11.34-.08.39l4.89,13.23c.56,1.52,1.74,2.78,3.23,3.44.68.3,1.42.3,2.1,0,.68-.3,1.18-.86,1.41-1.56l7.77-23.71c.72-2.19-.23-4.59-2.24-5.7l-44.59-24.6c-1.04-.57-1.41-1.87-.84-2.91.57-1.03,1.87-1.41,2.91-.84l44.59,24.6c3.82,2.1,5.6,6.64,4.25,10.78l-7.77,23.71c-.6,1.84-1.97,3.35-3.74,4.14-.89.39-1.84.59-2.79.59Z"/><path class="cls-2" d="m104.54,143.64c-2.11,0-4.22-.69-5.99-2.07l-21.02-16.45c-2.37-1.85-4.17-4.32-5.23-7.13l-4.61-12.28c-.51-1.36-1.48-2.52-2.74-3.26l-7.41-4.36c-1.02-.6-1.36-1.91-.76-2.93.6-1.02,1.91-1.36,2.93-.76l7.41,4.36c2.1,1.23,3.72,3.17,4.58,5.45l4.61,12.28c.78,2.08,2.11,3.9,3.86,5.26l21.02,16.45c1.98,1.55,4.74,1.55,6.72-.02l3.28-2.59c.93-.73,2.27-.57,3.01.35.73.93.57,2.27-.35,3.01l-3.28,2.59c-1.77,1.4-3.9,2.1-6.03,2.1Z"/><path class="cls-2" d="m115.75,126.65c-.2,0-.41-.03-.61-.09-1.13-.34-1.78-1.53-1.44-2.66l3.14-10.6c.34-1.13,1.53-1.78,2.66-1.44,1.13.34,1.78,1.53,1.44,2.66l-3.14,10.6c-.28.93-1.13,1.53-2.05,1.53Z"/><path class="cls-2" d="m209.18,156.4c-.35,0-.71-.09-1.03-.27l-54.69-30.28c-2.02-1.12-4.55-.64-6.02,1.13l-15.95,19.19c-.47.57-.68,1.29-.57,2.02.11.73.5,1.37,1.12,1.78,1.35.91,3.04,1.24,4.63.9l13.81-2.9c.06-.01.23-.05.29-.28.06-.23-.09-.35-.13-.38l-5.57-4.44c-.92-.74-1.08-2.08-.34-3.01.74-.92,2.09-1.08,3.01-.34l5.57,4.44c1.43,1.14,2.05,2.95,1.63,4.72-.42,1.77-1.79,3.11-3.58,3.48l-13.81,2.9c-2.71.57-5.59.01-7.89-1.54-1.61-1.08-2.69-2.81-2.97-4.73-.28-1.92.28-3.88,1.52-5.37l15.95-19.19c2.78-3.35,7.57-4.26,11.39-2.14l54.69,30.28c1.03.57,1.41,1.88.84,2.91-.39.71-1.12,1.1-1.88,1.1Z"/><path class="cls-2" d="m197.12,179.63c-.33,0-.67-.08-.98-.24l-7.64-3.96c-1.29-.67-2.79-.87-4.22-.59l-12.85,2.64c-2.94.6-5.99.38-8.82-.63l-25.11-9.05c-4.23-1.53-6.85-5.71-6.37-10.19l.45-4.15c.13-1.17,1.18-2.03,2.36-1.9,1.17.13,2.02,1.18,1.9,2.36l-.45,4.15c-.27,2.5,1.19,4.85,3.56,5.7l25.11,9.05c2.09.75,4.33.91,6.51.47l12.85-2.64c2.39-.49,4.89-.14,7.05.98l7.63,3.96c1.05.54,1.46,1.84.92,2.89-.38.73-1.13,1.16-1.9,1.16Z"/><path class="cls-2" d="m142.79,146.3c-.5,0-1.01-.18-1.41-.53-.89-.78-.97-2.13-.19-3.02l7.3-8.3c.78-.89,2.13-.98,3.02-.19.89.78.97,2.13.19,3.02l-7.3,8.3c-.42.48-1.01.73-1.61.73Z"/><path class="cls-2" d="m158.61,113.63c-.79,0-1.56-.44-1.93-1.2-.52-1.06-.08-2.34.99-2.86l18.86-9.2c1.06-.52,2.34-.08,2.86.99.52,1.06.08,2.34-.99,2.86l-18.86,9.2c-.3.15-.62.22-.94.22Z"/><path class="cls-2" d="m149.8,103.5c-.41,0-.83-.12-1.19-.37-.98-.66-1.24-1.99-.58-2.97l11.74-17.4c.66-.98,1.99-1.24,2.97-.58.98.66,1.24,1.99.58,2.97l-11.74,17.4c-.41.61-1.09.94-1.78.94Z"/><path class="cls-2" d="m137.11,99.13c-.05,0-.1,0-.15,0-1.18-.08-2.07-1.1-1.99-2.29l1.46-20.94c.08-1.18,1.1-2.05,2.29-1.99,1.18.08,2.07,1.1,1.99,2.29l-1.46,20.94c-.08,1.13-1.02,1.99-2.13,1.99Z"/><path class="cls-2" d="m83.11,163.96c-.79,0-1.56-.44-1.93-1.2-.52-1.06-.08-2.34.99-2.86l18.86-9.2c1.07-.52,2.34-.08,2.86.99.52,1.06.08,2.34-.99,2.86l-18.86,9.2c-.3.15-.62.22-.94.22Z"/><path class="cls-2" d="m99.04,182.29c-.41,0-.83-.12-1.19-.37-.98-.66-1.24-1.99-.58-2.97l11.74-17.4c.66-.98,1.99-1.24,2.97-.58.98.66,1.24,1.99.58,2.97l-11.74,17.4c-.41.61-1.09.94-1.78.94Z"/><path class="cls-2" d="m122.01,190.2c-.05,0-.1,0-.15,0-1.18-.08-2.07-1.1-1.99-2.29l1.46-20.94c.08-1.18,1.09-2.07,2.29-1.99,1.18.08,2.07,1.1,1.99,2.29l-1.46,20.94c-.08,1.13-1.02,1.99-2.13,1.99Z"/><path class="cls-2" d="m76.09,78.14c-.35,0-.7-.09-1.03-.27l-7.34-4.05c-1.04-.57-1.41-1.87-.84-2.91.57-1.04,1.87-1.41,2.91-.84l7.34,4.05c1.04.57,1.41,1.87.84,2.91-.39.71-1.12,1.11-1.88,1.11Z"/><g class="cls-4"><circle class="cls-3" cx="122.74" cy="81.45" r="5.59"/></g><g class="cls-4"><circle class="cls-3" cx="138.81" cy="182.96" r="5.59"/></g></svg>