<?xml version="1.0" encoding="UTF-8"?><svg id="_圖層_1" xmlns="http://www.w3.org/2000/svg" viewBox="0 0 74.25 72"><defs><style>.cls-1{fill:gray;stroke-width:0px;}</style></defs><path class="cls-1" d="m62.36,72H8.48c-.67,0-1.22-.54-1.22-1.22s.55-1.22,1.22-1.22h53.88c.67,0,1.22.54,1.22,1.22s-.55,1.22-1.22,1.22Z"/><path class="cls-1" d="m21.95,63.02c-.67,0-1.22-.54-1.22-1.22v-17.06c0-1.8-1.47-3.27-3.27-3.27h-1.8c-1.8,0-3.27,1.47-3.27,3.27v17.06c0,.67-.55,1.22-1.22,1.22s-1.22-.54-1.22-1.22v-17.06c0-3.15,2.56-5.71,5.71-5.71h1.8c3.15,0,5.71,2.56,5.71,5.71v17.06c0,.67-.55,1.22-1.22,1.22Z"/><path class="cls-1" d="m59.67,63.02c-.67,0-1.22-.54-1.22-1.22v-23.35c0-1.81-1.47-3.27-3.27-3.27h-1.8c-1.8,0-3.27,1.47-3.27,3.27v23.35c0,.67-.55,1.22-1.22,1.22s-1.22-.54-1.22-1.22v-23.35c0-3.15,2.56-5.71,5.71-5.71h1.8c3.15,0,5.71,2.56,5.71,5.71v23.35c0,.67-.55,1.22-1.22,1.22Z"/><path class="cls-1" d="m40.81,63.02c-.67,0-1.22-.54-1.22-1.22v-28.74c0-1.81-1.47-3.27-3.27-3.27h-1.8c-1.8,0-3.27,1.47-3.27,3.27v28.74c0,.67-.55,1.22-1.22,1.22s-1.22-.54-1.22-1.22v-28.74c0-3.15,2.56-5.71,5.71-5.71h1.8c3.15,0,5.71,2.56,5.71,5.71v28.74c0,.67-.55,1.22-1.22,1.22Z"/><path class="cls-1" d="m10.28,28c-.33,0-.66-.13-.9-.4-.45-.5-.42-1.27.08-1.72L27.13,9.74c2.16-1.97,5.44-2,7.63-.07l9.08,8.01c1.29,1.14,3.26,1.08,4.48-.14l8.69-8.69c.48-.48,1.25-.48,1.72,0s.48,1.25,0,1.72l-8.69,8.69c-2.13,2.13-5.56,2.23-7.81.24l-9.08-8.01c-1.26-1.11-3.14-1.09-4.37.04L11.1,27.68c-.23.21-.53.32-.82.32Z"/><path class="cls-1" d="m61.94,13.62c-1.02,0-2.01-.4-2.76-1.15l-2.57-2.57c-.48-.48-.48-1.25,0-1.72.47-.48,1.25-.48,1.72,0l2.57,2.57c.4.4.97.54,1.51.36.54-.18.91-.63,1-1.19l.83-5.79c.07-.46-.09-.92-.42-1.25-.33-.33-.79-.49-1.25-.42l-5.79.83c-.66.09-1.28-.37-1.38-1.03-.1-.67.37-1.28,1.03-1.38L62.22.04c1.23-.18,2.44.23,3.32,1.11.88.88,1.28,2.09,1.11,3.32l-.83,5.79c-.21,1.48-1.22,2.68-2.64,3.16-.41.14-.83.2-1.24.2Z"/></svg>