<?xml version="1.0" encoding="UTF-8"?><svg id="_圖層_1" xmlns="http://www.w3.org/2000/svg" viewBox="0 0 74.25 72"><defs><style>.cls-1{fill:gray;stroke-width:0px;}</style></defs><path class="cls-1" d="m41.52,72h-4.21c-.69,0-1.26-.56-1.26-1.26s.56-1.26,1.26-1.26h4.21c.69,0,1.26.56,1.26,1.26s-.56,1.26-1.26,1.26Z"/><path class="cls-1" d="m32.93,72H7.56c-4.25,0-7.71-3.46-7.71-7.71V14.03C-.15,9.78,3.31,6.32,7.56,6.32h20.5c.69,0,1.26.56,1.26,1.26s-.56,1.26-1.26,1.26H7.56c-2.87,0-5.2,2.33-5.2,5.2v50.26c0,2.87,2.33,5.2,5.2,5.2h25.37c.69,0,1.26.56,1.26,1.26s-.56,1.26-1.26,1.26Z"/><path class="cls-1" d="m46.12,72c-.69,0-1.26-.56-1.26-1.26s.56-1.26,1.26-1.26c14.04,0,25.47-11.43,25.47-25.47V14.03c0-2.87-2.33-5.2-5.2-5.2h-20.5c-.69,0-1.26-.56-1.26-1.26s.56-1.26,1.26-1.26h20.5c4.25,0,7.71,3.46,7.71,7.71v29.99c0,15.43-12.55,27.98-27.98,27.98Z"/><path class="cls-1" d="m25.95,47.78c-7.86,0-14.25-6.39-14.25-14.25s6.39-14.25,14.25-14.25,14.25,6.39,14.25,14.25-6.39,14.25-14.25,14.25Zm0-25.99c-6.47,0-11.74,5.27-11.74,11.74s5.26,11.74,11.74,11.74,11.74-5.27,11.74-11.74-5.27-11.74-11.74-11.74Z"/><path class="cls-1" d="m40.69,59.54c-.47,0-.93-.27-1.14-.73-1.62-3.5-5.15-5.77-8.97-5.77h-9.26c-3.83,0-7.35,2.26-8.97,5.77-.29.63-1.04.9-1.67.61-.63-.29-.9-1.04-.61-1.67,2.03-4.39,6.45-7.22,11.25-7.22h9.26c4.8,0,9.22,2.84,11.25,7.22.29.63.02,1.38-.61,1.67-.17.08-.35.12-.53.12Z"/><path class="cls-1" d="m64.46,29.83h-16.79c-.69,0-1.26-.56-1.26-1.26s.56-1.26,1.26-1.26h16.79c.69,0,1.26.56,1.26,1.26s-.56,1.26-1.26,1.26Z"/><path class="cls-1" d="m64.46,37.2h-16.79c-.69,0-1.26-.56-1.26-1.26s.56-1.26,1.26-1.26h16.79c.69,0,1.26.56,1.26,1.26s-.56,1.26-1.26,1.26Z"/><path class="cls-1" d="m64.46,44.57h-16.79c-.69,0-1.26-.56-1.26-1.26s.56-1.26,1.26-1.26h16.79c.69,0,1.26.56,1.26,1.26s-.56,1.26-1.26,1.26Z"/><path class="cls-1" d="m37.74,14.09h-1.65c-2.56,0-4.64-2.08-4.64-4.64v-4.81c0-2.56,2.08-4.64,4.64-4.64h1.65c2.56,0,4.64,2.08,4.64,4.64v4.81c0,2.56-2.08,4.64-4.64,4.64Zm-1.65-11.58c-1.18,0-2.13.96-2.13,2.13v4.81c0,1.18.96,2.13,2.13,2.13h1.65c1.18,0,2.13-.96,2.13-2.13v-4.81c0-1.18-.96-2.13-2.13-2.13h-1.65Z"/><circle class="cls-1" cx="9.75" cy="61.72" r="1.26"/><circle class="cls-1" cx="41.95" cy="61.72" r="1.26"/></svg>