<?xml version="1.0" encoding="UTF-8"?><svg id="_圖層_1" xmlns="http://www.w3.org/2000/svg" viewBox="0 0 74.25 72"><defs><style>.cls-1{fill:gray;stroke-width:0px;}</style></defs><path class="cls-1" d="m37.12,45.03h0c-3.05,0-5.64-1.86-6.62-4.74h-9.63c-4.12,0-7.48-3.35-7.48-7.48V7.48c0-4.12,3.35-7.48,7.48-7.48h32.49c4.12,0,7.48,3.35,7.48,7.48v14.35c0,9.77-7.44,17.69-17.08,18.39h0c-.96,2.93-3.57,4.81-6.64,4.81ZM20.88,2.43c-2.78,0-5.04,2.26-5.04,5.04v25.33c0,2.78,2.26,5.04,5.04,5.04h11.39l.53,1.61c.76,2.31,2.73,3.13,4.33,3.13s3.56-.82,4.32-3.13l.53-1.62.85-.02c8.74-.24,15.58-7.27,15.58-16V7.48c0-2.78-2.26-5.04-5.04-5.04H20.88Z"/><path class="cls-1" d="m37.12,58.7c-2.93,0-5.31-2.38-5.31-5.31s2.38-5.31,5.31-5.31,5.31,2.38,5.31,5.31-2.38,5.31-5.31,5.31Zm0-8.18c-1.59,0-2.87,1.29-2.87,2.87s1.29,2.88,2.87,2.88,2.87-1.29,2.87-2.88-1.29-2.87-2.87-2.87Z"/><path class="cls-1" d="m37.12,72c-2.93,0-5.31-2.38-5.31-5.31s2.38-5.31,5.31-5.31,5.31,2.38,5.31,5.31-2.38,5.31-5.31,5.31Zm0-8.18c-1.59,0-2.87,1.29-2.87,2.88s1.29,2.87,2.87,2.87,2.87-1.29,2.87-2.87-1.29-2.88-2.87-2.88Z"/><circle class="cls-1" cx="28.21" cy="19.56" r="2.59"/><circle class="cls-1" cx="37.12" cy="19.56" r="2.59"/><circle class="cls-1" cx="46.04" cy="19.56" r="2.59"/></svg>