<?xml version="1.0" encoding="UTF-8"?><svg id="_圖層_1" xmlns="http://www.w3.org/2000/svg" viewBox="0 0 74.25 72"><defs><style>.cls-1{fill:gray;stroke-width:0px;}</style></defs><path class="cls-1" d="m62.18,69.11c-.34,0-.69-.07-1.02-.23l-7.26-3.4h-9.51c-4.46,0-8.48-2.67-10.23-6.79-.27-.63.03-1.35.65-1.62.63-.27,1.35.03,1.62.65,1.36,3.21,4.49,5.29,7.96,5.29h9.79c.18,0,.36.04.52.12l7.37,3.45-.37-2.17c-.06-.34.03-.69.24-.96s.52-.45.87-.48c4.39-.41,7.84-4.18,7.84-8.6v-11.21c0-3.94-2.67-7.37-6.49-8.36-.66-.17-1.06-.85-.89-1.51.17-.66.85-1.06,1.51-.89,4.91,1.27,8.34,5.69,8.34,10.76v11.21c0,5.23-3.76,9.76-8.77,10.85l.18,1.09c.15.88-.2,1.76-.91,2.3-.43.32-.93.49-1.45.49Zm-.08-2.38h0,0Z"/><path class="cls-1" d="m2.36,39.44c-.68,0-1.24-.55-1.24-1.24v-6.05c0-.68.55-1.24,1.24-1.24s1.24.55,1.24,1.24v6.05c0,.68-.55,1.24-1.24,1.24Z"/><circle class="cls-1" cx="2.36" cy="27.75" r="1.24"/><path class="cls-1" d="m33.43,40.77c-.68,0-1.24-.55-1.24-1.24v-3.68c0-1.32.97-2.42,2.31-2.62,3.75-.54,6.47-3.82,6.33-7.62-.15-3.82-3.38-7.02-7.21-7.11-3.51-.08-6.53,2.21-7.38,5.6-.17.66-.84,1.07-1.5.9-.66-.17-1.06-.84-.9-1.5,1.13-4.52,5.18-7.61,9.84-7.47,5.11.13,9.42,4.39,9.61,9.49.19,5.07-3.44,9.43-8.44,10.16-.1.01-.19.08-.19.17v3.68c0,.68-.55,1.24-1.24,1.24Z"/><circle class="cls-1" cx="33.43" cy="47.33" r="2.14"/><path class="cls-1" d="m19.23,64.4c-.71,0-1.4-.23-2-.67-.96-.71-1.45-1.85-1.33-3.03l.14-1.38h-7.32c-4.19,0-7.59-3.41-7.59-7.59v-8.27c0-.68.55-1.24,1.24-1.24s1.24.55,1.24,1.24v8.27c0,2.82,2.3,5.12,5.12,5.12h8.69c.35,0,.68.15.92.41.23.26.35.61.31.95l-.28,2.74c-.05.45.23.71.35.8.12.09.45.28.87.11l11.88-4.91c.15-.06.31-.09.47-.09h8.23c12.74,0,23.1-10.36,23.1-23.1V13.17c0-2.82-2.3-5.12-5.12-5.12H8.72c-2.82,0-5.12,2.3-5.12,5.12v9.54c0,.68-.55,1.24-1.24,1.24s-1.24-.55-1.24-1.24v-9.54c0-4.19,3.41-7.59,7.59-7.59h49.42c4.19,0,7.59,3.41,7.59,7.59v20.58c0,14.1-11.47,25.57-25.57,25.57h-7.99l-11.65,4.82c-.42.17-.86.26-1.29.26Z"/></svg>