<?xml version="1.0" encoding="UTF-8"?><svg id="_圖層_1" xmlns="http://www.w3.org/2000/svg" viewBox="0 0 74.25 72"><defs><style>.cls-1{fill:gray;stroke-width:0px;}</style></defs><path class="cls-1" d="m61.85,67.54c-.26,0-.52-.08-.73-.25l-11.65-9.07H10.75c-4.75,0-8.62-3.87-8.62-8.62V13.08c0-4.75,3.87-8.62,8.62-8.62h43.35c9.94,0,18.02,8.08,18.02,18.02v25.47c0,5.27-3.98,9.62-9.09,10.21v8.2c0,.45-.26.86-.66,1.06-.17.08-.34.12-.52.12ZM10.75,6.82c-3.45,0-6.26,2.81-6.26,6.26v36.52c0,3.45,2.81,6.26,6.26,6.26h39.13c.26,0,.52.09.73.25l10.06,7.83v-6.9c0-.65.53-1.18,1.18-1.18,4.36,0,7.91-3.55,7.91-7.91v-25.47c0-8.63-7.02-15.66-15.66-15.66H10.75Z"/><path class="cls-1" d="m57.41,24.41H16.83c-.65,0-1.18-.53-1.18-1.18s.53-1.18,1.18-1.18h40.58c.65,0,1.18.53,1.18,1.18s-.53,1.18-1.18,1.18Z"/><path class="cls-1" d="m57.41,33.88H16.83c-.65,0-1.18-.53-1.18-1.18s.53-1.18,1.18-1.18h40.58c.65,0,1.18.53,1.18,1.18s-.53,1.18-1.18,1.18Z"/><path class="cls-1" d="m57.41,43.35H16.83c-.65,0-1.18-.53-1.18-1.18s.53-1.18,1.18-1.18h40.58c.65,0,1.18.53,1.18,1.18s-.53,1.18-1.18,1.18Z"/></svg>