<?xml version="1.0" encoding="UTF-8"?><svg id="_圖層_1" xmlns="http://www.w3.org/2000/svg" viewBox="0 0 1080 177.72"><defs><style>.cls-1{fill:none;}.cls-1,.cls-2{stroke-width:0px;}.cls-2{fill:#494949;}</style></defs><path class="cls-2" d="m1080.03,151.22h-24.81c-47.88,0-92.88-22.86-121.12-61.52l-20.43-27.96C885.42,23.07,840.42.22,792.54.22H-1v177.64h1081.03v-26.64Z"/><path class="cls-1" d="m344.26,223.98c-.89.94-2.16,1.5-3.77,1.5h-5.54l-1.77-3.93h6.09c.61,0,1.27-.67,1.27-1.44v-27.81c0-1.05-.66-1.61-1.44-1.61h-5.98v5.32c0,10.97-2.27,23.1-6.59,29.47h-5.98c5.82-8.42,7.64-18.67,7.64-29.47v-5.32h-7.26v-3.99h7.26v-9.53h4.93v9.53h6.98c1.83,0,3.27.55,4.21,1.61.78.89,1.16,2.16,1.16,3.77v28.19c0,1.55-.44,2.83-1.22,3.71Zm22.99-1.11c-.78.78-1.83,1.27-2.94,1.27h-11.08c-1,0-2.05-.55-2.82-1.44-.66-.83-1.16-1.88-1.16-2.99v-34.73c0-1.27.44-2.38,1.22-3.21.83-.89,1.99-1.38,3.21-1.38h10.3c1.16,0,2.38.5,3.27,1.5.72.78,1.16,1.94,1.16,3.32v34.9c0,1.05-.44,2.05-1.16,2.77Zm-3.77-37.39c0-.5-.5-1.16-1.05-1.16h-7.15c-.55,0-1.05.55-1.05,1.16v33.57c0,.78.55,1.27,1.22,1.27h6.76c.72,0,1.27-.55,1.27-1.27v-33.57Z"/><path class="cls-1" d="m437.52,217.94h-6.04c4.87-9.53,7.75-21.44,9.42-32.01h4.93c-1.77,9.97-4.38,22.99-8.31,32.01Zm19.72,5.82c-1,1.22-2.6,1.83-4.49,1.83h-6.15l-1.83-4.15h7.03c.78,0,1.38-.61,1.38-1.38v-43.04h5.21v43.2c0,1.5-.44,2.66-1.16,3.54Zm16.95-5.82c-4.38-9.91-6.76-20.94-8.64-32.01h4.82c1.83,11.08,4.27,22.32,9.64,32.01h-5.82Z"/><path class="cls-1" d="m493.35,203.81h9.31c-.55-1.83-1.05-4.21-1.38-6.15h5.1c.72,3.43,1.72,6.81,3.1,9.97h-5.48c-.33-.78-.72-1.94-.94-2.6l-1.61,2.6h-11.63c-1.27,0-2.16-.66-2.6-1.55-.55-1.05-.44-2.38.44-3.32l8.25-9.14h-6.48c-1.27,0-2.33-.83-2.71-1.99-.28-.94-.11-2.16.89-3.27l10.19-11.24h6.59l-11.41,12.63h6.43l3.38-3.77h6.81l-16.23,17.84Zm-1.88,21.77h-4.87c1.22-4.87,1.77-10.14,1.83-15.51h4.54c.06,5.32-.39,10.58-1.5,15.51Zm5.37,0c-1-5.15-1.33-10.19-1.5-15.51h4.54c.28,5.26.72,10.58,1.88,15.51h-4.93Zm7.15-5.21c-.83-3.32-1.27-6.76-1.44-10.3h4.43c.39,3.49.89,6.98,1.83,10.3h-4.82Zm3.1,5.21v-3.82h11.08v-40.21h-9.8v-3.82h24.93v3.82h-9.91v40.21h11.52v3.82h-27.81Z"/></svg>