<?xml version="1.0" encoding="UTF-8"?><svg id="_圖層_2" xmlns="http://www.w3.org/2000/svg" viewBox="0 0 115 115"><defs><style>.cls-1{fill:#dfdfdf;}.cls-1,.cls-2{stroke-width:0px;}.cls-2{fill:#7d7d7d;}</style></defs><path class="cls-1" d="m115,57.5c0,31.76-25.74,57.5-57.5,57.5S0,89.26,0,57.5,25.74,0,57.5,0s57.5,25.74,57.5,57.5h0Z"/><path class="cls-2" d="m73.44,61.52l1.9-12.39h-11.89v-8.04c0-3.39,1.66-6.7,6.99-6.7h5.41v-10.55s-4.91-.84-9.6-.84c-9.79,0-16.19,5.94-16.19,16.68v9.45h-10.89v12.39h10.89v29.96c2.18.34,4.42.52,6.7.52s4.52-.18,6.7-.52v-29.96h9.99Z"/></svg>