<?xml version="1.0" encoding="UTF-8"?><svg id="_圖層_2" xmlns="http://www.w3.org/2000/svg" viewBox="0 0 115 115"><defs><style>.cls-1{fill:#dfdfdf;}.cls-1,.cls-2{stroke-width:0px;}.cls-2{fill:#7d7d7d;}</style></defs><path class="cls-1" d="m57.5,0c31.76,0,57.5,25.74,57.5,57.5s-25.74,57.5-57.5,57.5S0,89.26,0,57.5,25.74,0,57.5,0h0Z"/><path class="cls-2" d="m57.5,23c-9.37,0-10.54.04-14.22.21-3.67.17-6.18.75-8.37,1.6-2.27.88-4.19,2.06-6.11,3.98-1.92,1.92-3.1,3.84-3.98,6.11-.85,2.19-1.44,4.7-1.6,8.37-.17,3.68-.21,4.85-.21,14.22s.04,10.54.21,14.22c.17,3.67.75,6.18,1.6,8.37.88,2.27,2.06,4.19,3.98,6.11,1.92,1.92,3.84,3.1,6.11,3.98,2.19.85,4.7,1.44,8.37,1.6,3.68.17,4.85.21,14.22.21s10.54-.04,14.22-.21c3.67-.17,6.18-.75,8.37-1.6,2.27-.88,4.19-2.06,6.11-3.98,1.92-1.92,3.1-3.84,3.98-6.11.85-2.19,1.44-4.7,1.6-8.37.17-3.68.21-4.86.21-14.22s-.04-10.54-.21-14.22c-.17-3.67-.75-6.18-1.6-8.37-.88-2.27-2.06-4.19-3.98-6.11-1.92-1.92-3.84-3.1-6.11-3.98-2.19-.85-4.7-1.44-8.37-1.6-3.68-.17-4.85-.21-14.22-.21h0Zm0,6.22c9.21,0,10.3.03,13.94.2,3.36.15,5.19.72,6.41,1.19,1.61.63,2.76,1.37,3.97,2.58,1.21,1.21,1.95,2.36,2.58,3.97.47,1.22,1.03,3.04,1.19,6.41.17,3.64.2,4.73.2,13.94s-.03,10.3-.2,13.94c-.15,3.36-.72,5.19-1.19,6.41-.63,1.61-1.37,2.76-2.58,3.97-1.21,1.21-2.36,1.95-3.97,2.58-1.22.47-3.04,1.03-6.41,1.19-3.64.17-4.73.2-13.94.2s-10.3-.03-13.94-.2c-3.36-.15-5.19-.72-6.41-1.19-1.61-.63-2.76-1.37-3.97-2.58-1.21-1.21-1.95-2.36-2.58-3.97-.47-1.22-1.03-3.04-1.19-6.41-.17-3.64-.2-4.73-.2-13.94s.03-10.3.2-13.94c.15-3.36.72-5.19,1.19-6.41.63-1.61,1.37-2.76,2.58-3.97,1.21-1.21,2.36-1.95,3.97-2.58,1.22-.47,3.04-1.03,6.41-1.19,3.64-.17,4.73-.2,13.94-.2"/><path class="cls-2" d="m57.5,69c-6.35,0-11.5-5.15-11.5-11.5s5.15-11.5,11.5-11.5,11.5,5.15,11.5,11.5-5.15,11.5-11.5,11.5h0Zm0-29.22c-9.78,0-17.72,7.93-17.72,17.72s7.93,17.72,17.72,17.72,17.72-7.93,17.72-17.72-7.93-17.72-17.72-17.72h0Z"/><path class="cls-2" d="m80.06,39.08c0,2.29-1.85,4.14-4.14,4.14s-4.14-1.85-4.14-4.14,1.85-4.14,4.14-4.14,4.14,1.85,4.14,4.14h0Z"/></svg>