<?xml version="1.0" encoding="UTF-8"?><svg id="_圖層_2" xmlns="http://www.w3.org/2000/svg" viewBox="0 0 115 115"><defs><style>.cls-1{fill:#dfdfdf;fill-rule:evenodd;}.cls-1,.cls-2{stroke-width:0px;}.cls-2{fill:#7d7d7d;}</style></defs><path class="cls-1" d="m115,57.5c0,31.76-25.74,57.5-57.5,57.5S0,89.26,0,57.5,25.74,0,57.5,0s57.5,25.74,57.5,57.5h0Z"/><path class="cls-2" d="m57.31,24.63c-19.02,0-34.5,12.56-34.5,28,0,13.84,12.28,25.43,28.85,27.62,1.13.24,2.66.74,3.04,1.7.35.87.23,2.24.11,3.12,0,0-.4,2.43-.49,2.95-.15.87-.7,3.41,2.98,1.86,3.68-1.55,19.87-11.7,27.11-20.03,5-5.48,7.39-11.05,7.39-17.23,0-15.44-15.47-28-34.5-28Zm-12.17,36.24c0,.37-.3.67-.67.67h-9.67c-.18,0-.34-.07-.47-.19,0,0,0,0-.02,0,0,0,0,0,0-.01-.11-.12-.19-.28-.19-.46h0v-15.03c0-.37.3-.67.68-.67h2.42c.37,0,.67.3.67.67v11.94h6.58c.37,0,.67.3.67.67v2.42Zm5.83,0c0,.37-.3.67-.67.67h-2.41c-.38,0-.68-.3-.68-.67v-15.03c0-.37.3-.67.68-.67h2.41c.38,0,.67.3.67.67v15.03Zm16.66,0c0,.37-.3.67-.67.67h-2.41c-.06,0-.12,0-.17-.02,0,0,0,0-.01,0-.02,0-.03,0-.05-.01,0,0,0,0-.02,0-.01,0-.02,0-.04-.01,0,0-.02,0-.03-.02,0,0-.01,0-.02-.01,0,0-.02-.02-.04-.02,0,0,0,0,0,0-.07-.04-.12-.1-.17-.16l-6.89-9.32v8.93c0,.37-.3.67-.68.67h-2.42c-.37,0-.67-.3-.67-.67v-15.03c0-.37.3-.67.67-.67h2.42s.02,0,.02,0c.02,0,.02,0,.04,0,0,0,.02,0,.03,0,.02,0,.02,0,.03,0,.02,0,.03,0,.04,0,0,0,.02,0,.03,0,0,0,.02,0,.04.01,0,0,.02,0,.02,0,.02,0,.02.01.04.02,0,0,.01,0,.02.01,0,0,.02.01.04.02,0,0,0,0,.02.01.02,0,.02.02.04.02,0,0,0,0,.02.01.02,0,.02.02.04.03,0,0,0,0,.02.01,0,.01.02.03.04.04,0,0,0,0,0,0,.01.02.03.04.05.07l6.89,9.3v-8.93c0-.37.3-.67.68-.67h2.41c.38,0,.67.3.67.67v15.03Zm13.37-12.61c0,.37-.3.67-.67.67h-6.57v2.54h6.57c.38,0,.67.3.67.67v2.42c0,.37-.3.67-.67.67h-6.57v2.54h6.57c.38,0,.67.3.67.67v2.42c0,.37-.3.67-.67.67h-9.67c-.18,0-.35-.07-.47-.19,0,0,0,0,0,0,0,0,0,0,0-.01-.12-.12-.19-.28-.19-.46h0v-15.03h0c0-.18.07-.34.18-.46,0,0,0,0,.02-.01,0,0,0,0,0,0,.12-.12.28-.19.47-.19h9.67c.38,0,.67.3.67.67v2.42Z"/></svg>