<?xml version="1.0" encoding="UTF-8"?><svg id="_圖層_2" xmlns="http://www.w3.org/2000/svg" viewBox="0 0 115 115"><defs><style>.cls-1{fill:#dfdfdf;fill-rule:evenodd;}.cls-1,.cls-2{stroke-width:0px;}.cls-2{fill:#7d7d7d;}</style></defs><path class="cls-1" d="m115,57.5c0,31.76-25.74,57.5-57.5,57.5S0,89.26,0,57.5,25.74,0,57.5,0s57.5,25.74,57.5,57.5h0Z"/><circle class="cls-2" cx="64.45" cy="30.77" r=".97"/><path class="cls-2" d="m66.55,85.65h-27.56c-3.28,0-5.95-2.67-5.95-5.95v-43.95c0-3.28,2.67-5.95,5.95-5.95h19.33c.54,0,.97.44.97.97s-.44.97-.97.97h-19.33c-2.21,0-4.01,1.8-4.01,4.01v43.95c0,2.21,1.8,4.01,4.01,4.01h27.56c11.24,0,20.39-9.15,20.39-20.39v-4.77c0-.54.44-.97.97-.97s.97.44.97.97v4.77c0,12.32-10.02,22.34-22.34,22.34Z"/><path class="cls-2" d="m57.93,61.63c-.25,0-.5-.1-.69-.29-.38-.38-.38-1,0-1.38l27.55-27.55c.38-.38,1-.38,1.38,0s.38,1,0,1.38l-27.55,27.55c-.19.19-.44.29-.69.29Z"/><path class="cls-2" d="m87.92,51.24c-.54,0-.97-.44-.97-.97v-17c0-.84-.68-1.52-1.52-1.52h-15.85c-.54,0-.97-.44-.97-.97s.44-.97.97-.97h15.85c1.91,0,3.46,1.55,3.46,3.46v17c0,.54-.44.97-.97.97Z"/></svg>