<?xml version="1.0" encoding="UTF-8"?><svg id="_圖層_2" xmlns="http://www.w3.org/2000/svg" viewBox="0 0 115 115"><defs><style>.cls-1{fill:#dfdfdf;fill-rule:evenodd;}.cls-1,.cls-2{stroke-width:0px;}.cls-2{fill:#7d7d7d;}</style></defs><path class="cls-1" d="m115,57.5c0,31.76-25.74,57.5-57.5,57.5S0,89.26,0,57.5,25.74,0,57.5,0s57.5,25.74,57.5,57.5h0Z"/><path class="cls-2" d="m67.48,97.1h-27.38c-4.4,0-7.99-3.58-7.99-7.99V28.19c0-4.4,3.58-7.99,7.99-7.99h36.95c4.4,0,7.99,3.58,7.99,7.99v51.35c0,9.69-7.88,17.56-17.56,17.56ZM40.1,22.8c-2.97,0-5.39,2.42-5.39,5.39v60.93c0,2.97,2.42,5.39,5.39,5.39h27.38c8.25,0,14.96-6.71,14.96-14.96V28.19c0-2.97-2.42-5.39-5.39-5.39h-36.95Z"/><path class="cls-2" d="m83.74,29.16h-50.33c-.72,0-1.3-.58-1.3-1.3s.58-1.3,1.3-1.3h50.33c.72,0,1.3.58,1.3,1.3s-.58,1.3-1.3,1.3Z"/><path class="cls-2" d="m83.74,74.71h-50.33c-.72,0-1.3-.58-1.3-1.3s.58-1.3,1.3-1.3h50.33c.72,0,1.3.58,1.3,1.3s-.58,1.3-1.3,1.3Z"/><path class="cls-2" d="m58.58,90.91c-3.52,0-6.39-2.87-6.39-6.39s2.87-6.39,6.39-6.39,6.39,2.87,6.39,6.39-2.87,6.39-6.39,6.39Zm0-10.19c-2.09,0-3.79,1.7-3.79,3.79s1.7,3.79,3.79,3.79,3.79-1.7,3.79-3.79-1.7-3.79-3.79-3.79Z"/></svg>