<?xml version="1.0" encoding="UTF-8"?><svg id="_圖層_1" xmlns="http://www.w3.org/2000/svg" viewBox="0 0 135 135"><defs><style>.cls-1{fill:#f2f2f2;}.cls-2{fill:#de534e;}</style></defs><path class="cls-1" d="m135,67.5c0,37.28-30.22,67.5-67.5,67.5S0,104.78,0,67.5,30.22,0,67.5,0s67.5,30.22,67.5,67.5h0Z"/><path class="cls-2" d="m86.21,72.22l2.23-14.55h-13.96v-9.44c0-3.98,1.95-7.86,8.2-7.86h6.35v-12.39s-5.76-.98-11.27-.98c-11.5,0-19.01,6.97-19.01,19.58v11.09h-12.78v14.55h12.78v35.17c2.56.4,5.19.61,7.86.61s5.3-.21,7.86-.61v-35.17h11.73Z"/></svg>