<?xml version="1.0" encoding="UTF-8"?><svg id="_圖層_1" xmlns="http://www.w3.org/2000/svg" viewBox="0 0 135 135"><defs><style>.cls-1{fill:#f2f2f2;}.cls-2{fill:#de534e;}</style></defs><path class="cls-1" d="m67.5,0c37.28,0,67.5,30.22,67.5,67.5s-30.22,67.5-67.5,67.5S0,104.78,0,67.5,30.22,0,67.5,0h0Z"/><path class="cls-2" d="m67.5,27c-11,0-12.38.05-16.7.24-4.31.2-7.25.88-9.83,1.88-2.66,1.03-4.92,2.42-7.17,4.67-2.25,2.25-3.64,4.51-4.67,7.17-1,2.58-1.69,5.52-1.88,9.83-.2,4.32-.24,5.7-.24,16.7s.05,12.38.24,16.7c.2,4.31.88,7.25,1.88,9.83,1.03,2.66,2.42,4.92,4.67,7.17,2.25,2.25,4.51,3.64,7.17,4.67,2.58,1,5.52,1.69,9.83,1.88,4.32.2,5.7.24,16.7.24s12.38-.05,16.7-.24c4.31-.2,7.26-.88,9.83-1.88,2.66-1.04,4.92-2.42,7.17-4.67,2.25-2.25,3.64-4.51,4.67-7.17,1-2.58,1.69-5.52,1.88-9.83.2-4.32.24-5.7.24-16.7s-.05-12.38-.24-16.7c-.2-4.31-.88-7.25-1.88-9.83-1.03-2.66-2.42-4.92-4.67-7.17-2.25-2.25-4.51-3.64-7.17-4.67-2.58-1-5.52-1.69-9.83-1.88-4.32-.2-5.7-.24-16.7-.24h0Zm0,7.3c10.81,0,12.09.04,16.37.24,3.95.18,6.09.84,7.52,1.4,1.89.73,3.24,1.61,4.66,3.03,1.42,1.42,2.29,2.77,3.03,4.66.55,1.43,1.21,3.57,1.4,7.52.19,4.27.24,5.55.24,16.37s-.04,12.09-.24,16.37c-.18,3.95-.84,6.09-1.4,7.52-.73,1.89-1.61,3.24-3.03,4.66-1.42,1.42-2.77,2.29-4.66,3.03-1.43.55-3.57,1.21-7.52,1.39-4.27.2-5.55.24-16.37.24s-12.1-.04-16.37-.24c-3.95-.18-6.09-.84-7.52-1.39-1.89-.73-3.24-1.61-4.66-3.03-1.42-1.42-2.29-2.77-3.03-4.66-.55-1.43-1.21-3.57-1.4-7.52-.19-4.27-.24-5.55-.24-16.37s.04-12.09.24-16.37c.18-3.95.84-6.09,1.4-7.52.73-1.89,1.61-3.24,3.03-4.66,1.42-1.42,2.77-2.29,4.66-3.03,1.43-.55,3.57-1.21,7.52-1.4,4.27-.19,5.55-.24,16.37-.24"/><path class="cls-2" d="m67.5,81c-7.46,0-13.5-6.04-13.5-13.5s6.04-13.5,13.5-13.5,13.5,6.04,13.5,13.5-6.04,13.5-13.5,13.5h0Zm0-34.3c-11.49,0-20.8,9.31-20.8,20.8s9.31,20.8,20.8,20.8,20.8-9.31,20.8-20.8-9.31-20.8-20.8-20.8h0Z"/><path class="cls-2" d="m93.98,45.88c0,2.68-2.18,4.86-4.86,4.86s-4.86-2.18-4.86-4.86,2.18-4.86,4.86-4.86,4.86,2.18,4.86,4.86h0Z"/></svg>