<?xml version="1.0" encoding="UTF-8"?><svg id="_圖層_1" xmlns="http://www.w3.org/2000/svg" viewBox="0 0 135 135"><defs><style>.cls-1{fill:#de534e;}.cls-2{fill:#f2f2f2;fill-rule:evenodd;}</style></defs><path class="cls-2" d="m135,67.5c0,37.28-30.22,67.5-67.5,67.5S0,104.78,0,67.5,30.22,0,67.5,0s67.5,30.22,67.5,67.5h0Z"/><path class="cls-1" d="m67.28,28.91c-22.33,0-40.5,14.74-40.5,32.87,0,16.25,14.41,29.85,33.87,32.43,1.32.28,3.12.87,3.57,2,.41,1.02.27,2.63.13,3.66,0,0-.48,2.86-.57,3.47-.18,1.02-.82,4.01,3.5,2.18,4.32-1.82,23.32-13.73,31.82-23.51,5.87-6.44,8.68-12.97,8.68-20.22,0-18.12-18.16-32.87-40.5-32.87Zm-14.29,42.54c0,.44-.35.79-.78.79h-11.35c-.21,0-.4-.08-.55-.22,0,0,0,0-.02-.01,0,0,0,0,0-.01-.13-.14-.22-.33-.22-.55h0v-17.65c0-.44.35-.79.79-.79h2.84c.44,0,.79.35.79.79v14.01h7.72c.43,0,.78.35.78.79v2.84Zm6.85,0c0,.43-.35.79-.79.79h-2.83c-.44,0-.79-.35-.79-.79v-17.65c0-.43.35-.79.79-.79h2.83c.44,0,.79.35.79.79v17.65Zm19.55,0c0,.43-.35.79-.79.79h-2.83c-.07,0-.14,0-.2-.03,0,0,0,0-.02,0-.02,0-.04-.01-.05-.02,0,0,0,0-.02,0-.02,0-.03-.01-.04-.02,0,0-.03-.01-.04-.02,0,0-.02,0-.03-.01,0,0-.03-.02-.04-.03,0,0,0,0,0,0-.08-.05-.14-.12-.2-.19l-8.09-10.94v10.48c0,.43-.35.79-.79.79h-2.84c-.43,0-.78-.35-.78-.79v-17.65c0-.43.35-.79.78-.79h2.84s.02,0,.03,0c.02,0,.03,0,.04,0,0,0,.03,0,.04,0,.02,0,.03,0,.04,0,.02,0,.04,0,.04.01,0,0,.03,0,.04,0,0,0,.03,0,.04.02,0,0,.02,0,.03,0,.02,0,.03.01.04.02,0,0,.02,0,.03.01,0,0,.03.01.04.02,0,0,0,0,.02.01.02,0,.03.02.04.03,0,0,0,.01.02.02.02.01.03.02.04.04,0,0,0,0,.02.01,0,.02.03.03.04.05,0,0,0,0,0,0,.02.02.04.05.06.08l8.08,10.92v-10.48c0-.43.35-.79.79-.79h2.83c.44,0,.79.35.79.79v17.65Zm15.69-14.8c0,.44-.35.79-.79.79h-7.71v2.98h7.71c.44,0,.79.35.79.79v2.84c0,.44-.35.79-.79.79h-7.71v2.98h7.71c.44,0,.79.35.79.79v2.84c0,.44-.35.79-.79.79h-11.35c-.21,0-.41-.09-.55-.22,0,0,0,0,0-.01,0,0,0,0,0-.01-.14-.14-.22-.33-.22-.55h0v-17.64h0c0-.21.08-.4.21-.54,0,0,0,0,.02-.02,0,0,0,0,0,0,.14-.14.33-.22.55-.22h11.35c.44,0,.79.35.79.79v2.84Z"/></svg>