<?xml version="1.0" encoding="UTF-8"?><svg id="_圖層_1" xmlns="http://www.w3.org/2000/svg" viewBox="0 0 50 50"><defs><style>.cls-1{fill:#494949;}.cls-1,.cls-2{stroke-width:0px;}.cls-2{fill:#fff;}</style></defs><path class="cls-1" d="m50,25c0,13.81-11.19,25-25,25h0C11.19,50,0,38.81,0,25h0C0,11.19,11.19,0,25,0h0c13.81,0,25,11.19,25,25h0Z"/><path class="cls-2" d="m15.77,14.67h3.66l14.79,20.66h-3.66L15.77,14.67h0Zm12.84,8.04l10.11-10.82h-3.84l-7.94,8.49-6.08-8.49h-10.5l10.63,14.85-10.63,11.37h3.84l8.46-9.05,6.48,9.05h10.5l-11.03-15.41h0Z"/></svg>