<?xml version="1.0" encoding="UTF-8"?><svg id="_圖層_1" xmlns="http://www.w3.org/2000/svg" viewBox="0 0 135 135"><defs><style>.cls-1{fill:#f2f2f2;}.cls-2{fill:#de534e;}</style></defs><path class="cls-1" d="m135,67.5c0,37.28-30.22,67.5-67.5,67.5S0,104.78,0,67.5,30.22,0,67.5,0s67.5,30.22,67.5,67.5h0Z"/><path class="cls-2" d="m67.5,108c-22.33,0-40.5-18.17-40.5-40.5s18.17-40.5,40.5-40.5,40.5,18.17,40.5,40.5-18.17,40.5-40.5,40.5Zm0-75.72c-19.42,0-35.22,15.8-35.22,35.22s15.8,35.22,35.22,35.22,35.22-15.8,35.22-35.22-15.8-35.22-35.22-35.22Z"/><polygon class="cls-2" points="54.83 86.75 54.83 49.11 87.43 67.93 54.83 86.75 54.83 86.75"/></svg>