<?xml version="1.0" encoding="UTF-8" standalone="no"?>
<svg
   id="_圖層_1"
   viewBox="0 0 39.999999 40"
   version="1.1"
   sodipodi:docname="account.svg"
   width="40"
   height="40"
   inkscape:version="1.2.1 (9c6d41e4, 2022-07-14)"
   xmlns:inkscape="http://www.inkscape.org/namespaces/inkscape"
   xmlns:sodipodi="http://sodipodi.sourceforge.net/DTD/sodipodi-0.dtd"
   xmlns="http://www.w3.org/2000/svg"
   xmlns:svg="http://www.w3.org/2000/svg">
  <sodipodi:namedview
     id="namedview145"
     pagecolor="#ffffff"
     bordercolor="#000000"
     borderopacity="0.25"
     inkscape:showpageshadow="2"
     inkscape:pageopacity="0.0"
     inkscape:pagecheckerboard="0"
     inkscape:deskcolor="#d1d1d1"
     showgrid="false"
     inkscape:zoom="13.965359"
     inkscape:cx="10.776665"
     inkscape:cy="19.978004"
     inkscape:window-width="1430"
     inkscape:window-height="942"
     inkscape:window-x="0"
     inkscape:window-y="25"
     inkscape:window-maximized="0"
     inkscape:current-layer="_圖層_1" />
  <defs
     id="defs134">
    <style
       id="style132">.cls-1{fill:#ccc;}</style>
  </defs>
  <g
     id="g533"
     transform="translate(6.23)">
    <path
       class="cls-1"
       d="M 18.39,40 H 4.15 C 1.86,40 0,38.14 0,35.85 V 4.15 C 0,1.86 1.86,0 4.15,0 h 19.22 c 2.29,0 4.15,1.86 4.15,4.15 v 26.71 c 0,5.04 -4.1,9.14 -9.14,9.14 z M 4.15,1.35 c -1.55,0 -2.8,1.26 -2.8,2.8 v 31.69 c 0,1.55 1.26,2.8 2.8,2.8 h 14.24 c 4.29,0 7.78,-3.49 7.78,-7.78 V 4.15 c 0,-1.55 -1.26,-2.8 -2.8,-2.8 H 4.15 Z"
       id="path136" />
    <path
       class="cls-1"
       d="M 26.85,4.66 H 0.68 C 0.31,4.66 0,4.36 0,3.98 0,3.6 0.3,3.3 0.68,3.3 h 26.18 c 0.37,0 0.68,0.3 0.68,0.68 0,0.38 -0.3,0.68 -0.68,0.68 z"
       id="path138" />
    <path
       class="cls-1"
       d="M 26.85,28.35 H 0.68 C 0.31,28.35 0,28.05 0,27.67 0,27.29 0.3,26.99 0.68,26.99 h 26.18 c 0.37,0 0.68,0.3 0.68,0.68 0,0.38 -0.3,0.68 -0.68,0.68 z"
       id="path140" />
    <path
       class="cls-1"
       d="m 13.77,36.78 c -1.83,0 -3.33,-1.49 -3.33,-3.33 0,-1.84 1.49,-3.33 3.33,-3.33 1.84,0 3.33,1.49 3.33,3.33 0,1.84 -1.49,3.33 -3.33,3.33 z m 0,-5.3 c -1.09,0 -1.97,0.89 -1.97,1.97 0,1.08 0.89,1.97 1.97,1.97 1.08,0 1.97,-0.89 1.97,-1.97 0,-1.08 -0.89,-1.97 -1.97,-1.97 z"
       id="path142" />
  </g>
</svg>
