<?xml version="1.0" encoding="UTF-8"?><svg id="_圖層_1" xmlns="http://www.w3.org/2000/svg" viewBox="0 0 40 30.45"><defs><style>.cls-1{fill:#4d4d4d;}</style></defs><path class="cls-1" d="m12.12,19.72c-5.44,0-9.86-4.42-9.86-9.86S6.69,0,12.12,0s9.86,4.42,9.86,9.86-4.42,9.86-9.86,9.86Zm0-18.35C7.44,1.37,3.64,5.18,3.64,9.86s3.81,8.49,8.49,8.49,8.49-3.81,8.49-8.49S16.8,1.37,12.12,1.37Z"/><path class="cls-1" d="m22.53,28.03c-.26,0-.51-.15-.62-.4-1.18-2.54-3.74-4.19-6.52-4.19h-6.53c-2.78,0-5.34,1.64-6.52,4.19-.16.34-.57.49-.91.33-.34-.16-.49-.57-.33-.91,1.4-3.03,4.45-4.98,7.76-4.98h6.53c3.31,0,6.36,1.96,7.76,4.98.16.34,0,.75-.33.91-.09.04-.19.06-.29.06Z"/><path class="cls-1" d="m39.31,7.05h-11.85c-.38,0-.69-.31-.69-.69s.31-.69.69-.69h11.85c.38,0,.69.31.69.69s-.31.69-.69.69Z"/><path class="cls-1" d="m39.31,12.25h-11.85c-.38,0-.69-.31-.69-.69s.31-.69.69-.69h11.85c.38,0,.69.31.69.69s-.31.69-.69.69Z"/><path class="cls-1" d="m39.31,17.46h-11.85c-.38,0-.69-.31-.69-.69s.31-.69.69-.69h11.85c.38,0,.69.31.69.69s-.31.69-.69.69Z"/><circle class="cls-1" cx="23.23" cy="29.76" r=".69"/><circle class="cls-1" cx=".69" cy="29.76" r=".69"/></svg>