<?xml version="1.0" encoding="UTF-8"?><svg id="_圖層_1" xmlns="http://www.w3.org/2000/svg" viewBox="0 0 27.53 40"><defs><style>.cls-1{fill:#fff;}</style></defs><path class="cls-1" d="m18.39,40H4.15c-2.29,0-4.15-1.86-4.15-4.15V4.15C0,1.86,1.86,0,4.15,0h19.22c2.29,0,4.15,1.86,4.15,4.15v26.71c0,5.04-4.1,9.14-9.14,9.14ZM4.15,1.35c-1.55,0-2.8,1.26-2.8,2.8v31.69c0,1.55,1.26,2.8,2.8,2.8h14.24c4.29,0,7.78-3.49,7.78-7.78V4.15c0-1.55-1.26-2.8-2.8-2.8H4.15Z"/><path class="cls-1" d="m26.85,4.66H.68c-.37,0-.68-.3-.68-.68s.3-.68.68-.68h26.18c.37,0,.68.3.68.68s-.3.68-.68.68Z"/><path class="cls-1" d="m26.85,28.35H.68c-.37,0-.68-.3-.68-.68s.3-.68.68-.68h26.18c.37,0,.68.3.68.68s-.3.68-.68.68Z"/><path class="cls-1" d="m13.77,36.78c-1.83,0-3.33-1.49-3.33-3.33s1.49-3.33,3.33-3.33,3.33,1.49,3.33,3.33-1.49,3.33-3.33,3.33Zm0-5.3c-1.09,0-1.97.89-1.97,1.97s.89,1.97,1.97,1.97,1.97-.89,1.97-1.97-.89-1.97-1.97-1.97Z"/></svg>