<?xml version="1.0" encoding="UTF-8"?><svg id="_圖層_1" xmlns="http://www.w3.org/2000/svg" viewBox="0 0 50 50"><defs><style>.cls-1{fill:#7ac710;}</style></defs><path class="cls-1" d="m25,0C11.19,0,0,11.19,0,25s11.19,25,25,25,25-11.19,25-25S38.81,0,25,0Zm14.33,18.3l-18.03,18.77c-.55.57-1.3.89-2.08.89-.12,0-.24,0-.37-.02-.91-.12-1.71-.66-2.15-1.45l-6.46-11.55c-.78-1.39-.28-3.15,1.11-3.93,1.39-.78,3.15-.28,3.93,1.11l4.56,8.15,15.33-15.96c1.11-1.15,2.93-1.18,4.08-.08,1.15,1.1,1.19,2.93.08,4.08Z"/></svg>