<?xml version="1.0" encoding="UTF-8" standalone="no"?>
<svg
   id="_圖層_1"
   viewBox="0 0 39.999999 40"
   version="1.1"
   sodipodi:docname="password_gray.svg"
   width="40"
   height="40"
   inkscape:version="1.2.1 (9c6d41e4, 2022-07-14)"
   xmlns:inkscape="http://www.inkscape.org/namespaces/inkscape"
   xmlns:sodipodi="http://sodipodi.sourceforge.net/DTD/sodipodi-0.dtd"
   xmlns="http://www.w3.org/2000/svg"
   xmlns:svg="http://www.w3.org/2000/svg">
  <sodipodi:namedview
     id="namedview159"
     pagecolor="#ffffff"
     bordercolor="#000000"
     borderopacity="0.25"
     inkscape:showpageshadow="2"
     inkscape:pageopacity="0.0"
     inkscape:pagecheckerboard="0"
     inkscape:deskcolor="#d1d1d1"
     showgrid="false"
     inkscape:zoom="13.965359"
     inkscape:cx="12.996444"
     inkscape:cy="19.978004"
     inkscape:window-width="1430"
     inkscape:window-height="942"
     inkscape:window-x="0"
     inkscape:window-y="25"
     inkscape:window-maximized="0"
     inkscape:current-layer="_圖層_1" />
  <defs
     id="defs134">
    <style
       id="style132">.cls-1{fill:#494949;}</style>
  </defs>
  <g
     id="g422"
     transform="translate(3.985)">
    <circle
       class="cls-1"
       cx="12.62"
       cy="21.860001"
       r="0.68000001"
       id="circle136" />
    <circle
       class="cls-1"
       cx="12.62"
       cy="31.700001"
       r="0.68000001"
       id="circle138" />
    <circle
       class="cls-1"
       cx="5.8200002"
       cy="9.5900002"
       r="0.68000001"
       id="circle140" />
    <circle
       class="cls-1"
       cx="21.940001"
       cy="34.389999"
       r="0.80000001"
       id="circle142" />
    <circle
       class="cls-1"
       cx="24.690001"
       cy="34.389999"
       r="0.80000001"
       id="circle144" />
    <circle
       class="cls-1"
       cx="27.440001"
       cy="34.389999"
       r="0.80000001"
       id="circle146" />
    <path
       class="cls-1"
       d="M 18.02,36.87 H 4.15 C 1.86,36.87 0,35.01 0,32.72 V 15.79 C 0,13.5 1.86,11.64 4.15,11.64 h 16.93 c 2.29,0 4.15,1.86 4.15,4.15 v 13.67 c 0,0.37 -0.3,0.68 -0.68,0.68 -0.38,0 -0.68,-0.3 -0.68,-0.68 V 15.79 c 0,-1.55 -1.26,-2.8 -2.8,-2.8 H 4.15 c -1.55,0 -2.8,1.26 -2.8,2.8 v 16.93 c 0,1.55 1.26,2.8 2.8,2.8 h 13.87 c 0.37,0 0.68,0.3 0.68,0.68 0,0.38 -0.3,0.68 -0.68,0.68 z"
       id="path148" />
    <path
       class="cls-1"
       d="m 19.42,10.27 c -0.37,0 -0.68,-0.3 -0.68,-0.68 V 7.47 C 18.74,4.09 15.99,1.34 12.61,1.34 9.23,1.34 6.48,4.09 6.48,7.47 6.48,7.84 6.18,8.15 5.8,8.15 5.42,8.15 5.12,7.85 5.12,7.47 5.14,3.35 8.49,0 12.62,0 16.75,0 20.1,3.35 20.1,7.48 V 9.6 c 0,0.37 -0.3,0.68 -0.68,0.68 z"
       id="path150" />
    <path
       class="cls-1"
       d="m 12.62,26.07 c -2.32,0 -4.21,-1.89 -4.21,-4.21 0,-2.32 1.89,-4.21 4.21,-4.21 2.32,0 4.21,1.89 4.21,4.21 0,2.32 -1.89,4.21 -4.21,4.21 z m 0,-7.06 c -1.57,0 -2.85,1.28 -2.85,2.85 0,1.57 1.28,2.85 2.85,2.85 1.57,0 2.85,-1.28 2.85,-2.85 0,-1.57 -1.28,-2.85 -2.85,-2.85 z"
       id="path152" />
    <path
       class="cls-1"
       d="m 12.62,29.8 c -0.37,0 -0.68,-0.3 -0.68,-0.68 v -3.74 c 0,-0.37 0.3,-0.68 0.68,-0.68 0.38,0 0.68,0.3 0.68,0.68 v 3.74 c 0,0.37 -0.3,0.68 -0.68,0.68 z"
       id="path154" />
    <path
       class="cls-1"
       d="m 27.88,40 h -6.39 c -2.29,0 -4.15,-1.86 -4.15,-4.15 v -2.92 c 0,-2.29 1.86,-4.15 4.15,-4.15 h 6.39 c 2.29,0 4.15,1.86 4.15,4.15 v 2.92 c 0,2.29 -1.86,4.15 -4.15,4.15 z m -6.39,-9.86 c -1.54,0 -2.8,1.25 -2.8,2.8 v 2.92 c 0,1.54 1.25,2.8 2.8,2.8 h 6.39 c 1.54,0 2.8,-1.25 2.8,-2.8 v -2.92 c 0,-1.54 -1.25,-2.8 -2.8,-2.8 z"
       id="path156" />
  </g>
</svg>
