<?xml version="1.0" encoding="UTF-8"?><svg id="_圖層_1" xmlns="http://www.w3.org/2000/svg" viewBox="0 0 40 36.52"><defs><style>.cls-1{fill:#fff;}</style></defs><path class="cls-1" d="m16.69,23.78c-.05,0-.11,0-.16,0-.78-.05-1.49-.43-1.96-1.05l-4.3-5.71c-.23-.3-.17-.73.14-.96.3-.23.73-.17.96.14l4.3,5.71c.23.3.57.48.94.51.38.02.74-.12,1-.39L36.71,2.12c.26-.27.7-.28.97-.02.27.26.28.7.02.97l-19.1,19.89c-.5.52-1.19.82-1.91.82Z"/><path class="cls-1" d="m18.27,32.68c-3.13,0-6.23-1.03-8.81-3.02-.3-.23-.36-.66-.12-.97.23-.3.66-.36.97-.12,3.85,2.98,8.98,3.57,13.39,1.55.34-.16.75,0,.91.34.16.35,0,.75-.34.91-1.92.88-3.96,1.31-5.99,1.31Z"/><path class="cls-1" d="m29.74,26.47c-.13,0-.26-.04-.38-.11-.32-.21-.41-.63-.2-.95,2.37-3.62,2.79-8.16,1.12-12.16-.15-.35.02-.75.37-.9.35-.15.75.02.9.37,1.84,4.42,1.38,9.44-1.24,13.44-.13.2-.35.31-.58.31Z"/><path class="cls-1" d="m34.14,26.48c-.1,0-.2-.02-.29-.07-.34-.16-.49-.57-.33-.92,2.21-4.67,2.18-10-.07-14.62-.17-.34-.02-.75.32-.92.34-.17.75-.02.92.32,2.44,5,2.47,10.77.08,15.82-.12.25-.36.39-.62.39Z"/><path class="cls-1" d="m18.3,36.51c-5.57,0-11-2.55-14.53-7.15C.8,25.49-.48,20.7.16,15.86.8,11.03,3.29,6.73,7.16,3.76c6.87-5.27,16.59-4.96,23.1.73.29.25.32.68.07.97-.25.29-.68.32-.97.07C23.33.27,14.35-.01,7.99,4.86c-3.58,2.74-5.88,6.72-6.47,11.19-.59,4.47.59,8.9,3.34,12.48,4.6,6,12.71,8.22,19.71,5.39.35-.14.75.03.9.38.14.35-.03.75-.38.9-2.2.89-4.51,1.32-6.79,1.32Z"/><path class="cls-1" d="m5.61,24.24c-.27,0-.52-.16-.64-.42-2.53-6.03-.67-13.02,4.52-17,5.19-3.98,12.42-3.95,17.59.06.3.23.35.67.12.97s-.67.35-.97.12c-4.67-3.63-11.22-3.65-15.91-.05-4.69,3.6-6.37,9.92-4.09,15.38.15.35-.02.75-.37.9-.09.04-.18.05-.27.05Z"/><circle class="cls-1" cx="7.5" cy="26.61" r=".69"/><circle class="cls-1" cx="39.31" cy=".69" r=".69"/><circle class="cls-1" cx="28" cy="30.81" r=".81"/><circle class="cls-1" cx="30.79" cy="30.81" r=".81"/><circle class="cls-1" cx="33.59" cy="30.81" r=".81"/><path class="cls-1" d="m34.04,36.52h-6.5c-2.33,0-4.22-1.89-4.22-4.22v-2.97c0-2.33,1.89-4.22,4.22-4.22h6.5c2.33,0,4.22,1.89,4.22,4.22v2.97c0,2.33-1.89,4.22-4.22,4.22Zm-6.5-10.03c-1.57,0-2.85,1.28-2.85,2.85v2.97c0,1.57,1.28,2.85,2.85,2.85h6.5c1.57,0,2.85-1.28,2.85-2.85v-2.97c0-1.57-1.28-2.85-2.85-2.85h-6.5Z"/></svg>