<?xml version="1.0" encoding="UTF-8" standalone="no"?>
<svg
   id="_圖層_1"
   viewBox="0 0 40 39.999999"
   version="1.1"
   sodipodi:docname="validcode.svg"
   width="40"
   height="40"
   inkscape:version="1.2.1 (9c6d41e4, 2022-07-14)"
   xmlns:inkscape="http://www.inkscape.org/namespaces/inkscape"
   xmlns:sodipodi="http://sodipodi.sourceforge.net/DTD/sodipodi-0.dtd"
   xmlns="http://www.w3.org/2000/svg"
   xmlns:svg="http://www.w3.org/2000/svg">
  <sodipodi:namedview
     id="namedview161"
     pagecolor="#ffffff"
     bordercolor="#000000"
     borderopacity="0.25"
     inkscape:showpageshadow="2"
     inkscape:pageopacity="0.0"
     inkscape:pagecheckerboard="0"
     inkscape:deskcolor="#d1d1d1"
     showgrid="false"
     inkscape:zoom="10.815991"
     inkscape:cx="17.335443"
     inkscape:cy="18.306228"
     inkscape:window-width="1430"
     inkscape:window-height="942"
     inkscape:window-x="0"
     inkscape:window-y="25"
     inkscape:window-maximized="0"
     inkscape:current-layer="_圖層_1" />
  <defs
     id="defs134">
    <style
       id="style132">.cls-1{fill:#ccc;}</style>
  </defs>
  <path
     class="cls-1"
     d="m 16.69054,25.52 c -0.05,0 -0.11,0 -0.16,0 -0.78,-0.05 -1.49,-0.43 -1.96,-1.05 l -4.3,-5.71 c -0.23,-0.3 -0.17,-0.73 0.14,-0.96 0.3,-0.23 0.73,-0.17 0.96,0.14 l 4.3,5.71 c 0.23,0.3 0.57,0.48 0.94,0.51 0.38,0.02 0.74,-0.12 1,-0.39 l 19.1,-19.91 c 0.26,-0.27 0.7,-0.28 0.97,-0.02 0.27,0.26 0.28,0.7 0.02,0.97 l -19.1,19.89 c -0.5,0.52 -1.19,0.82 -1.91,0.82 z"
     id="path136" />
  <path
     class="cls-1"
     d="m 18.27054,34.42 c -3.13,0 -6.23,-1.03 -8.8100001,-3.02 -0.3,-0.23 -0.36,-0.66 -0.12,-0.97 0.23,-0.3 0.6600001,-0.36 0.9700001,-0.12 3.85,2.98 8.98,3.57 13.39,1.55 0.34,-0.16 0.75,0 0.91,0.34 0.16,0.35 0,0.75 -0.34,0.91 -1.92,0.88 -3.96,1.31 -5.99,1.31 z"
     id="path138" />
  <path
     class="cls-1"
     d="m 29.74054,28.21 c -0.13,0 -0.26,-0.04 -0.38,-0.11 -0.32,-0.21 -0.41,-0.63 -0.2,-0.95 2.37,-3.62 2.79,-8.16 1.12,-12.16 -0.15,-0.35 0.02,-0.75 0.37,-0.9 0.35,-0.15 0.75,0.02 0.9,0.37 1.84,4.42 1.38,9.44 -1.24,13.44 -0.13,0.2 -0.35,0.31 -0.58,0.31 z"
     id="path140" />
  <path
     class="cls-1"
     d="m 34.14054,28.22 c -0.1,0 -0.2,-0.02 -0.29,-0.07 -0.34,-0.16 -0.49,-0.57 -0.33,-0.92 2.21,-4.67 2.18,-10 -0.07,-14.62 -0.17,-0.34 -0.02,-0.75 0.32,-0.92 0.34,-0.17 0.75,-0.02 0.92,0.32 2.44,5 2.47,10.77 0.08,15.82 -0.12,0.25 -0.36,0.39 -0.62,0.39 z"
     id="path142" />
  <path
     class="cls-1"
     d="M 18.30054,38.25 C 12.73054,38.25 7.3005399,35.7 3.7705399,31.1 0.80053986,27.23 -0.47946014,22.44 0.16053986,17.6 0.80053986,12.77 3.2905399,8.47 7.1605399,5.5 14.03054,0.23 23.75054,0.54 30.26054,6.23 c 0.29,0.25 0.32,0.68 0.07,0.97 -0.25,0.29 -0.68,0.32 -0.97,0.07 -6.03,-5.26 -15.01,-5.54 -21.3700001,-0.67 -3.58,2.74 -5.88,6.72 -6.47,11.19 -0.59000004,4.47 0.59,8.9 3.34,12.48 4.6,6 12.7100001,8.22 19.7100001,5.39 0.35,-0.14 0.75,0.03 0.9,0.38 0.14,0.35 -0.03,0.75 -0.38,0.9 -2.2,0.89 -4.51,1.32 -6.79,1.32 z"
     id="path144" />
  <path
     class="cls-1"
     d="m 5.6105399,25.98 c -0.27,0 -0.52,-0.16 -0.64,-0.42 -2.53,-6.03 -0.67,-13.02 4.52,-17 C 14.68054,4.58 21.91054,4.61 27.08054,8.62 c 0.3,0.23 0.35,0.67 0.12,0.97 -0.23,0.3 -0.67,0.35 -0.97,0.12 -4.67,-3.63 -11.22,-3.65 -15.91,-0.05 -4.6900001,3.6 -6.3700001,9.92 -4.0900001,15.38 0.15,0.35 -0.02,0.75 -0.37,0.9 -0.09,0.04 -0.18,0.05 -0.27,0.05 z"
     id="path146" />
  <circle
     class="cls-1"
     cx="7.5005398"
     cy="28.35"
     r="0.69"
     id="circle148" />
  <circle
     class="cls-1"
     cx="39.310543"
     cy="2.4300001"
     r="0.69"
     id="circle150" />
  <circle
     class="cls-1"
     cx="28.00054"
     cy="32.549999"
     r="0.81"
     id="circle152" />
  <circle
     class="cls-1"
     cx="30.790541"
     cy="32.549999"
     r="0.81"
     id="circle154" />
  <circle
     class="cls-1"
     cx="33.590542"
     cy="32.549999"
     r="0.81"
     id="circle156" />
  <path
     class="cls-1"
     d="m 34.04054,38.26 h -6.5 c -2.33,0 -4.22,-1.89 -4.22,-4.22 v -2.97 c 0,-2.33 1.89,-4.22 4.22,-4.22 h 6.5 c 2.33,0 4.22,1.89 4.22,4.22 v 2.97 c 0,2.33 -1.89,4.22 -4.22,4.22 z m -6.5,-10.03 c -1.57,0 -2.85,1.28 -2.85,2.85 v 2.97 c 0,1.57 1.28,2.85 2.85,2.85 h 6.5 c 1.57,0 2.85,-1.28 2.85,-2.85 v -2.97 c 0,-1.57 -1.28,-2.85 -2.85,-2.85 z"
     id="path158" />
</svg>
