<?xml version="1.0" encoding="UTF-8"?><svg id="_圖層_1" xmlns="http://www.w3.org/2000/svg" viewBox="0 0 150 150"><defs><style>.cls-1{fill:#d9524e;stroke-width:0px;}</style></defs><path class="cls-1" d="m75,0c-19.35,0-37,7.35-50.3,19.35l31.35,54.3c3.2,5.55,1.3,12.6-4.25,15.8-5.55,3.2-12.6,1.3-15.8-4.25L9.25,38.9C3.35,49.6,0,61.9,0,75c0,41.4,33.6,75,75,75s75-33.6,75-75S116.4,0,75,0Zm-8.45,114.6c-5.55,3.2-12.6,1.3-15.8-4.25-3.2-5.55-1.3-12.6,4.25-15.8,5.55-3.2,12.6-1.3,15.8,4.25s1.3,12.65-4.25,15.8Zm55.5-50.2c0,11.85-6.8,22.1-16.7,27.1l9.25,16c3.2,5.55,1.3,12.6-4.25,15.8-5.55,3.2-12.6,1.3-15.8-4.25l-16-27.7c0-.05-.05-.05-.05-.1l-8.9-15.4c-1.1-1.9.25-4.25,2.45-4.25h19.2c4,0,7.25-3.25,7.25-7.25h0c0-4-3.25-7.25-7.25-7.25h-32.45l-10.45-18.1c-1.25-2.2.3-4.95,2.85-4.95h40.5c16.75,0,30.35,13.6,30.35,30.35h0Z"/></svg>