<?xml version="1.0" encoding="UTF-8"?><svg id="_圖層_1" xmlns="http://www.w3.org/2000/svg" viewBox="0 0 76.09 76.09"><defs><style>.cls-1{fill:#d9524e;}.cls-1,.cls-2{stroke-width:0px;}.cls-2{fill:#fff;}</style></defs><circle class="cls-2" cx="38.04" cy="38.04" r="38.04"/><path class="cls-1" d="m38.04,5.52c-8.39,0-16.04,3.19-21.81,8.39l13.59,23.55c1.39,2.41.56,5.46-1.84,6.85-2.41,1.39-5.46.56-6.85-1.84l-11.6-20.08c-2.56,4.64-4.01,9.97-4.01,15.65,0,17.95,14.57,32.52,32.52,32.52s32.52-14.57,32.52-32.52S56,5.52,38.04,5.52Zm-3.66,49.7c-2.41,1.39-5.46.56-6.85-1.84-1.39-2.41-.56-5.46,1.84-6.85,2.41-1.39,5.46-.56,6.85,1.84s.56,5.49-1.84,6.85Zm24.07-21.77c0,5.14-2.95,9.58-7.24,11.75l4.01,6.94c1.39,2.41.56,5.46-1.84,6.85-2.41,1.39-5.46.56-6.85-1.84l-6.94-12.01s-.02-.02-.02-.04l-3.86-6.68c-.48-.82.11-1.84,1.06-1.84h8.33c1.73,0,3.14-1.41,3.14-3.14h0c0-1.73-1.41-3.14-3.14-3.14h-14.07l-4.53-7.85c-.54-.95.13-2.15,1.24-2.15h17.56c7.26,0,13.16,5.9,13.16,13.16h0Z"/></svg>