<?xml version="1.0" encoding="UTF-8"?><svg id="_圖層_1" xmlns="http://www.w3.org/2000/svg" viewBox="0 0 72.37 72.33"><defs><style>.cls-1{fill:#fff;}</style></defs><path class="cls-1" d="m36.19,0c-9.34,0-17.85,3.54-24.27,9.33l15.13,26.18c1.54,2.68.63,6.08-2.05,7.62-2.68,1.54-6.08.63-7.62-2.05L4.46,18.76C1.62,23.92,0,29.85,0,36.17c0,19.96,16.21,36.17,36.19,36.17s36.19-16.2,36.19-36.17S56.16,0,36.19,0Zm-4.08,55.26c-2.68,1.54-6.08.63-7.62-2.05-1.54-2.68-.63-6.08,2.05-7.62,2.68-1.54,6.08-.63,7.62,2.05,1.54,2.68.63,6.1-2.05,7.62Zm26.78-24.21c0,5.71-3.28,10.66-8.06,13.07l4.46,7.72c1.54,2.68.63,6.08-2.05,7.62-2.68,1.54-6.08.63-7.62-2.05l-7.72-13.36s-.02-.02-.02-.05l-4.29-7.43c-.53-.92.12-2.05,1.18-2.05h9.26c1.93,0,3.5-1.57,3.5-3.5h0c0-1.93-1.57-3.5-3.5-3.5h-15.66l-5.04-8.73c-.6-1.06.14-2.39,1.38-2.39h19.54c8.08,0,14.64,6.56,14.64,14.63h0Z"/></svg>