<?xml version="1.0" encoding="UTF-8"?><svg id="_圖層_1" xmlns="http://www.w3.org/2000/svg" viewBox="0 0 200 200"><defs><style>.cls-1{fill:none;}.cls-1,.cls-2,.cls-3{stroke-width:0px;}.cls-4{opacity:.5;}.cls-2{fill:#4d4d4d;}.cls-3{fill:#e17b5e;}</style></defs><circle class="cls-1" cx="100" cy="100" r="100"/><g class="cls-4"><path class="cls-3" d="m107.59,102.14l3.47,7.78c.34.76,1.06,1.28,1.88,1.37l8.47.89c2,.21,2.81,2.7,1.32,4.05l-6.32,5.7c-.62.56-.89,1.4-.72,2.21l1.77,8.33c.42,1.97-1.7,3.51-3.44,2.5l-7.37-4.25c-.72-.42-1.61-.42-2.33,0l-7.37,4.25c-1.75,1.01-3.86-.53-3.44-2.5l1.77-8.33c.17-.81-.1-1.66-.72-2.21l-6.32-5.7c-1.5-1.35-.69-3.84,1.32-4.05l8.47-.89c.83-.09,1.54-.61,1.88-1.37l3.47-7.78c.82-1.84,3.43-1.84,4.26,0Z"/></g><path class="cls-2" d="m101.78,162.51c-11.71,0-22.72-5.18-30.2-14.21-1.19-1.44-2.29-2.97-3.26-4.56-.5-.83-.25-1.9.58-2.41.82-.51,1.9-.25,2.41.58.89,1.45,1.89,2.85,2.97,4.16,6.81,8.22,16.84,12.94,27.51,12.94,19.69,0,35.71-16.02,35.71-35.71s-16.02-35.71-35.71-35.71-35.71,16.02-35.71,35.71c0,.97-.78,1.75-1.75,1.75s-1.75-.78-1.75-1.75c0-21.62,17.59-39.21,39.21-39.21s39.21,17.59,39.21,39.21-17.59,39.21-39.21,39.21Z"/><path class="cls-2" d="m101.78,152.31c-16,0-29.01-13.01-29.01-29.01s13.01-29.01,29.01-29.01,29.01,13.01,29.01,29.01-13.01,29.01-29.01,29.01Zm0-54.52c-14.07,0-25.51,11.44-25.51,25.51s11.44,25.51,25.51,25.51,25.51-11.44,25.51-25.51-11.44-25.51-25.51-25.51Z"/><path class="cls-2" d="m111.49,140.65c-.7,0-1.4-.18-2.04-.55l-7.38-4.25c-.18-.1-.4-.1-.58,0l-7.38,4.25c-1.41.82-3.11.73-4.44-.23s-1.93-2.55-1.59-4.15l1.77-8.33c.04-.2-.03-.41-.18-.55l-6.32-5.7c-1.21-1.09-1.65-2.74-1.15-4.29.5-1.55,1.83-2.62,3.45-2.8l8.47-.89c.21-.02.38-.15.47-.34l3.47-7.78c.66-1.49,2.09-2.42,3.73-2.42,1.63,0,3.06.93,3.73,2.42l3.47,7.77c.08.19.26.32.47.34l8.47.89c1.62.17,2.95,1.24,3.45,2.8s.06,3.2-1.15,4.29l-6.32,5.7c-.15.14-.22.35-.18.55l1.77,8.33c.34,1.6-.27,3.19-1.59,4.15-.72.52-1.55.79-2.39.79Zm-9.71-8.38c.71,0,1.41.18,2.04.54l7.37,4.25c.28.16.52.05.63-.03.11-.08.29-.27.23-.59l-1.77-8.33c-.3-1.42.18-2.91,1.26-3.88l6.32-5.7c.24-.22.21-.48.16-.61s-.17-.36-.49-.4l-8.47-.89c-1.44-.15-2.71-1.07-3.3-2.4l-3.47-7.77c-.13-.3-.39-.34-.53-.34-.14,0-.4.04-.53.34l-3.47,7.78c-.59,1.33-1.85,2.24-3.3,2.4l-8.46.89c-.33.03-.45.26-.49.4-.04.13-.08.39.16.61l6.32,5.7c1.08.97,1.56,2.46,1.26,3.88l-1.77,8.33c-.07.32.11.51.23.59.11.08.35.2.63.03l7.38-4.25c.63-.36,1.33-.54,2.04-.54Z"/><path class="cls-2" d="m81.42,84.1c-.8,0-1.59-.14-2.34-.43-1.65-.63-2.94-1.88-3.63-3.51l-14.21-33.67c-.85-2.01-.63-4.29.57-6.1,1.2-1.82,3.22-2.9,5.4-2.9h22.44c2.61,0,4.96,1.55,5.97,3.96l12.29,29.12c.84,2,.63,4.27-.57,6.08-1.22,1.83-3.27,2.92-5.48,2.92h-.01c-2.47,0-4.92.22-7.35.65-3.56.63-7.02,1.73-10.28,3.25-.88.41-1.85.62-2.81.62Zm-14.2-43.11c-1.02,0-1.92.49-2.48,1.33-.56.85-.66,1.87-.26,2.81l14.21,33.67c.31.75.9,1.32,1.66,1.61.78.3,1.63.27,2.41-.09,3.54-1.66,7.29-2.84,11.15-3.53,2.64-.47,5.29-.71,7.89-.71h0c1.14,0,2.07-.5,2.65-1.36.56-.83.65-1.85.26-2.78l-12.29-29.12c-.47-1.11-1.55-1.82-2.75-1.82h-22.44Z"/><path class="cls-2" d="m122.14,84.1c-.96,0-1.93-.21-2.81-.62-.51-.24-1.02-.46-1.54-.68-1.53-.64-2.73-1.85-3.4-3.43l-10.16-24.08c-.68-1.6-.68-3.44,0-5.04l3.71-8.8c1.02-2.41,3.36-3.96,5.97-3.96h22.44c2.18,0,4.2,1.08,5.4,2.9,1.2,1.81,1.42,4.1.57,6.1l-14.21,33.67c-.69,1.63-1.97,2.87-3.62,3.51-.75.29-1.55.43-2.35.43Zm-8.23-43.11c-1.2,0-2.28.71-2.75,1.82l-3.71,8.8c-.31.74-.31,1.58,0,2.32l10.16,24.08c.3.71.85,1.28,1.52,1.56.56.24,1.12.48,1.67.74.78.36,1.64.4,2.43.09.75-.29,1.34-.86,1.65-1.6l14.21-33.67c.4-.94.3-1.96-.26-2.81-.56-.85-1.47-1.33-2.49-1.33h-22.44Z"/><circle class="cls-2" cx="64.32" cy="131.52" r="1.75"/></svg>