<?xml version="1.0" encoding="UTF-8"?><svg id="_圖層_1" xmlns="http://www.w3.org/2000/svg" viewBox="0 0 200 200"><defs><style>.cls-1{fill:none;}.cls-1,.cls-2,.cls-3{stroke-width:0px;}.cls-4{opacity:.5;}.cls-2{fill:#4d4d4d;}.cls-3{fill:#e17b5e;}</style></defs><circle class="cls-1" cx="100" cy="100" r="100"/><g class="cls-4"><path class="cls-3" d="m148.89,70.1c0-.19,0-.39-.03-.58l-2.53-17.93c-.14-.99-.66-1.87-1.46-2.47-.8-.6-1.79-.86-2.78-.72l-83.29,11.76s0,0,0,0,0,0,0,0l-17.44,2.46c-2.05.29-3.48,2.19-3.19,4.24l.46,3.24h3.53l-.53-3.73c-.02-.14.08-.26.21-.28l15.71-2.22.88,6.23h3.53l-.95-6.72,81.57-11.52s.02,0,.04,0c.12,0,.23.09.25.22l2.53,17.93s0,.06-.01.09h3.51Z"/><path class="cls-3" d="m125.79,58.98c-.96.13-1.62,1.02-1.49,1.98l1.29,9.14h3.54l-1.36-9.63c-.14-.96-1.02-1.63-1.98-1.49Z"/></g><g class="cls-4"><path class="cls-3" d="m98.14,90.95l2.98,6.67c.29.65.91,1.1,1.62,1.17l7.27.77c1.72.18,2.41,2.32,1.13,3.47l-5.43,4.89c-.53.48-.77,1.2-.62,1.9l1.52,7.15c.36,1.69-1.46,3.01-2.96,2.15l-6.33-3.65c-.62-.36-1.38-.36-2,0l-6.33,3.65c-1.5.86-3.31-.45-2.96-2.15l1.52-7.15c.15-.7-.09-1.42-.62-1.9l-5.43-4.89c-1.29-1.16-.59-3.29,1.13-3.47l7.27-.77c.71-.08,1.33-.52,1.62-1.17l2.98-6.67c.7-1.58,2.95-1.58,3.65,0Z"/></g><path class="cls-2" d="m151.67,143.28H49.92c-2.07,0-3.75-1.68-3.75-3.75v-18.11c0-1.81,1.28-3.36,3.04-3.68,3.47-.62,5.98-3.63,5.98-7.16s-2.52-6.54-5.98-7.16c-1.76-.31-3.04-1.86-3.04-3.68v-18.11c0-2.07,1.68-3.75,3.75-3.75h101.75c2.07,0,3.75,1.68,3.75,3.75v18.11c0,1.82-1.28,3.36-3.04,3.68-3.46.62-5.98,3.63-5.98,7.16s2.52,6.54,5.98,7.16c1.76.32,3.04,1.86,3.04,3.68v18.11c0,2.07-1.68,3.75-3.75,3.75Zm-101.75-61.89c-.14,0-.25.11-.25.25v18.11c0,.11.07.22.16.23,5.14.92,8.86,5.38,8.86,10.6s-3.73,9.68-8.86,10.6c-.09.02-.16.12-.16.23v18.11c0,.14.11.25.25.25h101.75c.14,0,.25-.11.25-.25v-18.11c0-.11-.07-.22-.16-.23-5.13-.92-8.86-5.38-8.86-10.6s3.73-9.68,8.86-10.6c.09-.02.16-.12.16-.23v-18.11c0-.14-.11-.25-.25-.25H49.92Z"/><path class="cls-2" d="m67.54,127.5c-.97,0-1.75-.78-1.75-1.75v-46.11c0-.97.78-1.75,1.75-1.75s1.75.78,1.75,1.75v46.11c0,.97-.78,1.75-1.75,1.75Z"/><path class="cls-2" d="m67.54,143.28c-.97,0-1.75-.78-1.75-1.75v-8.46c0-.97.78-1.75,1.75-1.75s1.75.78,1.75,1.75v8.46c0,.97-.78,1.75-1.75,1.75Z"/><path class="cls-2" d="m134.05,143.28c-.97,0-1.75-.78-1.75-1.75v-43.24c0-.97.78-1.75,1.75-1.75s1.75.78,1.75,1.75v43.24c0,.97-.78,1.75-1.75,1.75Z"/><path class="cls-2" d="m109.13,125.81c-.64,0-1.29-.17-1.88-.51l-6.33-3.65c-.08-.04-.17-.04-.25,0l-6.33,3.65c-1.3.75-2.86.67-4.08-.21-1.21-.88-1.78-2.34-1.46-3.81l1.52-7.15c.02-.09-.01-.18-.08-.24l-5.43-4.89c-1.12-1.01-1.52-2.52-1.06-3.95s1.68-2.41,3.17-2.57l7.27-.77c.09,0,.17-.07.2-.15l2.98-6.67c.61-1.37,1.92-2.22,3.42-2.22h0c1.5,0,2.81.85,3.42,2.22l2.98,6.67c.04.08.11.14.2.15l7.27.77c1.49.16,2.71,1.14,3.17,2.57.46,1.43.06,2.94-1.06,3.95l-5.43,4.89c-.07.06-.1.15-.08.24l1.52,7.15c.31,1.47-.25,2.93-1.46,3.81-.66.48-1.43.72-2.2.72Zm-8.33-7.69c.65,0,1.29.17,1.87.5l6.33,3.65s.14.08.27-.01c.13-.1.11-.21.1-.25l-1.52-7.15c-.28-1.31.17-2.67,1.16-3.56l5.43-4.89s.12-.11.07-.26c-.05-.15-.16-.17-.21-.17l-7.27-.77c-1.32-.14-2.49-.98-3.03-2.2l-2.98-6.68s-.07-.15-.23-.15h0c-.16,0-.21.1-.23.15l-2.98,6.67c-.54,1.22-1.71,2.06-3.03,2.2l-7.27.77s-.16.02-.21.17c-.05.16.03.23.07.26l5.43,4.89c.99.89,1.43,2.26,1.16,3.56l-1.52,7.15s-.03.16.1.25c.13.1.23.04.27.01l6.33-3.65c.58-.33,1.23-.5,1.87-.5Z"/><path class="cls-1" d="m63.21,65.97l-15.71,2.22c-.14.02-.23.15-.21.28l.53,3.73h16.28l-.88-6.23Z"/><path class="cls-1" d="m148.53,54.18c-.02-.12-.12-.22-.25-.22-.01,0-.02,0-.04,0l-81.57,11.52.95,6.72h63.63l-1.29-9.14c-.14-.96.53-1.84,1.49-1.98.95-.14,1.84.53,1.98,1.49l1.36,9.63h16.25s.02-.06.01-.09l-2.53-17.93Z"/><path class="cls-2" d="m66.43,63.75l.24,1.73,81.57-11.52s.02,0,.04,0c.12,0,.23.09.25.22l2.53,17.93s0,.06-.01.09h3.51c0-.19,0-.39-.03-.58l-2.53-17.93c-.14-.99-.66-1.87-1.46-2.47-.8-.6-1.79-.86-2.78-.72l-83.29,11.76c.96-.13,1.84.53,1.97,1.49Z"/><path class="cls-2" d="m47.29,68.47c-.02-.14.08-.26.21-.28l15.71-2.22-.24-1.73c-.13-.95.53-1.84,1.48-1.98l-17.44,2.46c-2.05.29-3.48,2.19-3.19,4.24l.46,3.24h3.53l-.53-3.73Z"/><polygon class="cls-2" points="64.46 62.26 64.45 62.26 64.46 62.26 64.46 62.26"/><polygon class="cls-2" points="67.63 72.2 66.68 65.48 63.21 65.97 64.09 72.2 67.63 72.2"/><path class="cls-2" d="m62.97,64.24l.24,1.73,3.47-.49-.24-1.73c-.13-.95-1.01-1.62-1.97-1.49h-.01c-.95.14-1.62,1.02-1.48,1.98Z"/><path class="cls-2" d="m133.43,62.57c-.14-.96-1.02-1.63-1.98-1.49-.96.13-1.62,1.02-1.49,1.98l1.29,9.14h3.54l-1.36-9.63Z"/><circle class="cls-2" cx="134.05" cy="90.75" r="1.75"/></svg>