<?xml version="1.0" encoding="UTF-8"?><svg id="_圖層_1" xmlns="http://www.w3.org/2000/svg" viewBox="0 0 260 260"><defs><style>.cls-1{fill:none;}.cls-1,.cls-2,.cls-3,.cls-4{stroke-width:0px;}.cls-2,.cls-5{opacity:.5;}.cls-2,.cls-4{fill:#e17b5e;}.cls-3{fill:#4d4d4d;}</style></defs><circle class="cls-1" cx="130" cy="130" r="130"/><g class="cls-5"><path class="cls-4" d="m174.33,96.78c-2.27,0-4.54-.94-6.15-2.79-2.49-2.83-5.26-5.44-8.24-7.76-10.46-8.12-23.01-12.42-36.29-12.42-4.52,0-8.19-3.67-8.19-8.19s3.66-8.19,8.19-8.19c16.95,0,32.98,5.49,46.34,15.86,3.79,2.95,7.33,6.27,10.5,9.89,2.98,3.4,2.65,8.57-.75,11.55-1.55,1.36-3.48,2.03-5.4,2.03Z"/></g><g class="cls-5"><circle class="cls-4" cx="187.2" cy="179.51" r="18.8"/></g><g class="cls-5"><circle class="cls-4" cx="187.2" cy="137.69" r="10.85"/></g><g class="cls-5"><path class="cls-4" d="m89.45,133.59c10.25,1.12,20.47,9.25,30.77,2.03,3.39-2.38,5.94-5.73,8.84-8.68,6.61-6.69,16.67-8.77,24.58-2.84,3.95,2.96,6.69,7.31,8.45,11.92,3.7,9.67,3.07,21.26-3.01,29.64-6.08,8.37-16.41,12.43-26.43,14.98-9.41,2.39-19.23,3.82-28.85,2.49-9.62-1.33-19.09-5.66-25.21-13.2-7.15-8.8-10.56-29.82,2.57-35.28,2.77-1.15,5.54-1.36,8.3-1.06Z"/></g><circle class="cls-3" cx="160.08" cy="189.6" r="2"/><path class="cls-3" d="m123.41,202.55c-38.27,0-69.41-31.13-69.41-69.41s31.14-69.41,69.41-69.41,69.41,31.13,69.41,69.41c0,19.97-8.62,38.99-23.64,52.18-.83.73-2.09.65-2.82-.18-.73-.83-.65-2.09.18-2.82,14.16-12.43,22.28-30.35,22.28-49.17,0-36.06-29.34-65.41-65.41-65.41s-65.41,29.34-65.41,65.41,29.34,65.41,65.41,65.41c9.7,0,19.04-2.07,27.75-6.16,1-.47,2.19-.04,2.66.96.47,1,.04,2.19-.96,2.66-9.25,4.34-19.16,6.54-29.45,6.54Z"/><path class="cls-3" d="m116.57,178.9c-2.74,0-5.38-.18-7.96-.54-11.03-1.53-20.44-6.47-26.49-13.92-4.81-5.92-8.38-17.63-6.02-26.98,1.38-5.49,4.63-9.43,9.38-11.41,2.83-1.18,5.87-1.57,9.28-1.2h0c3.42.37,6.78,1.46,10.04,2.52,6.75,2.18,13.12,4.25,19.36-.14,2.2-1.54,4.03-3.55,5.98-5.68.83-.91,1.7-1.86,2.59-2.77,7.83-7.93,19.02-9.18,27.2-3.03,3.88,2.91,7.03,7.34,9.12,12.8,4.18,10.93,2.93,23.01-3.26,31.53-6.98,9.61-19.07,13.59-27.56,15.74-8.1,2.06-15.16,3.07-21.66,3.07Zm-24.22-50.17c-1.93,0-3.69.34-5.34,1.03-3.59,1.49-5.96,4.42-7.03,8.69-2.02,8.02,1.15,18.43,5.25,23.48,5.33,6.56,14.06,11.11,23.94,12.48,8.15,1.13,17.07.35,28.08-2.44,7.89-2,19.09-5.66,25.31-14.21,5.4-7.44,6.46-18.07,2.76-27.75-1.82-4.76-4.51-8.57-7.79-11.03-6.53-4.91-15.56-3.83-21.95,2.64-.84.85-1.68,1.77-2.49,2.65-2,2.2-4.08,4.46-6.63,6.26-7.88,5.53-15.86,2.94-22.89.67-3.2-1.04-6.23-2.02-9.24-2.35h0c-.68-.07-1.33-.11-1.97-.11Z"/><path class="cls-3" d="m109.04,175.79c-.96,0-1.81-.69-1.97-1.67-2.72-16.21,9.32-32.53,27.41-37.16,13.22-3.38,26.77.03,35.37,8.91.77.79.75,2.06-.04,2.83s-2.06.75-2.83-.04c-7.6-7.85-19.68-10.85-31.51-7.82-16.09,4.12-26.83,18.45-24.45,32.62.18,1.09-.55,2.12-1.64,2.3-.11.02-.22.03-.33.03Z"/><polygon class="cls-2" points="69.15 35.12 75.59 46.89 87.36 53.33 75.59 59.77 69.15 71.54 62.71 59.77 50.94 53.33 62.71 46.89 69.15 35.12"/><polygon class="cls-2" points="93.09 53.33 95.12 57.04 98.82 59.06 95.12 61.09 93.09 64.79 91.07 61.09 87.36 59.06 91.07 57.04 93.09 53.33"/></svg>