<?xml version="1.0" encoding="UTF-8"?><svg id="_圖層_1" xmlns="http://www.w3.org/2000/svg" viewBox="0 0 200 200"><defs><style>.cls-1{fill:none;}.cls-1,.cls-2,.cls-3{stroke-width:0px;}.cls-4{opacity:.5;}.cls-2{fill:#4d4d4d;}.cls-3{fill:#e17b5e;}</style></defs><circle class="cls-1" cx="100" cy="100" r="100"/><g class="cls-4"><path class="cls-3" d="m136.97,64.61c-1.66,0-3,1.34-3,3,0,11.27-6.25,21.62-15.78,26.51,1.91,1.16,3.6,2.52,5.04,4.03,10.19-6.31,16.74-17.96,16.74-30.54,0-1.66-1.34-3-3-3Z"/></g><g class="cls-4"><path class="cls-3" d="m77.62,100.84c.96-1.42,2.12-2.74,3.46-3.94-.01-.03-.02-.07-.03-.1.03.02.06.03.09.05,1.51-1.34,3.23-2.54,5.13-3.55-.27-.43-.64-.81-1.13-1.07-5.61-2.98-9.09-8.95-9.09-15.58,0-4.11,1.38-8.1,3.88-11.23,1.26-1.57,1.44-3.73.47-5.5-.89-1.63-2.57-2.61-4.42-2.6l2.38-14.31c.33-1.99-.55-3.96-2.25-5.04-1.72-1.08-3.91-1.03-5.58.14-9.46,6.61-15.11,17.63-15.11,29.5,0,14.54,8.73,27.83,21.72,33.09.16.06.32.11.48.14Zm-16.2-33.23c0-9.06,3.92-17.52,10.61-23.1l-2.61,15.69c-.15.92.13,1.87.78,2.55s1.56,1.02,2.5.93l1.2-.13c-2.49,3.85-3.85,8.42-3.85,13.1,0,7,2.94,13.47,7.93,17.86-9.96-4.71-16.55-15.32-16.55-26.9Z"/></g><g class="cls-4"><path class="cls-3" d="m137.23,53.65c-2.6-6.32-6.88-11.7-12.37-15.53-1.67-1.17-3.86-1.22-5.58-.14-1.7,1.07-2.58,3.05-2.25,5.04l2.38,14.31c-1.84-.03-3.53.97-4.42,2.6-.97,1.77-.78,3.92.47,5.5,2.5,3.13,3.88,7.12,3.88,11.23,0,5.96-2.83,11.39-7.49,14.59,2.2.71,4.26,1.64,6.12,2.75,4.64-4.37,7.37-10.61,7.37-17.34,0-4.68-1.35-9.25-3.85-13.1l1.2.13c.93.09,1.86-.24,2.5-.93.64-.68.93-1.62.78-2.55l-2.61-15.69c3.62,3.02,6.48,6.93,8.32,11.41.63,1.53,2.38,2.26,3.92,1.64,1.53-.63,2.26-2.38,1.63-3.92Z"/></g><path class="cls-2" d="m103.05,136.96c-15.8,0-28.66-10.08-28.66-22.48s12.86-22.48,28.66-22.48,28.66,10.08,28.66,22.48-12.86,22.48-28.66,22.48Zm0-41.45c-13.87,0-25.16,8.51-25.16,18.98s11.29,18.98,25.16,18.98,25.16-8.51,25.16-18.98-11.29-18.98-25.16-18.98Z"/><path class="cls-2" d="m88.05,98.51c-.97,0-1.75-.78-1.75-1.75v-10.19c0-3.62,2.95-6.57,6.57-6.57s6.57,2.95,6.57,6.57v7.2c0,.97-.78,1.75-1.75,1.75s-1.75-.78-1.75-1.75v-7.2c0-1.69-1.38-3.07-3.07-3.07s-3.07,1.38-3.07,3.07v10.19c0,.97-.78,1.75-1.75,1.75Z"/><path class="cls-2" d="m118.05,98.51c-.97,0-1.75-.78-1.75-1.75v-10.19c0-1.69-1.38-3.07-3.07-3.07s-3.07,1.38-3.07,3.07v7.2c0,.97-.78,1.75-1.75,1.75s-1.75-.78-1.75-1.75v-7.2c0-3.62,2.95-6.57,6.57-6.57s6.57,2.95,6.57,6.57v10.19c0,.97-.78,1.75-1.75,1.75Z"/><path class="cls-2" d="m43.81,120.45c-.97,0-1.75-.78-1.75-1.75v-8.35c0-.82.27-1.63.77-2.28l6.17-8.08c.49-.64,1.18-1.11,1.96-1.33l13.55-3.83c1.06-.3,2.19-.12,3.11.49l12.42,8.32c.8.54,1.02,1.62.48,2.43-.54.8-1.62,1.02-2.43.48l-12.42-8.32c-.06-.04-.14-.05-.2-.03l-13.55,3.83c-.05.02-.1.05-.13.09l-6.17,8.08s-.05.1-.05.15v8.35c0,.97-.78,1.75-1.75,1.75Z"/><path class="cls-2" d="m52.67,128.6c-.82,0-1.55-.58-1.72-1.41l-1.21-6.17c-.14-.73-.07-1.48.22-2.16l3.78-9.12c.37-.9,1.07-1.61,1.97-2l8.24-3.59c1.17-.51,2.51-.4,3.58.32l9.48,6.31c.8.54,1.02,1.62.49,2.43-.54.8-1.62,1.02-2.43.49l-9.48-6.31c-.07-.05-.16-.06-.24-.02l-8.24,3.59c-.06.03-.11.07-.13.13l-3.78,9.12s-.02.1-.01.14l1.21,6.17c.19.95-.43,1.87-1.38,2.05-.11.02-.23.03-.34.03Z"/><path class="cls-2" d="m62.76,137.69c-.67,0-1.3-.38-1.6-1.03l-3.32-7.36c-.28-.62-.39-1.31-.31-1.98l.78-6.52c.18-1.49,1.22-2.73,2.67-3.15l7.22-2.12c.85-.25,1.75-.19,2.56.16l5.48,2.41c.88.39,1.29,1.42.9,2.31-.39.88-1.42,1.29-2.31.9l-5.48-2.41c-.05-.02-.12-.03-.17-.01l-7.22,2.12c-.1.03-.17.11-.18.21l-.78,6.52s0,.09.02.13l3.32,7.36c.4.88,0,1.92-.88,2.31-.23.1-.48.15-.72.15Z"/><path class="cls-2" d="m162.29,120.45c-.97,0-1.75-.78-1.75-1.75v-8.35c0-.05-.02-.11-.05-.15l-6.17-8.08s-.08-.07-.13-.09l-13.54-3.83c-.07-.02-.15,0-.21.03l-12.42,8.32c-.8.54-1.89.32-2.43-.48-.54-.8-.32-1.89.48-2.43l12.42-8.32c.92-.61,2.05-.79,3.11-.49l13.54,3.83c.78.22,1.47.69,1.96,1.33l6.17,8.08c.5.65.77,1.46.77,2.28v8.35c0,.97-.78,1.75-1.75,1.75Z"/><path class="cls-2" d="m153.42,128.6c-.11,0-.23-.01-.34-.03-.95-.19-1.57-1.11-1.38-2.05l1.21-6.17s0-.1-.01-.14l-3.78-9.12c-.02-.06-.07-.11-.13-.13l-8.24-3.6c-.08-.03-.17-.03-.24.02l-9.48,6.31c-.8.54-1.89.32-2.43-.49-.54-.8-.32-1.89.49-2.43l9.48-6.31c1.07-.71,2.4-.83,3.58-.31l8.24,3.59c.89.39,1.59,1.1,1.96,2l3.78,9.12c.28.69.36,1.43.22,2.16l-1.21,6.17c-.16.83-.9,1.41-1.72,1.41Z"/><path class="cls-2" d="m143.33,137.69c-.24,0-.48-.05-.72-.15-.88-.4-1.27-1.43-.88-2.31l3.32-7.36s.03-.09.02-.13l-.78-6.52c-.01-.1-.08-.18-.18-.21l-7.22-2.12c-.06-.02-.12-.01-.17.01l-5.48,2.4c-.89.39-1.92-.01-2.31-.9-.39-.88.01-1.92.9-2.31l5.48-2.41c.81-.35,1.72-.41,2.56-.16l7.22,2.12c1.44.42,2.49,1.66,2.67,3.15l.78,6.52c.08.68-.02,1.36-.3,1.98l-3.32,7.36c-.29.65-.93,1.03-1.6,1.03Z"/><path class="cls-2" d="m88.26,152.03c-.27,0-.55-.06-.8-.2l-8.64-4.48c-.92-.48-1.6-1.32-1.89-2.32l-2.02-7.2c-.49-1.75.34-3.59,1.98-4.39l8.32-4.03c.87-.42,1.92-.06,2.34.81.42.87.06,1.92-.81,2.34l-8.33,4.03c-.11.05-.16.17-.13.29l2.02,7.2c.02.07.06.12.13.15l8.64,4.48c.86.44,1.19,1.5.75,2.36-.31.6-.92.95-1.56.95Z"/><path class="cls-2" d="m117.84,152.03c-.63,0-1.24-.34-1.56-.95-.44-.86-.11-1.91.75-2.36l8.64-4.48c.06-.03.11-.09.13-.16l2.02-7.2c.03-.12-.02-.24-.13-.29l-8.33-4.03c-.87-.42-1.23-1.47-.81-2.34s1.47-1.23,2.34-.81l8.33,4.03c1.64.79,2.47,2.64,1.98,4.39l-2.02,7.2c-.28,1-.97,1.84-1.89,2.32l-8.64,4.48c-.26.13-.53.2-.8.2Z"/><path class="cls-2" d="m83.62,101.19c-.22,0-.44-.04-.66-.13-12.52-5.06-20.94-17.89-20.94-31.93,0-11.46,5.45-22.1,14.58-28.47,1.26-.88,2.9-.92,4.19-.11,1.29.82,1.94,2.26,1.69,3.77l-2.64,15.91,1.14-.12c1.51-.17,2.96.6,3.69,1.93.73,1.32.59,2.94-.35,4.12-2.68,3.35-4.16,7.62-4.16,12.01,0,7.09,3.74,13.48,9.75,16.68.85.45,1.18,1.51.72,2.37-.45.85-1.51,1.18-2.37.72-7.16-3.81-11.61-11.39-11.61-19.77,0-5.18,1.75-10.22,4.92-14.2.03-.04.09-.11.02-.25-.08-.15-.2-.14-.25-.13l-3.42.36c-.55.06-1.08-.14-1.46-.54-.38-.4-.54-.95-.45-1.49l3.02-18.18c0-.06.03-.16-.1-.24-.16-.1-.28-.01-.32.02-8.19,5.72-13.08,15.29-13.08,25.6,0,12.62,7.54,24.15,18.75,28.68.9.36,1.33,1.38.97,2.28-.28.68-.93,1.09-1.62,1.09Z"/><path class="cls-2" d="m117.01,98.15c-.63,0-1.23-.34-1.55-.93-.45-.85-.13-1.91.72-2.37,6.02-3.2,9.75-9.59,9.75-16.68,0-4.39-1.48-8.66-4.16-12.01-.94-1.18-1.08-2.79-.35-4.12.73-1.33,2.18-2.1,3.69-1.93l1.14.12-2.64-15.91c-.25-1.51.4-2.96,1.69-3.77,1.29-.81,2.94-.77,4.19.11,5.3,3.7,9.43,8.88,11.93,14.98.37.89-.06,1.92-.95,2.28-.89.37-1.92-.06-2.28-.95-2.25-5.48-5.95-10.13-10.7-13.44-.04-.03-.17-.11-.32-.02-.13.08-.11.18-.1.24l3.02,18.18c.09.54-.08,1.09-.45,1.49s-.92.6-1.46.54l-3.42-.36s-.17-.02-.25.13c-.07.13-.01.21.02.25,3.18,3.97,4.92,9.01,4.92,14.2,0,8.38-4.45,15.96-11.61,19.77-.26.14-.54.21-.82.21Z"/><path class="cls-2" d="m122.48,101.19c-.69,0-1.35-.41-1.62-1.09-.36-.9.07-1.92.97-2.28,11.21-4.53,18.75-16.06,18.75-28.68,0-.97.78-1.75,1.75-1.75s1.75.78,1.75,1.75c0,14.03-8.41,26.87-20.94,31.93-.21.09-.44.13-.66.13Z"/><circle class="cls-2" cx="141.24" cy="62.49" r="1.75"/></svg>