<?xml version="1.0" encoding="UTF-8"?><svg id="_圖層_1" xmlns="http://www.w3.org/2000/svg" viewBox="0 0 200 200"><defs><style>.cls-1{fill:none;}.cls-1,.cls-2,.cls-3{stroke-width:0px;}.cls-4{opacity:.5;}.cls-2{fill:#4d4d4d;}.cls-3{fill:#e17b5e;}</style></defs><circle class="cls-1" cx="100" cy="100" r="100"/><g class="cls-4"><path class="cls-3" d="m64.81,100v45.35c0,6.53,5.34,11.87,11.87,11.87h39.89c6.53,0,11.87-5.34,11.87-11.87v-45.35h-63.63Z"/></g><path class="cls-2" d="m120.99,163.91h-39.89c-7.51,0-13.62-6.11-13.62-13.62v-55.21c0-7.51,6.11-13.62,13.62-13.62h39.89c7.51,0,13.62,6.11,13.62,13.62v55.21c0,7.51-6.11,13.62-13.62,13.62Zm-39.89-78.96c-5.58,0-10.12,4.54-10.12,10.12v55.21c0,5.58,4.54,10.12,10.12,10.12h39.89c5.58,0,10.12-4.54,10.12-10.12v-55.21c0-5.58-4.54-10.12-10.12-10.12h-39.89Z"/><path class="cls-2" d="m113.12,108.63h-43.89c-.97,0-1.75-.78-1.75-1.75s.78-1.75,1.75-1.75h43.89c.97,0,1.75.78,1.75,1.75s-.78,1.75-1.75,1.75Z"/><path class="cls-2" d="m111.87,125.59h-23.92c-.97,0-1.75-.78-1.75-1.75s.78-1.75,1.75-1.75h23.92c.97,0,1.75.78,1.75,1.75s-.78,1.75-1.75,1.75Z"/><path class="cls-2" d="m93.15,142.54h-23.92c-.97,0-1.75-.78-1.75-1.75s.78-1.75,1.75-1.75h23.92c.97,0,1.75.78,1.75,1.75s-.78,1.75-1.75,1.75Z"/><circle class="cls-2" cx="119.16" cy="106.88" r="1.75"/><circle class="cls-2" cx="81.22" cy="123.84" r="1.75"/><path class="cls-2" d="m104.03,142.54h-4.12c-.97,0-1.75-.78-1.75-1.75s.78-1.75,1.75-1.75h4.12c.97,0,1.75.78,1.75,1.75s-.78,1.75-1.75,1.75Z"/><path class="cls-2" d="m74.5,125.59h-4.12c-.97,0-1.75-.78-1.75-1.75s.78-1.75,1.75-1.75h4.12c.97,0,1.75.78,1.75,1.75s-.78,1.75-1.75,1.75Z"/><path class="cls-2" d="m125.82,84.95h-49.54c-4.85,0-8.79-3.95-8.79-8.79v-.15c0-4.85,3.95-8.79,8.79-8.79h5.65c.97,0,1.75.78,1.75,1.75s-.78,1.75-1.75,1.75h-5.65c-2.92,0-5.29,2.38-5.29,5.29v.15c0,2.92,2.38,5.29,5.29,5.29h49.54c2.92,0,5.29-2.38,5.29-5.29v-.15c0-2.92-2.38-5.29-5.29-5.29h-34.64c-.97,0-1.75-.78-1.75-1.75s.78-1.75,1.75-1.75h34.64c4.85,0,8.79,3.95,8.79,8.79v.15c0,4.85-3.95,8.79-8.79,8.79Z"/><path class="cls-2" d="m127.64,70.7c-.97,0-1.75-.78-1.75-1.75,0-7.24-7.1-13.85-17.26-16.08-.8-.18-1.38-.89-1.38-1.71v-10.82c0-3.41-2.77-6.18-6.18-6.18s-6.18,2.77-6.18,6.18v10.82c0,.82-.57,1.53-1.38,1.71-10.16,2.23-17.26,8.84-17.26,16.08,0,.97-.78,1.75-1.75,1.75s-1.75-.78-1.75-1.75c0-8.69,7.43-16.26,18.63-19.17v-9.44c0-5.34,4.34-9.68,9.68-9.68s9.68,4.34,9.68,9.68v9.44c11.2,2.9,18.63,10.48,18.63,19.17,0,.97-.78,1.75-1.75,1.75Z"/></svg>