<?xml version="1.0" encoding="UTF-8"?><svg id="_圖層_1" xmlns="http://www.w3.org/2000/svg" viewBox="0 0 200 200"><defs><style>.cls-1{fill:none;}.cls-1,.cls-2,.cls-3{stroke-width:0px;}.cls-4{opacity:.5;}.cls-2{fill:#4d4d4d;}.cls-3{fill:#e17b5e;}</style></defs><circle class="cls-1" cx="100" cy="100" r="100"/><g class="cls-4"><rect class="cls-3" x="55.08" y="86.94" width="13.3" height="46.56" rx="5" ry="5"/></g><g class="cls-4"><rect class="cls-3" x="119.91" y="86.94" width="13.3" height="46.56" rx="5" ry="5" transform="translate(253.13 220.44) rotate(-180)"/></g><circle class="cls-2" cx="62.86" cy="66.75" r="1.75"/><path class="cls-2" d="m148.44,97.11c-.93,0-1.71-.74-1.75-1.68-1.05-25-21.49-44.58-46.54-44.58-11.56,0-22.65,4.27-31.22,12.01-.72.65-1.82.59-2.47-.12-.65-.72-.59-1.82.12-2.47,9.21-8.33,21.14-12.92,33.57-12.92,26.92,0,48.9,21.06,50.03,47.94.04.96-.71,1.78-1.67,1.82-.02,0-.05,0-.08,0Z"/><path class="cls-2" d="m51.87,97.13s-.05,0-.07,0c-.97-.04-1.72-.86-1.68-1.82.34-8.04,2.64-15.97,6.66-22.92.48-.84,1.55-1.12,2.39-.64.84.48,1.12,1.55.64,2.39-3.74,6.46-5.88,13.83-6.19,21.31-.04.94-.81,1.68-1.75,1.68Z"/><path class="cls-2" d="m42.97,100.95c-.97,0-1.75-.78-1.75-1.75v-1.77c0-32.5,26.44-58.95,58.95-58.95s58.95,26.45,58.95,58.95v1.24c0,.97-.78,1.75-1.75,1.75s-1.75-.78-1.75-1.75v-1.24c0-30.58-24.88-55.45-55.45-55.45s-55.45,24.88-55.45,55.45v1.77c0,.97-.78,1.75-1.75,1.75Z"/><path class="cls-2" d="m52.97,136.67c-.13,0-.26,0-.39-.02-11.03-1.2-19.34-10.47-19.34-21.58s8.31-20.38,19.34-21.58c1.04-.11,2.08.23,2.86.93.8.71,1.25,1.74,1.25,2.81v35.68c0,1.07-.46,2.09-1.25,2.81-.68.61-1.57.95-2.47.95Zm0-39.69s-.02,0-.02,0c-9.24,1-16.22,8.78-16.22,18.09s6.97,17.09,16.22,18.1c.02,0,.08,0,.14-.05.03-.02.09-.09.09-.2v-35.68c0-.11-.06-.18-.09-.2-.05-.05-.1-.05-.13-.05Z"/><path class="cls-2" d="m69.41,140.32h-3.3c-3.72,0-6.75-3.03-6.75-6.75v-36.56c0-3.72,3.03-6.75,6.75-6.75h3.3c3.72,0,6.75,3.03,6.75,6.75v36.56c0,3.72-3.03,6.75-6.75,6.75Zm-3.3-46.56c-1.79,0-3.25,1.46-3.25,3.25v36.56c0,1.79,1.46,3.25,3.25,3.25h3.3c1.79,0,3.25-1.46,3.25-3.25v-36.56c0-1.79-1.46-3.25-3.25-3.25h-3.3Z"/><path class="cls-2" d="m147.38,136.67c-.9,0-1.79-.34-2.47-.95-.8-.71-1.25-1.74-1.25-2.81v-35.68c0-1.07.46-2.09,1.25-2.81.78-.7,1.82-1.04,2.86-.93,11.03,1.2,19.34,10.47,19.34,21.58s-8.31,20.38-19.34,21.58c-.13.01-.26.02-.39.02Zm0-39.69s-.07,0-.12.05c-.03.02-.09.09-.09.2v35.68c0,.11.06.18.09.2.07.06.13.06.15.05,9.24-1,16.22-8.78,16.22-18.1s-6.97-17.09-16.22-18.09c0,0-.01,0-.02,0Z"/><path class="cls-2" d="m134.24,140.32h-3.3c-3.72,0-6.75-3.03-6.75-6.75v-36.56c0-3.72,3.03-6.75,6.75-6.75h3.3c3.72,0,6.75,3.03,6.75,6.75v36.56c0,3.72-3.03,6.75-6.75,6.75Zm-3.3-46.56c-1.79,0-3.25,1.46-3.25,3.25v36.56c0,1.79,1.46,3.25,3.25,3.25h3.3c1.79,0,3.25-1.46,3.25-3.25v-36.56c0-1.79-1.46-3.25-3.25-3.25h-3.3Z"/></svg>