<?xml version="1.0" encoding="UTF-8"?><svg id="_圖層_1" xmlns="http://www.w3.org/2000/svg" viewBox="0 0 200 200"><defs><style>.cls-1{fill:none;}.cls-1,.cls-2,.cls-3{stroke-width:0px;}.cls-4{opacity:.5;}.cls-2{fill:#4d4d4d;}.cls-3{fill:#e17b5e;}</style></defs><circle class="cls-1" cx="100" cy="100" r="100"/><g class="cls-4"><path class="cls-3" d="m67.36,31.06c-24.66,0-44.66,19.99-44.66,44.66,0,9.6,3.03,18.5,8.19,25.79l16.16,14c6.09,3.12,12.99,4.87,20.31,4.87,24.66,0,44.66-19.99,44.66-44.66s-19.99-44.66-44.66-44.66Zm0,68.9c-13.39,0-24.24-10.85-24.24-24.24s10.85-24.24,24.24-24.24,24.24,10.85,24.24,24.24-10.85,24.24-24.24,24.24Z"/></g><path class="cls-2" d="m72.54,126.12c-7.43,0-14.53-1.7-21.1-5.07-.86-.44-1.2-1.49-.76-2.35.44-.86,1.49-1.2,2.35-.76,6.07,3.11,12.64,4.68,19.51,4.68,23.66,0,42.91-19.25,42.91-42.91s-19.25-42.91-42.91-42.91-42.91,19.25-42.91,42.91c0,8.94,2.72,17.51,7.87,24.77.56.79.37,1.88-.42,2.44-.79.56-1.88.37-2.44-.42-5.57-7.86-8.51-17.13-8.51-26.8,0-25.59,20.82-46.41,46.41-46.41s46.41,20.82,46.41,46.41-20.82,46.41-46.41,46.41Z"/><path class="cls-2" d="m72.54,105.7c-14.33,0-25.99-11.66-25.99-25.99s11.66-25.99,25.99-25.99,25.99,11.66,25.99,25.99-11.66,25.99-25.99,25.99Zm0-48.48c-12.4,0-22.49,10.09-22.49,22.49s10.09,22.49,22.49,22.49,22.49-10.09,22.49-22.49-10.09-22.49-22.49-22.49Z"/><path class="cls-2" d="m97.15,58.84c-.47,0-.95-.19-1.29-.57-2.41-2.64-5.25-4.79-8.44-6.38-.86-.43-1.22-1.48-.78-2.35.43-.86,1.48-1.21,2.35-.78,3.57,1.79,6.75,4.19,9.46,7.15.65.71.6,1.82-.11,2.47-.34.31-.76.46-1.18.46Z"/><path class="cls-2" d="m72.54,143.64c-.97,0-1.75-.78-1.75-1.75v-17.52c0-.97.78-1.75,1.75-1.75s1.75.78,1.75,1.75v17.52c0,.97-.78,1.75-1.75,1.75Z"/><path class="cls-2" d="m72.54,166.69c-3.81,0-6.9-3.1-6.9-6.9v-12.74c0-3.81,3.1-6.9,6.9-6.9s6.9,3.1,6.9,6.9v12.74c0,3.81-3.1,6.9-6.9,6.9Zm0-23.05c-1.88,0-3.4,1.53-3.4,3.4v12.74c0,1.88,1.53,3.4,3.4,3.4s3.4-1.53,3.4-3.4v-12.74c0-1.88-1.53-3.4-3.4-3.4Z"/><path class="cls-2" d="m142.64,143.64c-.97,0-1.75-.78-1.75-1.75v-62.18c0-.97.78-1.75,1.75-1.75s1.75.78,1.75,1.75v62.18c0,.97-.78,1.75-1.75,1.75Z"/><path class="cls-2" d="m142.64,166.69c-3.81,0-6.9-3.1-6.9-6.9v-12.74c0-3.81,3.1-6.9,6.9-6.9s6.9,3.1,6.9,6.9v12.74c0,3.81-3.1,6.9-6.9,6.9Zm0-23.05c-1.88,0-3.4,1.53-3.4,3.4v12.74c0,1.88,1.53,3.4,3.4,3.4h0c1.88,0,3.4-1.53,3.4-3.4v-12.74c0-1.88-1.53-3.4-3.4-3.4Z"/><circle class="cls-2" cx="101.38" cy="62.52" r="1.75"/><path class="cls-2" d="m156.6,81.41h-27.92c-.93,0-1.7-.73-1.75-1.66l-1.78-34.43c-.08-1.59.48-3.1,1.57-4.26,1.1-1.15,2.58-1.79,4.17-1.79h23.5c1.59,0,3.07.64,4.17,1.79,1.1,1.16,1.66,2.67,1.57,4.26l-1.78,34.43c-.05.93-.82,1.66-1.75,1.66Zm-26.26-3.5h24.6l1.7-32.77c.03-.62-.19-1.21-.62-1.67-.43-.45-1.01-.7-1.63-.7h-23.5c-.62,0-1.2.25-1.63.7-.43.45-.65,1.04-.62,1.67l1.7,32.77Z"/><path class="cls-2" d="m135.5,67.24c-.97,0-1.75-.78-1.75-1.75v-15.17c0-.97.78-1.75,1.75-1.75s1.75.78,1.75,1.75v15.17c0,.97-.78,1.75-1.75,1.75Z"/><path class="cls-2" d="m142.64,67.24c-.97,0-1.75-.78-1.75-1.75v-15.17c0-.97.78-1.75,1.75-1.75s1.75.78,1.75,1.75v15.17c0,.97-.78,1.75-1.75,1.75Z"/><path class="cls-2" d="m149.78,67.24c-.97,0-1.75-.78-1.75-1.75v-15.17c0-.97.78-1.75,1.75-1.75s1.75.78,1.75,1.75v15.17c0,.97-.78,1.75-1.75,1.75Z"/><circle class="cls-2" cx="40.04" cy="110.8" r="1.75"/></svg>