<?xml version="1.0" encoding="UTF-8"?><svg id="_圖層_1" xmlns="http://www.w3.org/2000/svg" viewBox="0 0 260 260"><defs><style>.cls-1{fill:none;}.cls-1,.cls-2,.cls-3{stroke-width:0px;}.cls-4{opacity:.5;}.cls-2{fill:#4d4d4d;}.cls-3{fill:#e17b5e;}</style></defs><circle class="cls-1" cx="130" cy="130" r="130"/><g class="cls-4"><path class="cls-3" d="m121.22,191.37c-3.54,0-7.08-.79-10.38-2.38l-12.8-6.15c-2.19-1.05-4.7-1.34-7.07-.81-2.28.51-4.55-.93-5.06-3.21-.51-2.28.93-4.55,3.21-5.06,4.22-.94,8.69-.43,12.58,1.44l12.8,6.15c4.24,2.04,9.1,2.05,13.35.03l26.12-12.41c.57-.27.81-.75.9-1,.09-.26.21-.79-.07-1.38l-.07-.14c-1-2.12-.1-4.64,2.02-5.64,2.11-1,4.64-.1,5.64,2.02l.07.14c1.17,2.47,1.32,5.25.4,7.84-.92,2.59-2.78,4.66-5.25,5.83l-26.12,12.41c-3.27,1.55-6.78,2.33-10.28,2.33Z"/></g><g class="cls-4"><path class="cls-3" d="m146.8,139.28h0c0-14.08-11.52-25.6-25.6-25.6h-7.21c-14.08,0-25.6,11.52-25.6,25.6h0c0,4.22,3.47,7.61,7.68,7.53l44.22-.9c3.61-.07,6.5-3.02,6.5-6.63Z"/></g><path class="cls-2" d="m122.48,174.95c-.89,0-1.78-.14-2.64-.43l-19.08-6.37c-1.24-.41-1.91-1.75-1.49-2.99.41-1.24,1.75-1.9,2.99-1.49l19.08,6.37c.92.3,1.9.23,2.78-.2.88-.44,1.53-1.19,1.83-2.1.64-1.91-.4-3.98-2.31-4.61l-23.7-7.91c-3.11-1.04-6.46-.87-9.45.45l-15.53,6.91c-1.19.53-2.59,0-3.12-1.2-.53-1.19,0-2.59,1.2-3.12l15.53-6.91c4.07-1.81,8.64-2.03,12.86-.62l23.7,7.91c4.38,1.46,6.75,6.21,5.29,10.59-.71,2.11-2.2,3.83-4.2,4.83-1.19.59-2.46.89-3.74.89Z"/><path class="cls-2" d="m121.96,189.79c-3.26,0-6.53-.73-9.56-2.19l-12.8-6.15c-2.57-1.23-5.51-1.57-8.29-.95l-7.26,1.62c-1.27.28-2.53-.52-2.82-1.79-.28-1.27.52-2.53,1.79-2.82l7.26-1.62c3.81-.85,7.84-.39,11.36,1.3l12.8,6.15c4.75,2.28,10.21,2.3,14.97.03l26.12-12.41c.87-.42,1.53-1.15,1.86-2.07.33-.93.28-1.93-.15-2.81l-.07-.14c-.41-.85-1.12-1.5-2.02-1.82-.9-.32-1.86-.26-2.72.14l-14.44,6.95c-1.17.57-2.59.07-3.15-1.1-.57-1.17-.07-2.59,1.1-3.15l14.44-6.95c1.99-.96,4.24-1.08,6.33-.34,2.09.74,3.77,2.25,4.72,4.24l.07.14c.96,2.02,1.08,4.3.33,6.41-.75,2.11-2.27,3.81-4.29,4.76l-26.12,12.41c-3.01,1.43-6.24,2.15-9.48,2.15Z"/><path class="cls-2" d="m53.47,203.6c-.85,0-1.68-.46-2.1-1.27-.6-1.16-.15-2.58,1.01-3.18l26.72-13.87c.19-.09.24-.17.26-.23.02-.06.04-.15,0-.24l-12.38-27.13c-.04-.09-.12-.13-.17-.15-.06-.02-.14-.04-.24,0l-13.59,6.27c-1.18.55-2.59.03-3.13-1.16-.55-1.18-.03-2.59,1.16-3.13l13.59-6.27c1.22-.56,2.59-.62,3.85-.15,1.27.47,2.27,1.39,2.83,2.61l12.38,27.13c.56,1.21.61,2.58.15,3.84-.47,1.27-1.39,2.27-2.61,2.83l-26.62,13.82c-.35.18-.72.27-1.08.27Z"/><path class="cls-2" d="m96.67,144.84c-1.3,0-2.36-1.06-2.36-2.36v-7.68c0-15.42,12.54-27.96,27.96-27.96h7.21c15.42,0,27.96,12.54,27.96,27.96v6.5c0,1.3-1.06,2.36-2.36,2.36s-2.36-1.06-2.36-2.36v-6.5c0-12.81-10.42-23.24-23.24-23.24h-7.21c-12.81,0-23.24,10.42-23.24,23.24v7.68c0,1.3-1.06,2.36-2.36,2.36Z"/><circle class="cls-2" cx="155.07" cy="148.99" r="2.36"/><circle class="cls-2" cx="43.95" cy="165.66" r="2.36"/><rect class="cls-2" x="98.28" y="123.54" width="55.31" height="4.72"/><rect class="cls-2" x="96.67" y="132.44" width="58.4" height="4.72"/><rect class="cls-2" x="139.92" y="125.84" width="3.54" height="8.96"/><rect class="cls-2" x="134.31" y="125.84" width="2.36" height="8.96"/><path class="cls-2" d="m70.72,194.65c-.92,0-1.79-.54-2.17-1.44l-13.97-32.82c-.51-1.2.05-2.59,1.25-3.1,1.2-.51,2.59.05,3.1,1.25l13.97,32.82c.51,1.2-.05,2.59-1.25,3.1-.3.13-.62.19-.92.19Z"/><g class="cls-4"><path class="cls-3" d="m138.78,68.63c3.54,0,7.08.79,10.38,2.38l12.8,6.15c2.19,1.05,4.7,1.34,7.07.81,2.28-.51,4.55.93,5.06,3.21.51,2.28-.93,4.55-3.21,5.06-4.22.94-8.69.43-12.58-1.44l-12.8-6.15c-4.24-2.04-9.1-2.05-13.35-.03l-26.12,12.41c-.57.27-.81.75-.9,1-.09.26-.21.79.07,1.38l.07.14c1,2.12.1,4.64-2.02,5.64-2.11,1-4.64.1-5.64-2.02l-.07-.14c-1.17-2.47-1.32-5.25-.4-7.84.92-2.59,2.78-4.66,5.25-5.83l26.12-12.41c3.27-1.55,6.78-2.33,10.28-2.33Z"/></g><path class="cls-2" d="m164.2,110.19c-1.9,0-3.8-.3-5.64-.92l-23.7-7.91c-2.11-.71-3.83-2.2-4.83-4.2-1-2-1.16-4.27-.46-6.39,1.46-4.38,6.21-6.75,10.59-5.29l19.08,6.37c1.24.41,1.91,1.75,1.49,2.99s-1.75,1.91-2.99,1.49l-19.08-6.37c-1.91-.64-3.98.4-4.61,2.31-.31.92-.23,1.91.2,2.78.44.87,1.18,1.53,2.1,1.83l23.7,7.91c3.11,1.04,6.46.87,9.45-.45l15.53-6.91c1.19-.53,2.59,0,3.12,1.2.53,1.19,0,2.59-1.2,3.12l-15.53,6.91c-2.3,1.02-4.76,1.54-7.22,1.54Z"/><path class="cls-2" d="m106.04,100.8c-.93,0-1.86-.16-2.76-.48-2.09-.74-3.77-2.24-4.72-4.24l-.07-.14c-1.99-4.18-.21-9.2,3.96-11.18l26.12-12.41c6.06-2.88,13-2.86,19.04.04l12.8,6.15c2.57,1.23,5.51,1.57,8.29.95l7.27-1.62c1.27-.28,2.53.52,2.82,1.79.28,1.27-.52,2.53-1.79,2.82l-7.27,1.62c-3.81.85-7.84.39-11.36-1.3l-12.8-6.15c-4.75-2.29-10.21-2.3-14.97-.03l-26.12,12.41c-1.82.86-2.59,3.06-1.72,4.89l.07.14c.41.85,1.12,1.5,2.02,1.82.9.32,1.86.27,2.71-.14l14.44-6.95c1.17-.56,2.59-.07,3.15,1.1.57,1.17.07,2.59-1.1,3.15l-14.44,6.95c-1.13.55-2.35.82-3.57.82Z"/><path class="cls-2" d="m193.31,107.21c-1.91,0-3.73-1.08-4.58-2.92l-12.38-27.13c-1.16-2.51-.06-5.51,2.47-6.67l26.62-13.82c1.16-.6,2.58-.15,3.18,1.01.6,1.16.15,2.58-1.01,3.18l-26.72,13.87c-.25.12-.32.31-.25.47l12.38,27.13c.07.14.27.22.42.14l13.59-6.27c1.19-.55,2.59-.03,3.13,1.16.55,1.18.03,2.59-1.15,3.13l-13.59,6.27c-.68.31-1.4.46-2.1.46Z"/><circle class="cls-2" cx="216.05" cy="94.57" r="2.36"/><path class="cls-2" d="m203.26,102.89c-.92,0-1.79-.54-2.17-1.44l-13.97-32.82c-.51-1.2.05-2.59,1.25-3.1,1.2-.51,2.59.05,3.1,1.25l13.97,32.82c.51,1.2-.05,2.59-1.25,3.1-.3.13-.62.19-.92.19Z"/><path class="cls-2" d="m83.92,118.42c-.3,0-.6-.12-.83-.35-.46-.46-.46-1.21,0-1.67l4.03-4.03c.46-.46,1.21-.46,1.67,0s.46,1.21,0,1.67l-4.03,4.03c-.23.23-.53.35-.83.35Z"/><path class="cls-2" d="m75.54,126.79c-.3,0-.6-.12-.83-.35-.46-.46-.46-1.21,0-1.67l4.03-4.03c.46-.46,1.21-.46,1.67,0s.46,1.21,0,1.67l-4.03,4.03c-.23.23-.53.35-.83.35Z"/><path class="cls-2" d="m87.95,126.79c-.3,0-.6-.12-.83-.35l-4.03-4.03c-.46-.46-.46-1.21,0-1.67s1.21-.46,1.67,0l4.03,4.03c.46.46.46,1.21,0,1.67-.23.23-.53.35-.83.35Z"/><path class="cls-2" d="m79.58,118.42c-.3,0-.6-.12-.83-.35l-4.03-4.03c-.46-.46-.46-1.21,0-1.67s1.21-.46,1.67,0l4.03,4.03c.46.46.46,1.21,0,1.67-.23.23-.53.35-.83.35Z"/><path class="cls-2" d="m62.6,133.81c-.3,0-.6-.12-.83-.35-.46-.46-.46-1.21,0-1.67l4.03-4.03c.46-.46,1.21-.46,1.67,0s.46,1.21,0,1.67l-4.03,4.03c-.23.23-.53.35-.83.35Z"/><path class="cls-2" d="m54.23,142.18c-.3,0-.6-.12-.83-.35-.46-.46-.46-1.21,0-1.67l4.03-4.03c.46-.46,1.21-.46,1.67,0s.46,1.21,0,1.67l-4.03,4.03c-.23.23-.53.35-.83.35Z"/><path class="cls-2" d="m66.63,142.18c-.3,0-.6-.12-.83-.35l-4.03-4.03c-.46-.46-.46-1.21,0-1.67s1.21-.46,1.67,0l4.03,4.03c.46.46.46,1.21,0,1.67-.23.23-.53.35-.83.35Z"/><path class="cls-2" d="m58.26,133.81c-.3,0-.6-.12-.83-.35l-4.03-4.03c-.46-.46-.46-1.21,0-1.67s1.21-.46,1.67,0l4.03,4.03c.46.46.46,1.21,0,1.67-.23.23-.53.35-.83.35Z"/></svg>