<?xml version="1.0" encoding="UTF-8"?><svg id="_圖層_1" xmlns="http://www.w3.org/2000/svg" viewBox="0 0 260 260"><defs><style>.cls-1{fill:none;}.cls-1,.cls-2,.cls-3,.cls-4{stroke-width:0px;}.cls-5{opacity:.5;}.cls-2{fill:#494949;}.cls-3{fill:#4d4d4d;}.cls-4{fill:#e17b5e;}</style></defs><circle class="cls-1" cx="130" cy="130" r="130"/><g class="cls-5"><circle class="cls-4" cx="183.72" cy="178.52" r="22.18"/></g><g class="cls-5"><path class="cls-4" d="m161.59,72.66h-71.39c-3.17,0-5.74,2.57-5.74,5.74v105.31c0,3.17,2.57,5.74,5.74,5.74h51.82c3.63,0,6.42-3.34,5.62-6.88-.35-1.55-.53-3.16-.53-4.82,0-10.12,6.78-18.65,16.05-21.31,2.47-.71,4.17-2.95,4.17-5.51v-72.53c0-3.17-2.57-5.74-5.74-5.74Zm-20.99,101.03h-32.92c-2.89,0-5.26-2.37-5.26-5.26s2.37-5.26,5.26-5.26h36.93l-4.01,10.52Zm10.3-22.18h-43.22c-2.89,0-5.26-2.37-5.26-5.26s2.37-5.26,5.26-5.26h43.22c2.89,0,5.26,2.37,5.26,5.26s-2.37,5.26-5.26,5.26Zm0-22.18h-43.22c-2.89,0-5.26-2.37-5.26-5.26s2.37-5.26,5.26-5.26h43.22c2.89,0,5.26,2.37,5.26,5.26s-2.37,5.26-5.26,5.26Zm0-22.18h-43.22c-2.89,0-5.26-2.37-5.26-5.26s2.37-5.26,5.26-5.26h43.22c2.89,0,5.26,2.37,5.26,5.26s-2.37,5.26-5.26,5.26Z"/></g><path class="cls-3" d="m150.39,200.93h-52.8c-3.28,0-5.96-2.67-5.96-5.96v-108.88c0-3.28,2.67-5.96,5.96-5.96h74.96c3.28,0,5.96,2.67,5.96,5.96v54.44c0,1.1-.9,2-2,2s-2-.9-2-2v-54.44c0-1.08-.88-1.96-1.96-1.96h-74.96c-1.08,0-1.96.88-1.96,1.96v108.88c0,1.08.88,1.96,1.96,1.96h52.8c1.1,0,2,.9,2,2s-.9,2-2,2Z"/><path class="cls-3" d="m85.24,185.04h-4.94c-3.28,0-5.96-2.67-5.96-5.96v-108.88c0-3.28,2.67-5.96,5.96-5.96h74.96c3.28,0,5.96,2.67,5.96,5.96v4.56c0,1.1-.9,2-2,2s-2-.9-2-2v-4.56c0-1.08-.88-1.96-1.96-1.96h-74.96c-1.08,0-1.96.88-1.96,1.96v108.88c0,1.08.88,1.96,1.96,1.96h4.94c1.1,0,2,.9,2,2s-.9,2-2,2Z"/><g class="cls-5"><path class="cls-4" d="m66.97,73.75c-1.59,0-2.87-1.28-2.87-2.87v-10.05c0-3.76,3.06-6.83,6.83-6.83h9.04c1.59,0,2.87,1.28,2.87,2.87s-1.28,2.87-2.87,2.87h-9.04c-.59,0-1.09.5-1.09,1.09v10.05c0,1.59-1.28,2.87-2.87,2.87Z"/></g><path class="cls-3" d="m176.5,206c-13.33,0-24.18-10.85-24.18-24.18s10.85-24.18,24.18-24.18,24.18,10.85,24.18,24.18-10.85,24.18-24.18,24.18Zm0-44.36c-11.13,0-20.18,9.05-20.18,20.18s9.05,20.18,20.18,20.18,20.18-9.05,20.18-20.18-9.05-20.18-20.18-20.18Z"/><path class="cls-2" d="m169.84,190.97c-.33-.23-.51-.5-.53-.82s.08-.64.31-.97l.68-.96c.48-.66,1.07-.75,1.79-.28.48.33,1.09.67,1.84,1.02.75.35,1.61.53,2.58.53.41,0,.81-.06,1.21-.17.39-.11.73-.28,1.03-.5s.54-.49.71-.82c.17-.33.26-.72.26-1.17,0-.62-.26-1.14-.77-1.56s-1.16-.82-1.93-1.19c-.77-.37-1.61-.75-2.52-1.13-.91-.38-1.75-.84-2.52-1.38-.77-.53-1.42-1.18-1.93-1.93-.52-.75-.77-1.68-.77-2.8,0-.8.14-1.55.43-2.24.29-.69.68-1.31,1.19-1.86s1.11-1,1.82-1.36c.71-.36,1.5-.61,2.36-.76v-1.64c0-.85.41-1.27,1.24-1.27h.22c.8,0,1.2.36,1.2,1.08v1.76c1.07.08,1.98.29,2.73.62s1.34.64,1.75.93c.35.21.55.46.59.76.04.3-.03.62-.22.97l-.53,1.05c-.39.7-.98.84-1.76.4-.41-.25-.94-.5-1.58-.76s-1.35-.39-2.13-.39c-.93,0-1.72.24-2.36.73-.65.49-.97,1.12-.97,1.9,0,.62.26,1.13.77,1.53s1.16.78,1.93,1.14c.77.36,1.61.72,2.52,1.1.91.37,1.75.82,2.52,1.34.77.53,1.42,1.17,1.93,1.95.52.77.77,1.74.77,2.89,0,.78-.13,1.53-.4,2.24-.27.71-.66,1.35-1.17,1.92-.52.57-1.14,1.04-1.87,1.42-.73.38-1.57.63-2.52.76v1.54c0,.87-.4,1.3-1.2,1.3h-.22c-.83,0-1.24-.36-1.24-1.08v-1.76c-.64-.06-1.23-.18-1.76-.34-.54-.16-1.03-.34-1.47-.54-.44-.19-.84-.4-1.17-.62s-.62-.42-.85-.6Z"/><path class="cls-3" d="m156.68,113.22h-43.23c-4,0-7.26-3.26-7.26-7.26s3.26-7.26,7.26-7.26h43.23c4,0,7.26,3.26,7.26,7.26s-3.26,7.26-7.26,7.26Zm-43.23-10.52c-1.8,0-3.26,1.46-3.26,3.26s1.46,3.26,3.26,3.26h43.23c1.8,0,3.26-1.46,3.26-3.26s-1.46-3.26-3.26-3.26h-43.23Z"/><path class="cls-3" d="m156.68,135.4h-43.23c-4,0-7.26-3.26-7.26-7.26s3.26-7.26,7.26-7.26h43.23c4,0,7.26,3.26,7.26,7.26s-3.26,7.26-7.26,7.26Zm-43.23-10.52c-1.8,0-3.26,1.46-3.26,3.26s1.46,3.26,3.26,3.26h43.23c1.8,0,3.26-1.46,3.26-3.26s-1.46-3.26-3.26-3.26h-43.23Z"/><path class="cls-3" d="m156.68,157.57h-43.23c-4,0-7.26-3.26-7.26-7.26s3.26-7.26,7.26-7.26h43.23c4,0,7.26,3.26,7.26,7.26s-3.26,7.26-7.26,7.26Zm-43.23-10.52c-1.8,0-3.26,1.46-3.26,3.26s1.46,3.26,3.26,3.26h43.23c1.8,0,3.26-1.46,3.26-3.26s-1.46-3.26-3.26-3.26h-43.23Z"/><path class="cls-3" d="m146.38,179.75h-32.92c-4,0-7.26-3.26-7.26-7.26s3.26-7.26,7.26-7.26h36.93c1.1,0,2,.9,2,2s-.9,2-2,2h-36.93c-1.8,0-3.26,1.46-3.26,3.26s1.46,3.26,3.26,3.26h32.92c1.1,0,2,.9,2,2s-.9,2-2,2Z"/><circle class="cls-3" cx="176.5" cy="149.39" r="2"/></svg>