<?xml version="1.0" encoding="UTF-8"?><svg id="_圖層_1" xmlns="http://www.w3.org/2000/svg" viewBox="0 0 200 200"><defs><style>.cls-1{fill:none;}.cls-1,.cls-2,.cls-3{stroke-width:0px;}.cls-4{opacity:.5;}.cls-2{fill:#4d4d4d;}.cls-3{fill:#e17b5e;}</style></defs><circle class="cls-1" cx="100" cy="100" r="100"/><g class="cls-4"><path class="cls-3" d="m107.56,110.23h25.17l-32.78,41.85c-1.25,1.59-3.78.32-3.25-1.63l10.87-40.22Z"/></g><g class="cls-4"><path class="cls-3" d="m96.29,54.84c-1.66,0-3-1.34-3-3v-11.97c0-1.66,1.34-3,3-3s3,1.34,3,3v11.97c0,1.66-1.34,3-3,3Z"/></g><g class="cls-4"><path class="cls-3" d="m82.02,58.66c-1.04,0-2.05-.54-2.6-1.5l-5.99-10.37c-.83-1.43-.34-3.27,1.1-4.1,1.44-.83,3.27-.33,4.1,1.1l5.99,10.37c.83,1.43.34,3.27-1.1,4.1-.47.27-.99.4-1.5.4Z"/></g><g class="cls-4"><path class="cls-3" d="m71.57,69.11c-.51,0-1.02-.13-1.5-.4l-10.37-5.99c-1.44-.83-1.93-2.66-1.1-4.1s2.66-1.93,4.1-1.1l10.37,5.99c1.44.83,1.93,2.66,1.1,4.1-.56.96-1.56,1.5-2.6,1.5Z"/></g><g class="cls-4"><path class="cls-3" d="m121.02,69.11c-1.04,0-2.05-.54-2.6-1.5-.83-1.43-.34-3.27,1.1-4.1l10.37-5.99c1.43-.83,3.27-.34,4.1,1.1.83,1.43.34,3.27-1.1,4.1l-10.37,5.99c-.47.27-.99.4-1.5.4Z"/></g><g class="cls-4"><path class="cls-3" d="m110.56,58.66c-.51,0-1.02-.13-1.5-.4-1.44-.83-1.93-2.66-1.1-4.1l5.99-10.37c.83-1.43,2.66-1.93,4.1-1.1,1.44.83,1.93,2.66,1.1,4.1l-5.99,10.37c-.56.96-1.56,1.5-2.6,1.5Z"/></g><path class="cls-2" d="m99.63,161.02c-.52,0-1.01-.23-1.35-.63l-43.78-52.59c-.46-.55-.53-1.32-.2-1.94l14.94-27.97c.3-.57.9-.93,1.54-.93h57.67c.65,0,1.24.36,1.54.93l14.94,27.97c.34.63.26,1.4-.2,1.94l-43.78,52.59c-.33.4-.83.63-1.35.63Zm-41.68-54.56l41.68,50.07,41.68-50.07-13.89-26.01h-55.57l-13.9,26.01Z"/><path class="cls-2" d="m143.41,108.43H55.85c-.97,0-1.75-.78-1.75-1.75s.78-1.75,1.75-1.75h87.56c.97,0,1.75.78,1.75,1.75s-.78,1.75-1.75,1.75Z"/><path class="cls-2" d="m114.57,108.43h-29.89c-.62,0-1.19-.33-1.5-.86-.31-.53-.33-1.19-.03-1.73l14.94-27.42c.31-.56.9-.91,1.54-.91s1.23.35,1.54.91l14.94,27.42c.3.54.28,1.2-.03,1.73-.32.53-.89.86-1.5.86Zm-26.94-3.5h23.99l-12-22.01-12,22.01Z"/><path class="cls-2" d="m143.41,108.43h-29.89c-.62,0-1.19-.33-1.5-.86-.31-.53-.33-1.19-.03-1.73l14.94-27.42c.31-.56.9-.91,1.54-.91s1.23.35,1.54.91l14.94,27.42c.3.54.28,1.2-.03,1.73-.32.53-.89.86-1.5.86Zm-26.94-3.5h23.99l-12-22.01-12,22.01Z"/><path class="cls-2" d="m85.74,108.43h-29.89c-.62,0-1.19-.33-1.5-.86-.31-.53-.33-1.19-.03-1.73l14.94-27.42c.31-.56.9-.91,1.54-.91s1.23.35,1.54.91l14.94,27.42c.3.54.28,1.2-.03,1.73-.32.53-.89.86-1.5.86Zm-26.94-3.5h23.99l-12-22.01-12,22.01Z"/><path class="cls-2" d="m99.63,161.02c-.78,0-1.48-.52-1.69-1.3l-10.64-40.28c-.25-.93.31-1.89,1.25-2.14.93-.24,1.89.31,2.14,1.25l10.64,40.28c.25.93-.31,1.89-1.25,2.14-.15.04-.3.06-.45.06Z"/><path class="cls-2" d="m99.63,161.02c-.15,0-.3-.02-.45-.06-.93-.25-1.49-1.21-1.25-2.14l13.89-52.59c.25-.93,1.2-1.49,2.14-1.25.93.25,1.49,1.21,1.25,2.14l-13.89,52.59c-.21.78-.92,1.3-1.69,1.3Z"/><path class="cls-2" d="m99.63,54.74c-.97,0-1.75-.78-1.75-1.75v-11.97c0-.97.78-1.75,1.75-1.75s1.75.78,1.75,1.75v11.97c0,.97-.78,1.75-1.75,1.75Z"/><path class="cls-2" d="m85.36,58.56c-.6,0-1.19-.31-1.52-.88l-5.99-10.37c-.48-.84-.2-1.91.64-2.39.84-.48,1.91-.2,2.39.64l5.99,10.37c.48.84.2,1.91-.64,2.39-.28.16-.58.23-.87.23Z"/><path class="cls-2" d="m74.91,69.01c-.3,0-.6-.08-.87-.23l-10.37-5.99c-.84-.48-1.12-1.55-.64-2.39.48-.84,1.56-1.12,2.39-.64l10.37,5.99c.84.48,1.12,1.55.64,2.39-.32.56-.91.88-1.52.88Z"/><path class="cls-2" d="m124.35,69.01c-.6,0-1.19-.31-1.52-.88-.48-.84-.2-1.91.64-2.39l10.37-5.99c.84-.48,1.91-.2,2.39.64s.2,1.91-.64,2.39l-10.37,5.99c-.28.16-.58.23-.87.23Z"/><path class="cls-2" d="m113.9,58.56c-.3,0-.6-.08-.87-.23-.84-.48-1.12-1.55-.64-2.39l5.99-10.37c.48-.84,1.55-1.12,2.39-.64.84.48,1.12,1.55.64,2.39l-5.99,10.37c-.32.56-.91.88-1.52.88Z"/><path class="cls-2" d="m161,106.59c-.45,0-.9-.17-1.24-.51-.68-.68-.68-1.79,0-2.47l3.42-3.42c.68-.68,1.79-.68,2.47,0s.68,1.79,0,2.47l-3.42,3.42c-.34.34-.79.51-1.24.51Z"/><path class="cls-2" d="m153.91,113.68c-.45,0-.9-.17-1.24-.51-.68-.68-.68-1.79,0-2.47l3.42-3.42c.68-.68,1.79-.68,2.47,0s.68,1.79,0,2.47l-3.42,3.42c-.34.34-.79.51-1.24.51Z"/><path class="cls-2" d="m164.42,113.68c-.45,0-.9-.17-1.24-.51l-3.42-3.42c-.68-.68-.68-1.79,0-2.47s1.79-.68,2.47,0l3.42,3.42c.68.68.68,1.79,0,2.47-.34.34-.79.51-1.24.51Z"/><path class="cls-2" d="m157.33,106.59c-.45,0-.9-.17-1.24-.51l-3.42-3.42c-.68-.68-.68-1.79,0-2.47s1.79-.68,2.47,0l3.42,3.42c.68.68.68,1.79,0,2.47-.34.34-.79.51-1.24.51Z"/><path class="cls-2" d="m45.51,79.17c-.45,0-.9-.17-1.24-.51-.68-.68-.68-1.79,0-2.47l3.42-3.42c.68-.68,1.79-.68,2.48,0,.68.68.68,1.79,0,2.47l-3.42,3.42c-.34.34-.79.51-1.24.51Z"/><path class="cls-2" d="m38.42,86.26c-.45,0-.9-.17-1.24-.51-.68-.68-.68-1.79,0-2.47l3.42-3.42c.68-.68,1.79-.68,2.48,0,.68.68.68,1.79,0,2.47l-3.42,3.42c-.34.34-.79.51-1.24.51Z"/><path class="cls-2" d="m48.93,86.26c-.45,0-.9-.17-1.24-.51l-3.42-3.42c-.68-.68-.68-1.79,0-2.47.68-.68,1.79-.68,2.48,0l3.42,3.42c.68.68.68,1.79,0,2.47-.34.34-.79.51-1.24.51Z"/><path class="cls-2" d="m41.84,79.17c-.45,0-.9-.17-1.24-.51l-3.42-3.42c-.68-.68-.68-1.79,0-2.47.68-.68,1.79-.68,2.48,0l3.42,3.42c.68.68.68,1.79,0,2.47-.34.34-.79.51-1.24.51Z"/><circle class="cls-2" cx="87.36" cy="112.84" r="1.75"/></svg>