<?xml version="1.0" encoding="UTF-8"?><svg id="_圖層_1" xmlns="http://www.w3.org/2000/svg" viewBox="0 0 200 200"><defs><style>.cls-1{fill:none;}.cls-1,.cls-2,.cls-3{stroke-width:0px;}.cls-4{opacity:.5;}.cls-2{fill:#4d4d4d;}.cls-3{fill:#e17b5e;}</style></defs><circle class="cls-1" cx="100" cy="100" r="100"/><g class="cls-4"><path class="cls-3" d="m151.25,121.9v-57.42c0-5.52-4.51-10.03-10.03-10.03H51.1c-5.52,0-10.03,4.51-10.03,10.03v27.51c0,2.78,2.25,5.03,5.03,5.03h0c2.78,0,5.03-2.25,5.03-5.03v-21.46c0-2.78,2.25-5.03,5.03-5.03h78.76c2.78,0,5.03,2.25,5.03,5.03v51.38c0,2.78,2.25,5.03,5.03,5.03h1.24c2.78,0,5.03-2.25,5.03-5.03Z"/></g><path class="cls-2" d="m155.22,133.74c-.97,0-1.75-.78-1.75-1.75v-67.48c0-1.79-1.46-3.25-3.25-3.25H50.04c-1.79,0-3.25,1.46-3.25,3.25v37.57c0,.97-.78,1.75-1.75,1.75s-1.75-.78-1.75-1.75v-37.57c0-3.72,3.03-6.75,6.75-6.75h100.18c3.72,0,6.75,3.03,6.75,6.75v67.48c0,.97-.78,1.75-1.75,1.75Z"/><path class="cls-2" d="m45.04,133.74c-.97,0-1.75-.78-1.75-1.75v-12.85c0-.97.78-1.75,1.75-1.75s1.75.78,1.75,1.75v12.85c0,.97-.78,1.75-1.75,1.75Z"/><path class="cls-2" d="m147.22,133.74c-.97,0-1.75-.78-1.75-1.75v-60.48c0-1.24-1.01-2.25-2.25-2.25H57.04c-1.24,0-2.25,1.01-2.25,2.25v60.48c0,.97-.78,1.75-1.75,1.75s-1.75-.78-1.75-1.75v-60.48c0-3.17,2.58-5.75,5.75-5.75h86.18c3.17,0,5.75,2.58,5.75,5.75v60.48c0,.97-.78,1.75-1.75,1.75Z"/><path class="cls-2" d="m109.61,61.25c-.97,0-1.75-.78-1.75-1.75v-5.37c0-1.79-1.46-3.25-3.25-3.25h-8.96c-1.79,0-3.25,1.46-3.25,3.25v5.37c0,.97-.78,1.75-1.75,1.75s-1.75-.78-1.75-1.75v-5.37c0-3.72,3.03-6.75,6.75-6.75h8.96c3.72,0,6.75,3.03,6.75,6.75v5.37c0,.97-.78,1.75-1.75,1.75Z"/><path class="cls-2" d="m158.05,144.38H42.2c-3.72,0-6.75-3.03-6.75-6.75v-.64c0-3.72,3.03-6.75,6.75-6.75h115.85c3.72,0,6.75,3.03,6.75,6.75v.64c0,3.72-3.03,6.75-6.75,6.75Zm-115.85-10.64c-1.79,0-3.25,1.46-3.25,3.25v.64c0,1.79,1.46,3.25,3.25,3.25h115.85c1.79,0,3.25-1.46,3.25-3.25v-.64c0-1.79-1.46-3.25-3.25-3.25H42.2Z"/><path class="cls-2" d="m100.13,155.52c-.97,0-1.75-.78-1.75-1.75v-11.14c0-.97.78-1.75,1.75-1.75s1.75.78,1.75,1.75v11.14c0,.97-.78,1.75-1.75,1.75Z"/><path class="cls-2" d="m72.23,155.52c-.45,0-.9-.17-1.24-.51-.68-.68-.68-1.79,0-2.47l10.97-10.97c.68-.68,1.79-.68,2.47,0s.68,1.79,0,2.47l-10.97,10.97c-.34.34-.79.51-1.24.51Z"/><path class="cls-2" d="m128.02,155.52c-.45,0-.9-.17-1.24-.51l-10.97-10.97c-.68-.68-.68-1.79,0-2.47s1.79-.68,2.47,0l10.97,10.97c.68.68.68,1.79,0,2.47-.34.34-.79.51-1.24.51Z"/><path class="cls-2" d="m96.16,94.46c-5.35,0-9.7-4.35-9.7-9.7s4.35-9.7,9.7-9.7,9.7,4.35,9.7,9.7-4.35,9.7-9.7,9.7Zm0-15.91c-3.42,0-6.2,2.78-6.2,6.2s2.78,6.2,6.2,6.2,6.2-2.78,6.2-6.2-2.78-6.2-6.2-6.2Z"/><path class="cls-2" d="m53.04,133.74c-.3,0-.6-.08-.87-.23-.84-.48-1.12-1.55-.64-2.39l19.51-33.79c1.51-2.62,4.22-4.18,7.24-4.18s5.73,1.56,7.25,4.18l7.43,12.88c.88,1.52,2.45,2.43,4.21,2.43s3.33-.91,4.21-2.43l14.29-24.76c1.51-2.62,4.22-4.18,7.25-4.18s5.73,1.56,7.24,4.18l18.57,32.16c.48.84.2,1.91-.64,2.39-.84.48-1.91.2-2.39-.64l-18.57-32.16c-.88-1.52-2.45-2.43-4.21-2.43s-3.33.91-4.21,2.43l-14.29,24.76c-1.51,2.62-4.22,4.18-7.24,4.18s-5.73-1.56-7.25-4.18l-7.43-12.88c-.88-1.52-2.45-2.43-4.21-2.43s-3.33.91-4.21,2.43l-19.51,33.79c-.32.56-.91.88-1.52.88Z"/><path class="cls-2" d="m32.2,62.68c-.45,0-.9-.17-1.24-.51-.68-.68-.68-1.79,0-2.47l3.42-3.42c.68-.68,1.79-.68,2.47,0,.68.68.68,1.79,0,2.47l-3.42,3.42c-.34.34-.79.51-1.24.51Z"/><path class="cls-2" d="m25.11,69.78c-.45,0-.9-.17-1.24-.51-.68-.68-.68-1.79,0-2.47l3.42-3.42c.68-.68,1.79-.68,2.47,0,.68.68.68,1.79,0,2.47l-3.42,3.42c-.34.34-.79.51-1.24.51Z"/><path class="cls-2" d="m35.62,69.78c-.45,0-.9-.17-1.24-.51l-3.42-3.42c-.68-.68-.68-1.79,0-2.47.68-.68,1.79-.68,2.47,0l3.42,3.42c.68.68.68,1.79,0,2.47-.34.34-.79.51-1.24.51Z"/><path class="cls-2" d="m28.53,62.68c-.45,0-.9-.17-1.24-.51l-3.42-3.42c-.68-.68-.68-1.79,0-2.47.68-.68,1.79-.68,2.47,0l3.42,3.42c.68.68.68,1.79,0,2.47-.34.34-.79.51-1.24.51Z"/><path class="cls-2" d="m171.25,96.5c-.45,0-.9-.17-1.24-.51-.68-.68-.68-1.79,0-2.47l3.42-3.42c.68-.68,1.79-.68,2.47,0,.68.68.68,1.79,0,2.47l-3.42,3.42c-.34.34-.79.51-1.24.51Z"/><path class="cls-2" d="m164.16,103.59c-.45,0-.9-.17-1.24-.51-.68-.68-.68-1.79,0-2.47l3.42-3.42c.68-.68,1.79-.68,2.47,0,.68.68.68,1.79,0,2.47l-3.42,3.42c-.34.34-.79.51-1.24.51Z"/><path class="cls-2" d="m174.67,103.59c-.45,0-.9-.17-1.24-.51l-3.42-3.42c-.68-.68-.68-1.79,0-2.47.68-.68,1.79-.68,2.47,0l3.42,3.42c.68.68.68,1.79,0,2.47-.34.34-.79.51-1.24.51Z"/><path class="cls-2" d="m167.57,96.5c-.45,0-.9-.17-1.24-.51l-3.42-3.42c-.68-.68-.68-1.79,0-2.47.68-.68,1.79-.68,2.47,0l3.42,3.42c.68.68.68,1.79,0,2.47-.34.34-.79.51-1.24.51Z"/><circle class="cls-2" cx="45.04" cy="110.05" r="1.75"/></svg>