<?xml version="1.0" encoding="UTF-8"?><svg id="_圖層_1" xmlns="http://www.w3.org/2000/svg" viewBox="0 0 200 200"><defs><style>.cls-1{fill:none;}.cls-1,.cls-2,.cls-3{stroke-width:0px;}.cls-4{opacity:.5;}.cls-2{fill:#4d4d4d;}.cls-3{fill:#e17b5e;}</style></defs><circle class="cls-1" cx="100" cy="100" r="100"/><g class="cls-4"><path class="cls-3" d="m129.4,81.05v.83c.46.05.9.13,1.35.22-.43-.37-.88-.72-1.35-1.05Z"/><polygon class="cls-3" points="126.93 96.24 119.18 96.24 119.18 96.24 119.18 138.2 119.18 138.2 126.93 138.31 126.93 138.31 126.93 96.24 126.93 96.24"/><path class="cls-3" d="m66.93,98.75c0-8.68,6.6-15.89,15.03-16.88,0,0,0,0,0,0v-21.19c0-13.05,10.67-23.72,23.72-23.72h0c2.2,0,4.33.31,6.35.88,0,0,0,0,0,0-3.95-2.94-8.83-4.68-14.1-4.68h0c-13.05,0-23.72,10.67-23.72,23.72v21.19s0,0,0,0c-8.43.98-15.03,8.19-15.03,16.87v43.51s0,0,0,0l7.75-.11s0,0,0,0v-39.59Z"/></g><path class="cls-2" d="m115.07,107.89c-.46,0-.92-.18-1.26-.54l-12.03-12.5-12.03,12.5c-.67.7-1.78.72-2.47.05-.7-.67-.72-1.78-.05-2.47l14.55-15.12,14.55,15.12c.67.7.65,1.8-.05,2.47-.34.33-.78.49-1.21.49Z"/><path class="cls-2" d="m63.03,144.01c-.46,0-.9-.18-1.23-.5-.33-.33-.52-.78-.52-1.25v-43.5c0-8.98,6.36-16.62,15.03-18.37v-19.7c0-14.04,11.43-25.47,25.47-25.47s25.47,11.43,25.47,25.47v19.7c8.67,1.75,15.03,9.39,15.03,18.37v43.5c0,.47-.19.92-.52,1.25s-.77.51-1.25.5l-17.5-.25c-.96-.01-1.73-.79-1.73-1.75v-45.76c0-.97.78-1.75,1.75-1.75s1.75.78,1.75,1.75v44.04l14,.2v-41.73c0-7.73-5.8-14.24-13.48-15.14-.88-.1-1.55-.85-1.55-1.74v-21.19c0-12.11-9.86-21.97-21.97-21.97s-21.97,9.86-21.97,21.97v21.19c0,.89-.67,1.63-1.55,1.74-7.69.9-13.48,7.41-13.48,15.14v41.73l13.86-.2v-44.04c0-.97.78-1.75,1.75-1.75s1.75.78,1.75,1.75v45.76c0,.96-.77,1.74-1.73,1.75l-17.36.25h-.02Z"/><path class="cls-2" d="m101.78,92.59c-7.87,0-14.27-6.4-14.27-14.27v-10.21c0-7.87,6.4-14.27,14.27-14.27s14.27,6.4,14.27,14.27v10.21c0,7.87-6.4,14.27-14.27,14.27Zm0-35.25c-5.94,0-10.77,4.83-10.77,10.77v10.21c0,5.94,4.83,10.77,10.77,10.77s10.77-4.83,10.77-10.77v-10.21c0-5.94-4.83-10.77-10.77-10.77Z"/><path class="cls-2" d="m132.6,152.67h-61.19c-.97,0-1.75-.78-1.75-1.75s.78-1.75,1.75-1.75h61.19c.97,0,1.75.78,1.75,1.75s-.78,1.75-1.75,1.75Z"/><circle class="cls-2" cx="123.07" cy="89.61" r="1.75"/></svg>