<?xml version="1.0" encoding="UTF-8"?><svg id="_圖層_1" xmlns="http://www.w3.org/2000/svg" viewBox="0 0 260 260"><defs><style>.cls-1{fill:none;}.cls-1,.cls-2,.cls-3{stroke-width:0px;}.cls-4{opacity:.5;}.cls-2{fill:#4d4d4d;}.cls-3{fill:#e17b5e;}</style></defs><circle class="cls-1" cx="130" cy="130" r="130"/><g class="cls-4"><rect class="cls-3" x="55.52" y="170.26" width="72.46" height="9.93" rx="4.97" ry="4.97"/></g><g class="cls-4"><path class="cls-3" d="m80.47,121.69c-.26-.51-.69-1.02-1.19-1.5.69.13,1.34.18,1.91.09,3.53-.56,5.04-3.22,4.58-6.13s-2.72-4.97-6.25-4.41c-.57.09-1.18.34-1.79.67.33-.62.58-1.22.67-1.79.56-3.53-1.5-5.78-4.41-6.25-2.91-.46-5.57,1.05-6.13,4.58-.09.57-.04,1.22.09,1.91-.48-.51-.98-.93-1.5-1.19-3.18-1.62-5.97-.36-7.3,2.27-1.34,2.63-.72,5.62,2.46,7.24.51.26,1.15.42,1.85.51-.63.3-1.19.65-1.6,1.06-2.52,2.52-2.18,5.56-.1,7.65,2.08,2.08,5.12,2.42,7.65-.1.41-.41.75-.97,1.06-1.6.09.7.25,1.33.51,1.85,1.62,3.18,4.62,3.8,7.24,2.46,2.63-1.34,3.89-4.12,2.27-7.3Z"/></g><g class="cls-4"><path class="cls-3" d="m128.97,90.48v26.95c0,19.34,15.83,35.64,35.17,35.27s33.84-15.66,33.84-34.5v-27.72c0-3.71-3.01-6.71-6.71-6.71h-55.58c-3.71,0-6.71,3.01-6.71,6.71Z"/></g><path class="cls-2" d="m158.51,164.33c-9.4,0-18.33-3.69-25.21-10.44-7.19-7.05-11.31-16.83-11.31-26.83v-33.24c0-2.58,2.1-4.68,4.68-4.68h63.64c2.58,0,4.68,2.1,4.68,4.68v34.01c0,19.75-16.06,36.12-35.8,36.5-.23,0-.46,0-.68,0Zm-31.84-71.2c-.38,0-.68.31-.68.68v33.24c0,8.93,3.69,17.67,10.11,23.98,6.27,6.16,14.42,9.46,23.02,9.29,17.58-.33,31.87-14.91,31.87-32.5v-34.01c0-.38-.31-.68-.68-.68h-63.64Z"/><path class="cls-2" d="m192.99,107.02h-69.01c-1.1,0-2-.9-2-2s.9-2,2-2h69.01c1.1,0,2,.9,2,2s-.9,2-2,2Z"/><path class="cls-2" d="m183.5,127.04c-1.1,0-2-.9-2-2v-10.75c0-1.1.9-2,2-2s2,.9,2,2v10.75c0,1.1-.9,2-2,2Z"/><circle class="cls-2" cx="183.5" cy="133.47" r="2"/><path class="cls-2" d="m159.15,177.23c-1.1,0-2-.9-2-2v-12.9c0-1.1.9-2,2-2s2,.9,2,2v12.9c0,1.1-.9,2-2,2Z"/><path class="cls-2" d="m173.44,177.36h-28.57c-1.1,0-2-.9-2-2s.9-2,2-2h28.57c1.1,0,2,.9,2,2s-.9,2-2,2Z"/><path class="cls-2" d="m200,105.57c-.62,0-1.23-.29-1.62-.83-.65-.9-.44-2.15.45-2.79,2.61-1.88,4.17-4.92,4.17-8.13,0-5.52-4.49-10.01-10.02-10.01-2.07,0-4.06.63-5.75,1.81-.9.63-2.15.42-2.79-.49-.63-.9-.42-2.15.49-2.79,2.37-1.66,5.15-2.54,8.05-2.54,7.73,0,14.02,6.29,14.02,14.01,0,4.5-2.18,8.75-5.83,11.38-.35.25-.76.38-1.17.38Z"/><path class="cls-2" d="m125.97,178.42h-62.53c-3.84,0-6.97-3.13-6.97-6.97s3.13-6.97,6.97-6.97h62.53c3.84,0,6.97,3.13,6.97,6.97s-3.13,6.97-6.97,6.97Zm-62.53-9.94c-1.64,0-2.97,1.33-2.97,2.97s1.33,2.97,2.97,2.97h62.53c1.64,0,2.97-1.33,2.97-2.97s-1.33-2.97-2.97-2.97h-62.53Z"/><path class="cls-2" d="m121.68,167.29c-1.1,0-2-.9-2-2,0-13.77-11.2-24.97-24.97-24.97s-24.97,11.2-24.97,24.97c0,1.1-.9,2-2,2s-2-.9-2-2c0-15.98,13-28.97,28.97-28.97s28.97,13,28.97,28.97c0,1.1-.9,2-2,2Z"/><path class="cls-2" d="m79.87,156.21c-.4,0-.81-.12-1.16-.37-.9-.64-1.1-1.89-.46-2.79,2.67-3.73,6.59-6.32,11.05-7.31,1.08-.24,2.15.44,2.38,1.52.24,1.08-.44,2.15-1.52,2.38-3.49.77-6.57,2.81-8.66,5.73-.39.54-1,.83-1.63.83Z"/><path class="cls-2" d="m101.6,140.32c-1.1,0-2-.9-2-2,0-2.7-2.2-4.89-4.89-4.89s-4.9,2.2-4.9,4.89c0,1.1-.9,2-2,2s-2-.9-2-2c0-4.9,3.99-8.89,8.9-8.89s8.89,3.99,8.89,8.89c0,1.1-.9,2-2,2Z"/><path class="cls-2" d="m96.27,112.14c-3.89,0-6.72-2.49-7.25-6.19-1.69.3-3.28.07-4.68-.68-1.61-.87-2.83-2.39-3.45-4.3-.62-1.91-.53-3.86.27-5.51.69-1.43,1.85-2.56,3.39-3.3-1.75-3.31-.92-6.99,2.22-9.27,1.62-1.18,3.51-1.69,5.32-1.45,1.57.21,3,.97,4.19,2.2,1.19-1.23,2.61-1.99,4.19-2.2,1.81-.24,3.7.27,5.32,1.45,1.62,1.18,2.7,2.82,3.02,4.61.28,1.56,0,3.15-.8,4.66,1.54.75,2.7,1.87,3.38,3.3.79,1.64.89,3.6.27,5.51-.62,1.91-1.85,3.44-3.45,4.3-1.4.75-3,.98-4.68.68-.53,3.71-3.36,6.19-7.25,6.19Zm-4.95-11.36c.41,0,.83.13,1.18.38.72.52,1,1.45.71,2.28-.22.63-.27,1.01-.27,1.21,0,3.14,2.33,3.48,3.34,3.48s3.34-.34,3.34-3.48c0-.2-.05-.58-.27-1.21-.29-.83,0-1.76.71-2.28.72-.52,1.69-.51,2.39.03.53.41.87.57,1.07.63,1.09.35,2.04.33,2.8-.08.71-.38,1.24-1.08,1.54-2.01s.28-1.81-.07-2.54c-.38-.78-1.12-1.36-2.21-1.71,0,0,0,0,0,0-.19-.06-.56-.14-1.23-.12-.88.06-1.68-.54-1.95-1.38s.04-1.76.77-2.27c.55-.38.81-.66.93-.82.67-.93.94-1.83.78-2.69-.14-.79-.64-1.51-1.44-2.09-.8-.58-1.64-.83-2.43-.72-.86.12-1.64.65-2.31,1.57-.12.16-.3.5-.49,1.14-.25.85-1.03,1.43-1.92,1.43h0c-.89,0-1.67-.58-1.92-1.43-.19-.64-.37-.97-.49-1.14-.67-.93-1.45-1.46-2.31-1.58-.8-.11-1.63.14-2.43.72-.81.59-2.5,2.24-.66,4.77.12.17.38.44.93.82.73.5,1.04,1.42.77,2.27-.27.84-1.05,1.43-1.95,1.38-.67-.02-1.04.05-1.23.12-1.09.36-1.84.93-2.21,1.71-.35.72-.37,1.6-.06,2.54.3.94.84,1.63,1.54,2.01.76.41,1.7.44,2.79.08.19-.06.54-.22,1.07-.63.36-.27.79-.41,1.22-.41Z"/><path class="cls-2" d="m72.1,136.29c-.66,0-1.32-.09-1.94-.28-1.52-.46-2.81-1.42-3.79-2.83-1.36,1.03-2.92,1.55-4.48,1.52-1.82-.04-3.61-.84-5.03-2.26-2.75-2.75-2.99-6.51-.74-9.51-3.06-2.15-4-5.81-2.23-9.27.91-1.79,2.36-3.1,4.08-3.71,1.5-.53,3.11-.5,4.73.06.5-1.64,1.43-2.96,2.73-3.86,1.5-1.04,3.42-1.44,5.4-1.12,3.84.61,6.24,3.51,6.19,7.25,1.72-.05,3.25.44,4.52,1.41,1.45,1.11,2.42,2.81,2.74,4.79.61,3.84-1.41,7.02-4.98,8.13.56,1.62.58,3.23.06,4.73-.6,1.72-1.92,3.17-3.71,4.08-1.15.58-2.36.88-3.54.88Zm-5.12-8.97c.1,0,.21,0,.31.02.87.14,1.55.84,1.67,1.71.09.66.22,1.02.31,1.2.52,1.02,1.21,1.67,2.04,1.92.77.23,1.64.12,2.51-.33.88-.45,1.48-1.08,1.75-1.84.29-.82.17-1.75-.35-2.77,0,0,0,0,0,0-.09-.18-.3-.5-.79-.96-.64-.61-.81-1.57-.4-2.36.4-.79,1.28-1.22,2.15-1.06.66.12,1.04.11,1.24.08,3.1-.49,3.07-2.85,2.91-3.84-.15-.97-.57-1.74-1.21-2.23-.69-.53-1.62-.7-2.75-.52-.2.03-.57.14-1.15.45-.78.42-1.74.28-2.37-.34-.63-.63-.77-1.59-.35-2.37.32-.59.42-.95.46-1.16.49-3.1-1.76-3.8-2.75-3.95-.97-.15-1.83,0-2.5.46-.71.49-1.17,1.32-1.34,2.45-.03.2-.04.58.08,1.24.16.87-.27,1.74-1.06,2.14-.79.4-1.75.24-2.36-.4-.46-.49-.77-.7-.96-.79-1.02-.52-1.96-.64-2.77-.35-.76.26-1.39.87-1.84,1.75-.46.89-1.21,3.13,1.58,4.55.18.09.54.22,1.2.31.88.12,1.57.8,1.71,1.67s-.32,1.74-1.12,2.12c-.6.29-.9.52-1.04.66-2.22,2.22-.81,4.11-.1,4.82s1.49,1.08,2.29,1.09c.92.02,1.72-.38,2.53-1.19.15-.15.38-.44.67-1.05.34-.7,1.04-1.14,1.8-1.14Z"/></svg>