<?xml version="1.0" encoding="UTF-8"?><svg id="_圖層_1" xmlns="http://www.w3.org/2000/svg" viewBox="0 0 200 200"><defs><style>.cls-1{fill:none;}.cls-1,.cls-2,.cls-3{stroke-width:0px;}.cls-4{opacity:.5;}.cls-2{fill:#4d4d4d;}.cls-3{fill:#e17b5e;}</style></defs><circle class="cls-1" cx="100" cy="100" r="100"/><g class="cls-4"><path class="cls-3" d="m43.25,107.41c0,8.05,6.58,14.63,14.63,14.63h79.58c8.05,0,14.63-6.58,14.63-14.63v-13.3c0-8.05-6.58-14.63-14.63-14.63s-14.63,6.58-14.63,14.63v6.65h-50.31v-6.65c0-8.05-6.58-14.63-14.63-14.63s-14.63,6.58-14.63,14.63"/></g><path class="cls-2" d="m141.75,128.35H62.17c-9.03,0-16.38-7.35-16.38-16.38,0-.97.78-1.75,1.75-1.75s1.75.78,1.75,1.75c0,7.1,5.78,12.88,12.88,12.88h79.58c7.1,0,12.88-5.78,12.88-12.88v-13.3c0-7.1-5.78-12.88-12.88-12.88s-12.88,5.78-12.88,12.88v6.65c0,.97-.78,1.75-1.75,1.75h-50.31c-.97,0-1.75-.78-1.75-1.75v-6.65c0-7.1-5.78-12.88-12.88-12.88s-12.88,5.78-12.88,12.88c0,.97-.78,1.75-1.75,1.75s-1.75-.78-1.75-1.75c0-9.03,7.35-16.38,16.38-16.38s16.38,7.35,16.38,16.38v4.9h46.81v-4.9c0-9.03,7.35-16.38,16.38-16.38s16.38,7.35,16.38,16.38v13.3c0,9.03-7.35,16.38-16.38,16.38Z"/><path class="cls-2" d="m66.85,139.81c-3.77,0-6.84-3.07-6.84-6.84,0-.97.78-1.75,1.75-1.75s1.75.78,1.75,1.75c0,1.84,1.5,3.34,3.34,3.34s3.34-1.5,3.34-3.34c0-.97.78-1.75,1.75-1.75s1.75.78,1.75,1.75c0,3.77-3.07,6.84-6.84,6.84Z"/><path class="cls-2" d="m138.25,139.81c-3.77,0-6.84-3.07-6.84-6.84,0-.97.78-1.75,1.75-1.75s1.75.78,1.75,1.75c0,1.84,1.5,3.34,3.34,3.34s3.34-1.5,3.34-3.34c0-.97.78-1.75,1.75-1.75s1.75.78,1.75,1.75c0,3.77-3.07,6.84-6.84,6.84Z"/><path class="cls-2" d="m139.58,80.02c-.65,0-1.28-.37-1.58-.99-6.62-13.77-20.77-22.67-36.04-22.67s-29.24,8.64-35.99,22.55c-.42.87-1.47,1.23-2.34.81-.87-.42-1.23-1.47-.81-2.34,7.23-14.89,22.59-24.52,39.14-24.52s31.99,9.67,39.2,24.65c.42.87.05,1.92-.82,2.34-.24.12-.5.17-.76.17Z"/><path class="cls-2" d="m149.65,102.51c-.97,0-1.75-.78-1.75-1.75,0-3.38-2.75-6.12-6.12-6.12-.97,0-1.75-.78-1.75-1.75s.78-1.75,1.75-1.75c5.3,0,9.62,4.32,9.62,9.62,0,.97-.78,1.75-1.75,1.75Z"/><circle class="cls-2" cx="47.54" cy="105.91" r="1.75"/></svg>