<?xml version="1.0" encoding="UTF-8"?><svg id="_圖層_1" xmlns="http://www.w3.org/2000/svg" viewBox="0 0 260 260"><defs><style>.cls-1{fill:none;}.cls-1,.cls-2,.cls-3{stroke-width:0px;}.cls-4{opacity:.5;}.cls-2{fill:#4d4d4d;}.cls-3{fill:#e17b5e;}</style></defs><circle class="cls-1" cx="130" cy="130" r="130"/><g class="cls-4"><path class="cls-3" d="m143.61,137.92l-22.83-13.18c-1.89-1.09-4.26.27-4.26,2.46v26.36c0,2.19,2.37,3.55,4.26,2.46l22.83-13.18c1.89-1.09,1.89-3.82,0-4.92Z"/></g><g class="cls-4"><rect class="cls-3" x="55.24" y="73.32" width="140.14" height="28.63" rx="6.4" ry="6.4"/></g><circle class="cls-2" cx="202.76" cy="134.46" r="2"/><path class="cls-2" d="m195.66,186.68h-127.75c-5.02,0-9.1-4.08-9.1-9.1v-91.2c0-5.02,4.08-9.1,9.1-9.1h127.75c5.02,0,9.1,4.08,9.1,9.1v39.15c0,1.1-.9,2-2,2s-2-.9-2-2v-39.15c0-2.81-2.29-5.1-5.1-5.1h-127.75c-2.81,0-5.1,2.29-5.1,5.1v91.2c0,2.81,2.29,5.1,5.1,5.1h127.75c2.81,0,5.1-2.29,5.1-5.1v-33.91c0-1.1.9-2,2-2s2,.9,2,2v33.91c0,5.02-4.08,9.1-9.1,9.1Z"/><path class="cls-2" d="m202.76,109.91H60.82c-1.1,0-2-.9-2-2s.9-2,2-2h141.94c1.1,0,2,.9,2,2s-.9,2-2,2Z"/><path class="cls-2" d="m76.47,109.91c-.32,0-.64-.08-.94-.24-.97-.52-1.34-1.73-.82-2.71l15.27-28.63c.52-.97,1.73-1.34,2.71-.82.97.52,1.34,1.73.82,2.71l-15.27,28.63c-.36.67-1.05,1.06-1.77,1.06Z"/><path class="cls-2" d="m100.31,109.91c-.32,0-.64-.08-.94-.24-.97-.52-1.34-1.73-.82-2.71l15.27-28.63c.52-.97,1.73-1.34,2.71-.82.97.52,1.34,1.73.82,2.71l-15.27,28.63c-.36.67-1.05,1.06-1.77,1.06Z"/><path class="cls-2" d="m124.15,109.91c-.32,0-.64-.08-.94-.24-.97-.52-1.34-1.73-.82-2.71l15.27-28.63c.52-.97,1.73-1.34,2.71-.82.97.52,1.34,1.73.82,2.71l-15.27,28.63c-.36.67-1.05,1.06-1.77,1.06Z"/><path class="cls-2" d="m147.99,109.91c-.32,0-.64-.08-.94-.24-.97-.52-1.34-1.73-.82-2.71l15.27-28.63c.52-.97,1.73-1.34,2.71-.82.97.52,1.34,1.73.82,2.71l-15.27,28.63c-.36.67-1.05,1.06-1.77,1.06Z"/><path class="cls-2" d="m171.83,109.91c-.32,0-.64-.08-.94-.24-.97-.52-1.34-1.73-.82-2.71l15.27-28.63c.52-.97,1.73-1.34,2.71-.82.97.52,1.34,1.73.82,2.71l-15.27,28.63c-.36.67-1.05,1.06-1.77,1.06Z"/><path class="cls-2" d="m123.17,163.77c-.83,0-1.66-.22-2.42-.66-1.52-.88-2.42-2.44-2.42-4.19v-26.36c0-1.75.9-3.32,2.42-4.19,1.51-.88,3.32-.88,4.84,0l22.83,13.18h0c1.52.88,2.42,2.44,2.42,4.19s-.9,3.32-2.42,4.19l-22.83,13.18c-.76.44-1.59.66-2.42.66Zm0-32.05c-.18,0-.33.06-.42.12-.16.09-.42.31-.42.73v26.36c0,.42.26.64.42.73.16.09.47.21.84,0l22.83-13.18c.36-.21.42-.54.42-.73s-.05-.52-.42-.73l-22.83-13.18c-.15-.09-.29-.12-.42-.12Z"/><g class="cls-4"><path class="cls-3" d="m193.18,154.97c1.77,0,3.2,1.43,3.2,3.2v11.21c0,4.2-3.42,7.61-7.61,7.61h-10.08c-1.77,0-3.2-1.43-3.2-3.2s1.43-3.2,3.2-3.2h10.08c.66,0,1.21-.56,1.21-1.21v-11.21c0-1.77,1.43-3.2,3.2-3.2Z"/></g></svg>