<?xml version="1.0" encoding="UTF-8"?><svg id="_圖層_1" xmlns="http://www.w3.org/2000/svg" viewBox="0 0 200 200"><defs><style>.cls-1{fill:none;}.cls-1,.cls-2,.cls-3{stroke-width:0px;}.cls-4{opacity:.5;}.cls-2{fill:#4d4d4d;}.cls-3{fill:#e17b5e;}</style></defs><circle class="cls-1" cx="100" cy="100" r="100"/><g class="cls-4"><path class="cls-3" d="m136.3,74.43v-23.31l-15.68-10.72c-1.33-.91-3.13.04-3.13,1.65v32.39h18.81Z"/></g><path class="cls-2" d="m64.39,52.25c-.11,0-.23-.01-.34-.03-.95-.19-1.56-1.11-1.37-2.06,1-5,4.66-9,9.55-10.45.93-.27,1.9.25,2.18,1.18s-.25,1.9-1.18,2.17c-3.64,1.08-6.37,4.06-7.11,7.78-.17.83-.9,1.41-1.71,1.41Z"/><path class="cls-2" d="m90.05,112.13c-.97,0-1.75-.78-1.75-1.75v-35.94c0-.97.78-1.75,1.75-1.75s1.75.78,1.75,1.75v35.94c0,.97-.78,1.75-1.75,1.75Z"/><path class="cls-2" d="m58.54,97.52c-.97,0-1.75-.78-1.75-1.75v-45.74c0-9.65,7.85-17.51,17.51-17.51s17.51,7.85,17.51,17.51v10.72c0,.97-.78,1.75-1.75,1.75s-1.75-.78-1.75-1.75v-10.72c0-7.72-6.28-14.01-14.01-14.01s-14.01,6.28-14.01,14.01v45.74c0,.97-.78,1.75-1.75,1.75Z"/><path class="cls-2" d="m142.51,161.01h-26.68c-2.3,0-4.17-1.87-4.17-4.17v-29.9c0-.97.78-1.75,1.75-1.75s1.75.78,1.75,1.75v29.9c0,.37.3.67.67.67h26.68c.37,0,.67-.3.67-.67v-29.9c0-.97.78-1.75,1.75-1.75s1.75.78,1.75,1.75v29.9c0,2.3-1.87,4.17-4.17,4.17Z"/><path class="cls-2" d="m87.64,161.01h-26.68c-2.3,0-4.17-1.87-4.17-4.17v-29.9c0-.97.78-1.75,1.75-1.75s1.75.78,1.75,1.75v29.9c0,.37.3.67.67.67h26.68c.37,0,.67-.3.67-.67v-29.9c0-.97.78-1.75,1.75-1.75s1.75.78,1.75,1.75v29.9c0,2.3-1.87,4.17-4.17,4.17Z"/><path class="cls-2" d="m144.93,111c-.97,0-1.75-.78-1.75-1.75v-27.58c0-.23-.27-.48-.67-.48h-26.68c-.39,0-.67.25-.67.48v27.58c0,.97-.78,1.75-1.75,1.75s-1.75-.78-1.75-1.75v-27.58c0-2.2,1.87-3.98,4.17-3.98h26.68c2.3,0,4.17,1.79,4.17,3.98v27.58c0,.97-.78,1.75-1.75,1.75Z"/><path class="cls-2" d="m139.09,80.45c-.97,0-1.75-.78-1.75-1.75v-22.39l-14.92-10.2s-.12-.08-.26-.01c-.13.07-.13.18-.13.22v32.39c0,.97-.78,1.75-1.75,1.75s-1.75-.78-1.75-1.75v-32.39c0-1.39.77-2.67,2-3.32,1.23-.65,2.71-.57,3.87.22l15.68,10.72c.48.33.76.87.76,1.44v23.31c0,.97-.78,1.75-1.75,1.75Z"/><path class="cls-2" d="m90.89,128.69h-33.19c-5.53,0-10.03-4.5-10.03-10.03s4.5-10.03,10.03-10.03h33.19c5.53,0,10.03,4.5,10.03,10.03s-4.5,10.03-10.03,10.03Zm-33.19-16.56c-3.6,0-6.53,2.93-6.53,6.53s2.93,6.53,6.53,6.53h33.19c3.6,0,6.53-2.93,6.53-6.53s-2.93-6.53-6.53-6.53h-33.19Z"/><path class="cls-2" d="m146.27,128.69h-33.19c-5.53,0-10.03-4.5-10.03-10.03s4.5-10.03,10.03-10.03h33.19c5.53,0,10.03,4.5,10.03,10.03s-4.5,10.03-10.03,10.03Zm-33.19-16.56c-3.6,0-6.53,2.93-6.53,6.53s2.93,6.53,6.53,6.53h33.19c3.6,0,6.53-2.93,6.53-6.53s-2.93-6.53-6.53-6.53h-33.19Z"/><path class="cls-2" d="m58.54,111c-.97,0-1.75-.78-1.75-1.75v-8c0-.97.78-1.75,1.75-1.75s1.75.78,1.75,1.75v8c0,.97-.78,1.75-1.75,1.75Z"/><path class="cls-2" d="m144.93,118.64h-11.87c-.97,0-1.75-.78-1.75-1.75s.78-1.75,1.75-1.75h11.87c.97,0,1.75.78,1.75,1.75s-.78,1.75-1.75,1.75Z"/><circle class="cls-2" cx="90.05" cy="66.77" r="1.75"/><g class="cls-4"><circle class="cls-3" cx="131.56" cy="34.27" r="4.64"/></g><g class="cls-4"><circle class="cls-3" cx="113.41" cy="25.94" r="10.14"/></g></svg>