<?xml version="1.0" encoding="UTF-8"?><svg id="_圖層_1" xmlns="http://www.w3.org/2000/svg" xmlns:xlink="http://www.w3.org/1999/xlink" viewBox="0 0 112 112"><defs><style>.cls-1{fill:none;opacity:.85;}.cls-2{fill:#fff;}.cls-3{fill:#4d4d4d;}.cls-4{fill:url(#_未命名漸層_3);}</style><linearGradient id="_未命名漸層_3" x1="-403.96" y1="105.33" x2="-874.84" y2="979.25" gradientUnits="userSpaceOnUse"><stop offset="0" stop-color="#f17456"/><stop offset="1" stop-color="#e0524e"/></linearGradient></defs><g class="cls-1"><circle class="cls-4" cx="-591.58" cy="453.54" r="596"/></g><circle class="cls-2" cx="56" cy="56" r="56"/><path class="cls-3" d="m69.68,82.31h-36.75c-3.82,0-6.93-3.11-6.93-6.93v-31.22c0-3.82,3.11-6.93,6.93-6.93h46.14c3.82,0,6.93,3.11,6.93,6.93v21.83c0,9-7.32,16.32-16.32,16.32Zm-36.75-43.04c-2.7,0-4.9,2.2-4.9,4.9v31.22c0,2.7,2.2,4.9,4.9,4.9h36.75c7.88,0,14.29-6.41,14.29-14.29v-21.83c0-2.7-2.2-4.9-4.9-4.9h-46.14Z"/><path class="cls-3" d="m56,75.51c-8.68,0-15.73-7.06-15.73-15.73s7.06-15.73,15.73-15.73,15.73,7.06,15.73,15.73-7.06,15.73-15.73,15.73Zm0-29.44c-7.56,0-13.7,6.15-13.7,13.7s6.15,13.7,13.7,13.7,13.7-6.15,13.7-13.7-6.15-13.7-13.7-13.7Z"/><path class="cls-3" d="m56,69.07c-5.13,0-9.3-4.17-9.3-9.3s4.17-9.3,9.3-9.3,9.3,4.17,9.3,9.3-4.17,9.3-9.3,9.3Zm0-16.57c-4.01,0-7.27,3.26-7.27,7.27s3.26,7.27,7.27,7.27,7.27-3.26,7.27-7.27-3.26-7.27-7.27-7.27Z"/><path class="cls-3" d="m37.86,51.02h-10.85c-.56,0-1.01-.45-1.01-1.01s.45-1.01,1.01-1.01h10.85c.56,0,1.01.45,1.01,1.01s-.45,1.01-1.01,1.01Z"/><path class="cls-3" d="m84.99,51.02h-10.27c-.56,0-1.01-.45-1.01-1.01s.45-1.01,1.01-1.01h10.27c.56,0,1.01.45,1.01,1.01s-.45,1.01-1.01,1.01Z"/><path class="cls-3" d="m43.92,35.8c-.56,0-1.01-.45-1.01-1.01,0-1.69-1.38-3.07-3.07-3.07s-3.07,1.38-3.07,3.07c0,.56-.45,1.01-1.01,1.01s-1.01-.45-1.01-1.01c0-2.81,2.29-5.1,5.1-5.1s5.1,2.29,5.1,5.1c0,.56-.45,1.01-1.01,1.01Z"/><circle class="cls-3" cx="71.64" cy="50" r="1.01"/></svg>