<?xml version="1.0" encoding="UTF-8"?><svg id="_圖層_2" xmlns="http://www.w3.org/2000/svg" viewBox="0 0 100 100"><defs><style>.cls-1{fill:#68b635;stroke-width:0px;}</style></defs><path class="cls-1" d="m58.76,79.74c-.32,0-.64-.02-.96-.06-3.49.11-6.39-1.02-8.82-2.09-4.43-1.93-8.6-4.53-12.39-7.72-2.72-2.29-5.22-4.89-7.63-7.96-2.54-3.23-4.53-6.37-6.09-9.6-1.21-2.5-2.52-5.44-2.89-8.7-.28-2.49-.29-6.11,2.79-8.8.62-.54,1.21-1.12,1.83-1.73.78-.76,1.58-1.55,2.47-2.28,1.9-1.56,4.82-1.38,6.65.41,2.22,2.17,4.45,4.4,6.65,6.65,2.01,2.06,2.01,5.31,0,7.4-1.27,1.31-2.45,2.5-3.63,3.63.8,1.79,1.96,3.5,3.74,5.52.88,1,2.04,2.29,3.27,3.46,2.22,2.13,4.47,3.75,6.88,4.97.03.01.05.03.07.03,0,0,0,0,0,0l.41-.44c.85-.91,1.7-1.83,2.57-2.71,2.39-2.42,4.73-2.2,6.28-1.59.87.34,1.54.9,1.95,1.3,1.55,1.52,3.09,3.06,4.63,4.6l1.43,1.44c2.52,2.52,2.51,5.67-.03,8.21-.31.31-.63.62-.95.93-.67.66-1.3,1.27-1.9,1.93-1.94,2.13-4.07,3.21-6.35,3.21Zm-.87-3.45c.08,0,.17,0,.25.02,1.55.23,3-.44,4.47-2.06.66-.73,1.36-1.41,2.04-2.07.31-.3.61-.6.92-.9,1.24-1.24,1.25-2.21.03-3.43l-1.44-1.44c-1.53-1.53-3.05-3.06-4.6-4.57-.27-.26-.57-.47-.83-.57-.68-.27-1.47-.35-2.63.82-.85.86-1.68,1.75-2.5,2.64l-.41.45c-1.12,1.21-2.57,1.45-4.08.69-2.71-1.37-5.23-3.18-7.69-5.54-1.32-1.27-2.55-2.63-3.47-3.67-2.03-2.31-3.42-4.38-4.35-6.51-.74-1.69-.04-2.87.68-3.55,1.18-1.13,2.38-2.33,3.66-3.66.76-.79.77-1.93.03-2.69-2.18-2.23-4.39-4.45-6.59-6.59-.6-.58-1.58-.68-2.14-.22-.77.63-1.49,1.34-2.25,2.08-.63.62-1.28,1.26-1.98,1.86-1.5,1.31-1.97,3.01-1.65,5.88.31,2.73,1.49,5.35,2.57,7.6,1.45,3.01,3.32,5.95,5.7,8.98,2.26,2.88,4.6,5.32,7.14,7.46,3.54,2.98,7.43,5.4,11.56,7.21,2.22.97,4.64,1.9,7.49,1.8.02,0,.04,0,.06,0Z"/><path class="cls-1" d="m76.86,53.29c-.93,0-1.69-.76-1.69-1.69,0-14.14-11.51-25.65-25.65-25.65-.93,0-1.69-.76-1.69-1.69s.76-1.69,1.69-1.69c16.01,0,29.03,13.02,29.03,29.03,0,.93-.76,1.69-1.69,1.69Z"/><path class="cls-1" d="m68.17,53.29c-.93,0-1.69-.76-1.69-1.69,0-9.35-7.61-16.96-16.96-16.96-.93,0-1.69-.76-1.69-1.69s.76-1.69,1.69-1.69c11.22,0,20.34,9.13,20.34,20.34,0,.93-.76,1.69-1.69,1.69Z"/><path class="cls-1" d="m50.05,100c-11.06,0-21.77-3.63-30.54-10.39l-13.51,1.98c-1.71.25-3.4-.47-4.4-1.88-1-1.41-1.13-3.24-.34-4.77l5.28-10.22C1.64,66.14-.57,56.37.13,46.41,1.82,22.18,21.33,2.31,45.49.19h0c14.86-1.3,29.39,3.97,39.88,14.46,10.48,10.49,15.75,25.03,14.44,39.88-2.13,24.21-22.05,43.7-46.33,45.35-1.15.08-2.29.12-3.43.12Zm-30.07-13.86c.38,0,.75.13,1.05.37,9.11,7.24,20.55,10.79,32.22,10,22.63-1.53,41.2-19.71,43.19-42.27,1.22-13.86-3.68-27.42-13.46-37.2C73.2,7.26,59.64,2.35,45.79,3.56,23.26,5.54,5.08,24.06,3.5,46.64c-.67,9.59,1.55,18.98,6.42,27.17.3.5.32,1.12.05,1.64l-5.71,11.04c-.31.59-.04,1.08.09,1.26.13.18.5.6,1.16.49l14.22-2.09c.08-.01.16-.02.25-.02Z"/></svg>