<?xml version="1.0" encoding="UTF-8"?><svg id="_圖層_1" xmlns="http://www.w3.org/2000/svg" viewBox="0 0 150 150"><defs><style>.cls-1{fill:#959595;stroke-width:0px;}</style></defs><path class="cls-1" d="m66.84,112.08h-18.6c-13.78,0-25-11.21-25-25,0-9.43,5.33-18.05,13.68-22.29-.01-.31-.02-.62-.02-.92,0-15.97,12.99-28.96,28.96-28.96.97,0,1.75.78,1.75,1.75s-.78,1.75-1.75,1.75c-14.04,0-25.46,11.42-25.46,25.46,0,.61.02,1.24.07,1.87.05.73-.36,1.42-1.03,1.72-7.72,3.46-12.7,11.17-12.7,19.62,0,11.85,9.64,21.5,21.5,21.5h18.6c.97,0,1.75.78,1.75,1.75s-.78,1.75-1.75,1.75Z"/><path class="cls-1" d="m105.47,112.08h-21.97c-.97,0-1.75-.78-1.75-1.75s.78-1.75,1.75-1.75h21.97c9.8,0,17.78-7.98,17.78-17.78,0-8.49-6.03-15.82-14.35-17.45-.62-.12-1.12-.56-1.32-1.16-.2-.6-.07-1.25.35-1.72,1.85-2.08,2.87-4.75,2.87-7.54,0-6.25-5.08-11.33-11.33-11.33-2.75,0-5.4,1-7.46,2.81-.42.37-.99.52-1.54.39-.55-.12-1-.5-1.22-1.01-2.12-4.92-5.83-9.13-10.45-11.86-.83-.49-1.11-1.57-.62-2.4.49-.83,1.57-1.11,2.4-.62,4.62,2.73,8.44,6.77,10.94,11.5,2.37-1.51,5.12-2.32,7.96-2.32,8.18,0,14.83,6.65,14.83,14.83,0,2.72-.75,5.37-2.14,7.67,8.59,2.84,14.58,10.96,14.58,20.2,0,11.73-9.55,21.28-21.28,21.28Z"/><path class="cls-1" d="m75,115.09c-.97,0-1.75-.78-1.75-1.75v-45.05c0-.97.78-1.75,1.75-1.75s1.75.78,1.75,1.75v45.05c0,.97-.78,1.75-1.75,1.75Z"/><path class="cls-1" d="m89.15,82.71c-.49,0-.99-.21-1.33-.61l-12.82-15-12.82,15c-.63.74-1.73.82-2.47.19-.73-.63-.82-1.73-.19-2.47l14.15-16.56c.67-.78,2-.78,2.66,0l14.15,16.56c.63.73.54,1.84-.19,2.47-.33.28-.73.42-1.14.42Z"/><circle class="cls-1" cx="73.4" cy="36.66" r="1.75"/></svg>