<?xml version="1.0" encoding="UTF-8"?><svg id="_圖層_1" xmlns="http://www.w3.org/2000/svg" viewBox="0 0 150 150"><defs><style>.cls-1{fill:#959595;stroke-width:0px;}</style></defs><path class="cls-1" d="m98.6,120.38h-63.4c-6.59,0-11.95-5.36-11.95-11.95v-53.85c0-6.59,5.36-11.95,11.95-11.95h79.6c6.59,0,11.95,5.36,11.95,11.95v37.65c0,15.52-12.63,28.15-28.15,28.15ZM35.2,46.13c-4.66,0-8.45,3.79-8.45,8.45v53.85c0,4.66,3.79,8.45,8.45,8.45h63.4c13.59,0,24.65-11.06,24.65-24.65v-37.65c0-4.66-3.79-8.45-8.45-8.45H35.2Z"/><path class="cls-1" d="m75,108.65c-14.97,0-27.14-12.17-27.14-27.14s12.17-27.14,27.14-27.14,27.14,12.17,27.14,27.14-12.17,27.14-27.14,27.14Zm0-50.78c-13.04,0-23.64,10.61-23.64,23.64s10.6,23.64,23.64,23.64,23.64-10.6,23.64-23.64-10.6-23.64-23.64-23.64Z"/><path class="cls-1" d="m75,97.55c-8.85,0-16.05-7.2-16.05-16.04s7.2-16.05,16.05-16.05,16.05,7.2,16.05,16.05-7.2,16.04-16.05,16.04Zm0-28.59c-6.92,0-12.55,5.63-12.55,12.55s5.63,12.54,12.55,12.54,12.55-5.63,12.55-12.54-5.63-12.55-12.55-12.55Z"/><path class="cls-1" d="m43.71,66.4h-18.71c-.97,0-1.75-.78-1.75-1.75s.78-1.75,1.75-1.75h18.71c.97,0,1.75.78,1.75,1.75s-.78,1.75-1.75,1.75Z"/><path class="cls-1" d="m125,66.4h-17.71c-.97,0-1.75-.78-1.75-1.75s.78-1.75,1.75-1.75h17.71c.97,0,1.75.78,1.75,1.75s-.78,1.75-1.75,1.75Z"/><path class="cls-1" d="m54.16,40.16c-.97,0-1.75-.78-1.75-1.75,0-2.92-2.37-5.29-5.29-5.29s-5.29,2.37-5.29,5.29c0,.97-.78,1.75-1.75,1.75s-1.75-.78-1.75-1.75c0-4.85,3.94-8.79,8.79-8.79s8.79,3.94,8.79,8.79c0,.97-.78,1.75-1.75,1.75Z"/><circle class="cls-1" cx="101.99" cy="64.65" r="1.75"/></svg>